<svg width="70" height="70" viewBox="0 0 70 70" fill="none" xmlns="http://www.w3.org/2000/svg">
<path d="M65.9198 6.0141C65.7882 5.51454 65.5264 5.05884 65.1611 4.69355C64.7958 4.32825 64.3401 4.06644 63.8406 3.93484C57.8574 2.3808 51.5569 2.54818 45.6647 4.4177C39.7725 6.28721 34.5281 9.78285 30.5353 14.5021L27.2834 18.3633L19.6861 16.5302C17.8391 15.8863 15.8215 15.9324 14.0058 16.6601C12.1902 17.3878 10.6992 18.7479 9.80817 20.4892L3.39095 31.8639C3.1661 32.2624 3.03813 32.7081 3.0174 33.1651C2.99667 33.6221 3.08375 34.0776 3.2716 34.4948C3.45945 34.9119 3.7428 35.279 4.09877 35.5664C4.45473 35.8538 4.8733 36.0534 5.32067 36.1491L14.2829 38.0703C13.5237 40.3813 12.9816 42.7581 12.6636 45.1697C12.606 45.6128 12.6509 46.0632 12.7948 46.4861C12.9388 46.9091 13.1779 47.2934 13.4939 47.6093L22.5358 56.6512C22.8065 56.9222 23.128 57.1371 23.4818 57.2837C23.8357 57.4303 24.2149 57.5058 24.5979 57.5058C24.6819 57.5058 24.766 57.5015 24.8514 57.4944C27.317 57.2727 29.7526 56.7937 32.1185 56.0652L33.9959 64.8245C34.0918 65.2718 34.2916 65.6902 34.579 66.046C34.8665 66.4018 35.2335 66.6851 35.6506 66.8729C36.0677 67.0607 36.5231 67.1478 36.9801 67.1272C37.437 67.1066 37.8827 66.9788 38.2812 66.7542L49.6716 60.3299C51.2747 59.3558 52.527 57.8977 53.2478 56.1658C53.9686 54.434 54.1206 52.5179 53.682 50.694L51.7316 42.647L55.3397 39.3292C60.0766 35.3477 63.5857 30.1029 65.4586 24.2052C67.3316 18.3075 67.4916 11.9992 65.9198 6.0141ZM10.4192 31.2758L14.9579 23.2265C15.2398 22.68 15.7201 22.2621 16.3003 22.0585C16.8805 21.8548 17.5166 21.8809 18.0782 22.1313L23.0873 23.3452L21.1915 25.5962C19.3941 27.7504 17.8396 30.0961 16.556 32.5908L10.4192 31.2758ZM46.7906 55.2571L38.8695 59.7245L37.6167 53.8777C40.1561 52.6112 42.5218 51.0233 44.6558 49.153L46.8244 47.159L48.0011 52.0142C48.1537 52.6137 48.1196 53.2455 47.9033 53.825C47.6869 54.4046 47.2987 54.9042 46.7906 55.2571ZM51.4989 34.9416L40.7522 44.8181C36.4984 48.4968 31.2515 50.8351 25.6718 51.5387L18.6593 44.5261C19.6011 38.9319 22.0185 33.6903 25.6619 29.342L30.557 23.53C30.6386 23.4447 30.7147 23.3543 30.7849 23.2594L34.9701 18.2903C38.0646 14.6355 42.0737 11.8673 46.5878 10.2685C51.102 8.66967 55.9597 8.29751 60.6647 9.19C61.5788 13.9098 61.2106 18.7884 59.5985 23.3175C57.9864 27.8467 55.1894 31.8607 51.4989 34.9416ZM48.8068 16.964C47.9415 16.964 47.0956 17.2206 46.3762 17.7013C45.6567 18.182 45.0959 18.8653 44.7648 19.6647C44.4337 20.4642 44.347 21.3438 44.5158 22.1925C44.6846 23.0412 45.1013 23.8207 45.7132 24.4326C46.325 25.0444 47.1046 25.4611 47.9533 25.6299C48.8019 25.7987 49.6816 25.7121 50.481 25.3809C51.2804 25.0498 51.9637 24.489 52.4445 23.7696C52.9252 23.0501 53.1818 22.2043 53.1818 21.339C53.1818 20.7644 53.0687 20.1955 52.8488 19.6646C52.629 19.1338 52.3067 18.6515 51.9004 18.2452C51.4941 17.839 51.0118 17.5167 50.481 17.2968C49.9501 17.077 49.3813 16.9639 48.8068 16.964Z" fill="#6563FF"/>
</svg>
