<svg width="256" height="406" viewBox="0 0 256 406" fill="none" xmlns="http://www.w3.org/2000/svg">
<path d="M174.296 32.2681H237.568C246.21 32.2681 253 40.8534 253 51.7803V383.488C253 394.414 246.21 403 237.568 403H18.4321C9.79012 403 3 394.414 3 383.488V51.7803C3 40.8534 9.79012 32.2681 18.4321 32.2681H50.8395" fill="#9EFB51"/>
<path d="M239.493 55.8784H17.1992V390.873H239.493V55.8784Z" fill="white"/>
<path d="M174.296 32.2681H237.568C246.21 32.2681 253 40.8534 253 51.7803V383.488C253 394.414 246.21 403 237.568 403H18.4321C9.79012 403 3 394.414 3 383.488V51.7803C3 40.8534 9.79012 32.2681 18.4321 32.2681H50.8395" stroke="#444B54" stroke-width="6" stroke-miterlimit="10" stroke-linecap="round" stroke-linejoin="round"/>
<path d="M152.691 57.6341H103.309C91.2715 57.6341 81.7036 45.5366 81.7036 30.3171C81.7036 15.0976 91.2715 3 103.309 3H152.691C164.728 3 174.296 15.0976 174.296 30.3171C174.296 45.5366 164.728 57.6341 152.691 57.6341Z" fill="white"/>
<path d="M152.691 57.6341H103.309C91.2715 57.6341 81.7036 45.5366 81.7036 30.3171C81.7036 15.0976 91.2715 3 103.309 3H152.691C164.728 3 174.296 15.0976 174.296 30.3171C174.296 45.5366 164.728 57.6341 152.691 57.6341Z" stroke="#444B54" stroke-width="6" stroke-miterlimit="10" stroke-linecap="round" stroke-linejoin="round"/>
<path d="M148.249 39.0391H143.305H138.36C137.454 39.0391 136.712 39.7096 136.712 40.5293V49.4704C136.712 50.29 137.454 50.9606 138.36 50.9606H148.249C149.155 50.9606 149.897 50.29 149.897 49.4704V40.5293C149.897 39.7096 149.155 39.0391 148.249 39.0391ZM149.073 49.4704C149.073 49.8817 148.704 50.2155 148.249 50.2155H138.36C137.906 50.2155 137.536 49.8817 137.536 49.4704V40.5293C137.536 40.118 137.906 39.7842 138.36 39.7842H148.249C148.704 39.7842 149.073 40.118 149.073 40.5293V49.4704Z" fill="#444B54"/>
<path d="M143.305 42.7646C141.94 42.7646 140.833 43.7661 140.833 44.9999C140.833 46.2338 141.94 47.2352 143.305 47.2352C144.671 47.2352 145.777 46.2338 145.777 44.9999C145.777 43.7661 144.671 42.7646 143.305 42.7646ZM143.305 46.4901C142.396 46.4901 141.657 45.8218 141.657 44.9999C141.657 44.1781 142.396 43.5097 143.305 43.5097C144.214 43.5097 144.953 44.1781 144.953 44.9999C144.953 45.8218 144.214 46.4901 143.305 46.4901Z" fill="#444B54"/>
<path d="M121.056 40.5293V49.4704C121.056 50.29 121.798 50.9606 122.704 50.9606H132.593C133.499 50.9606 134.241 50.29 134.241 49.4704V40.5293C134.241 39.7096 133.499 39.0391 132.593 39.0391H127.648H122.704C121.798 39.0391 121.056 39.7096 121.056 40.5293ZM132.593 39.7842C133.047 39.7842 133.417 40.118 133.417 40.5293V49.4704C133.417 49.8817 133.047 50.2155 132.593 50.2155H122.704C122.25 50.2155 121.88 49.8817 121.88 49.4704V40.5293C121.88 40.118 122.25 39.7842 122.704 39.7842H132.593Z" fill="#444B54"/>
<path d="M127.648 47.2352C129.014 47.2352 130.12 46.2338 130.12 44.9999C130.12 43.7661 129.014 42.7646 127.648 42.7646C126.283 42.7646 125.176 43.7661 125.176 44.9999C125.176 46.2338 126.283 47.2352 127.648 47.2352ZM127.648 43.5097C128.557 43.5097 129.296 44.1781 129.296 44.9999C129.296 45.8218 128.557 46.4901 127.648 46.4901C126.739 46.4901 126 45.8218 126 44.9999C126 44.1781 126.739 43.5097 127.648 43.5097Z" fill="#444B54"/>
<path d="M105.399 40.5293V49.4704C105.399 50.29 106.141 50.9606 107.047 50.9606H116.936C117.842 50.9606 118.584 50.29 118.584 49.4704V40.5293C118.584 39.7096 117.842 39.0391 116.936 39.0391H111.992H107.047C106.141 39.0391 105.399 39.7096 105.399 40.5293ZM116.936 39.7842C117.39 39.7842 117.76 40.118 117.76 40.5293V49.4704C117.76 49.8817 117.39 50.2155 116.936 50.2155H107.047C106.593 50.2155 106.223 49.8817 106.223 49.4704V40.5293C106.223 40.118 106.593 39.7842 107.047 39.7842H116.936Z" fill="#444B54"/>
<path d="M144.953 31.5883H129.296V25.6275H138.361C139.267 25.6275 140.009 24.9569 140.009 24.1373V12.2158C140.009 11.3962 139.267 10.7256 138.361 10.7256H116.936C116.03 10.7256 115.288 11.3962 115.288 12.2158V24.1373C115.288 24.9569 116.03 25.6275 116.936 25.6275H126V31.5883H110.344V37.549L111.992 39.0392L113.64 37.549V34.5686H126V37.549L127.648 39.0392L129.296 37.549V34.5686H141.657V37.549L143.305 39.0392L144.953 37.549V31.5883ZM116.936 24.8824C116.482 24.8824 116.112 24.5479 116.112 24.1373V12.2158C116.112 11.8052 116.482 11.4707 116.936 11.4707H138.361C138.816 11.4707 139.185 11.8052 139.185 12.2158V24.1373C139.185 24.5479 138.816 24.8824 138.361 24.8824H129.296H126H116.936ZM144.129 37.2406L143.305 37.9857L142.481 37.2406V34.5686V33.8236H141.657H129.296H128.472V34.5686V37.2406L127.648 37.9857L126.824 37.2406V34.5686V33.8236H126H113.64H112.816V34.5686V37.2406L111.992 37.9857L111.168 37.2406V32.3334H126H126.824V31.5883V25.6275H128.472V31.5883V32.3334H129.296H144.129V37.2406Z" fill="#444B54"/>
<path d="M111.992 47.2352C113.357 47.2352 114.464 46.2338 114.464 44.9999C114.464 43.7661 113.357 42.7646 111.992 42.7646C110.626 42.7646 109.52 43.7661 109.52 44.9999C109.52 46.2338 110.626 47.2352 111.992 47.2352ZM111.992 43.5097C112.901 43.5097 113.64 44.1781 113.64 44.9999C113.64 45.8218 112.901 46.4901 111.992 46.4901C111.083 46.4901 110.344 45.8218 110.344 44.9999C110.344 44.1781 111.083 43.5097 111.992 43.5097Z" fill="#444B54"/>
<path d="M135.889 21.1567H119.408V21.9018H135.889V21.1567Z" fill="#444B54"/>
<path d="M135.889 17.4316H119.408V18.1767H135.889V17.4316Z" fill="#444B54"/>
<path d="M135.889 13.7061H119.408V14.4512H135.889V13.7061Z" fill="#444B54"/>
<path d="M115.7 49.4705H108.696C108.468 49.4705 108.284 49.3036 108.284 49.0979C108.284 48.8923 108.468 48.7254 108.696 48.7254H115.7C115.927 48.7254 116.112 48.5577 116.112 48.3528V42.0195C116.112 41.8139 116.297 41.647 116.524 41.647C116.751 41.647 116.936 41.8139 116.936 42.0195V48.3528C116.936 48.969 116.381 49.4705 115.7 49.4705Z" fill="#444B54"/>
<path d="M137.125 24.1374H130.121C129.893 24.1374 129.708 23.9705 129.708 23.7648C129.708 23.5592 129.893 23.3923 130.121 23.3923H137.125C137.352 23.3923 137.537 23.2246 137.537 23.0197V12.9609C137.537 12.7553 137.721 12.5884 137.949 12.5884C138.176 12.5884 138.361 12.7553 138.361 12.9609V23.0197C138.361 23.6359 137.806 24.1374 137.125 24.1374Z" fill="#444B54"/>
<path d="M131.357 49.4705H124.352C124.125 49.4705 123.94 49.3036 123.94 49.0979C123.94 48.8923 124.125 48.7254 124.352 48.7254H131.357C131.584 48.7254 131.769 48.5577 131.769 48.3528V42.0195C131.769 41.8139 131.953 41.647 132.181 41.647C132.408 41.647 132.593 41.8139 132.593 42.0195V48.3528C132.593 48.969 132.038 49.4705 131.357 49.4705Z" fill="#444B54"/>
<path d="M147.013 49.4705H140.009C139.781 49.4705 139.597 49.3036 139.597 49.0979C139.597 48.8923 139.781 48.7254 140.009 48.7254H147.013C147.24 48.7254 147.425 48.5577 147.425 48.3528V42.0195C147.425 41.8139 147.61 41.647 147.837 41.647C148.064 41.647 148.249 41.8139 148.249 42.0195V48.3528C148.249 48.969 147.694 49.4705 147.013 49.4705Z" fill="#444B54"/>
</svg>
