<svg width="60" height="60" viewBox="0 0 60 60" fill="none" xmlns="http://www.w3.org/2000/svg">
<path d="M31.5 36C33.9852 36 36 38.0148 36 40.5V42C36 47.9142 30.4215 54 21 54C11.5785 54 6 47.9142 6 42V40.5C6 38.0148 8.01471 36 10.5 36H31.5ZM31.5 39H10.5C9.67158 39 9 39.6717 9 40.5V42C9 46.3128 13.2965 51 21 51C28.7035 51 33 46.3128 33 42V40.5C33 39.6717 32.3283 39 31.5 39ZM21 16.5C25.5563 16.5 29.25 20.1937 29.25 24.75C29.25 29.3063 25.5563 33 21 33C16.4437 33 12.75 29.3063 12.75 24.75C12.75 20.1937 16.4437 16.5 21 16.5ZM48 6C51.1632 6 53.7546 8.44764 53.9835 11.5522L54 12V18C54 21.1631 51.5523 23.7545 48.4479 23.9835L48 24H43.497L39.903 28.7994C38.3148 30.918 35.0895 30.0597 34.5729 27.6728L34.5198 27.3379L34.5024 27L34.5 23.805L34.2672 23.746C32.091 23.0905 30.4356 21.2326 30.0738 18.9444L30.0165 18.4478L30 18V12C30 8.83692 32.4477 6.24549 35.5521 6.01647L36 6H48ZM21 19.5C18.1005 19.5 15.75 21.8505 15.75 24.75C15.75 27.6495 18.1005 30 21 30C23.8995 30 26.25 27.6495 26.25 24.75C26.25 21.8505 23.8995 19.5 21 19.5ZM48 9H36C34.4616 9 33.1935 10.1581 33.0201 11.6501L33 12V18C33 19.5385 34.158 20.8065 35.6502 20.9798L36 21H37.5024V27L42 21H48C49.5384 21 50.8065 19.8419 50.9799 18.3499L51 18V12C51 10.4615 49.842 9.19347 48.3498 9.02019L48 9Z" fill="white"/>
</svg>
