<svg width="115" height="115" viewBox="0 0 115 115" fill="none" xmlns="http://www.w3.org/2000/svg">
<path d="M60.5254 75.2127C60.5254 72.2254 56.8777 69.8872 52.2148 69.8872C47.552 69.8872 43.9043 72.2254 43.9043 75.2127C43.9043 78.2 47.552 80.5382 52.2148 80.5382C56.8777 80.5382 60.5254 78.2 60.5254 75.2127ZM46.2313 75.2127C46.2313 73.7887 48.6907 72.2007 52.2216 72.2007C55.7524 72.2007 58.2119 73.7887 58.2119 75.2127C58.2119 76.6367 55.7412 78.2247 52.2216 78.2247C48.702 78.2247 46.2313 76.6367 46.2313 75.2127Z" fill="#9EFB51"/>
<path d="M78.9702 73.4471C79.767 73.5779 80.5729 73.6447 81.3803 73.647C85.2188 73.647 87.3796 72.05 87.4919 71.9646C87.6448 71.8479 87.7663 71.695 87.8453 71.5196C87.9244 71.3442 87.9586 71.1519 87.9447 70.9601C87.9309 70.7682 87.8696 70.5828 87.7662 70.4205C87.6628 70.2583 87.5207 70.1243 87.3526 70.0307C86.7776 69.7118 86.4879 69.5501 86.4879 67.0726V61.6573C86.4879 54.481 84.5046 49.05 80.7536 45.9504C77.6854 43.4145 73.4853 42.57 68.6112 43.5021C59.3259 45.2833 58.2792 55.932 58.2051 59.5842H35.9688C35.0156 59.5842 34.1015 59.9628 33.4276 60.6367C32.7536 61.3107 32.375 62.2248 32.375 63.1779V87.2426C32.375 88.1957 32.7536 89.1098 33.4276 89.7837C34.1015 90.4577 35.0156 90.8363 35.9688 90.8363H46.9611V98.0867H41.8984C41.6002 98.0998 41.3185 98.2276 41.1121 98.4433C40.9057 98.659 40.7905 98.946 40.7905 99.2446C40.7905 99.5431 40.9057 99.8302 41.1121 100.046C41.3185 100.262 41.6002 100.389 41.8984 100.402H83.5927C85.1831 100.4 86.7076 99.7672 87.8322 98.6426C88.9568 97.5181 89.5896 95.9935 89.592 94.4031V86.7439C89.5875 83.6526 88.5345 80.6543 86.6052 78.239C84.6758 75.8237 81.9841 74.1343 78.9702 73.4471ZM72.0792 73.1034V70.8034C74.8509 70.1678 75.4753 68.0856 75.5022 67.9868C75.5839 67.6991 75.5491 67.3909 75.4053 67.1286C75.2616 66.8664 75.0205 66.6712 74.7341 66.5852C74.4436 66.4978 74.1306 66.5262 73.8606 66.6643C73.5906 66.8025 73.3844 67.0398 73.2854 67.3264C73.2539 67.4163 73.0113 68.0205 72.0792 68.3889V63.1824C72.0782 62.6017 71.9365 62.0298 71.6662 61.5158C71.3959 61.0018 71.0051 60.561 70.5271 60.231C73.6582 59.4359 77.2407 58.3219 80.4526 56.8237V64.11C80.4526 69.4063 77.1756 73.1057 72.4857 73.1057H72.0725L72.0792 73.1034ZM69.047 45.7752C73.2809 44.9666 76.7264 45.6224 79.2802 47.7338C82.4809 50.3797 84.1722 55.1953 84.1722 61.6596V67.0749C84.1722 68.7415 84.289 69.8937 84.8123 70.7607C83.4641 71.2405 82.0293 71.4281 80.6031 71.311C81.9777 69.3951 82.7728 66.9177 82.7728 64.1123V54.9527C82.7724 54.7528 82.7202 54.5563 82.6214 54.3825C82.5225 54.2087 82.3804 54.0634 82.2088 53.9608C82.0372 53.8581 81.842 53.8016 81.6421 53.7968C81.4422 53.7919 81.2445 53.8388 81.0681 53.933C73.8132 57.8322 63.0095 59.4449 62.0481 59.5842H60.5163C60.5814 56.3992 61.4417 47.2329 69.047 45.7752ZM34.6817 87.2426V63.1824C34.6823 62.8418 34.8179 62.5154 35.0587 62.2746C35.2995 62.0338 35.6259 61.8982 35.9665 61.8976H68.481C68.8215 61.8982 69.148 62.0338 69.3888 62.2746C69.6296 62.5154 69.7651 62.8418 69.7657 63.1824V87.2426C69.7651 87.5831 69.6296 87.9096 69.3888 88.1504C69.148 88.3912 68.8215 88.5267 68.481 88.5273H35.962C35.6215 88.5267 35.295 88.3912 35.0542 88.1504C34.8134 87.9096 34.6778 87.5831 34.6772 87.2426H34.6817ZM49.2813 90.8363H55.1841V98.0867H49.2701L49.2813 90.8363ZM83.5927 98.0867H68.7303C69.0002 96.7363 69.7295 95.5211 70.7941 94.6477C71.8588 93.7743 73.193 93.2966 74.5701 93.2958H81.2163C81.3683 93.2961 81.5188 93.2664 81.6593 93.2083C81.7998 93.1503 81.9274 93.0651 82.0349 92.9576C82.1424 92.8502 82.2276 92.7225 82.2856 92.5821C82.3436 92.4416 82.3733 92.291 82.373 92.1391V89.8099H87.2785V94.4031C87.2773 95.3801 86.8885 96.3167 86.1975 97.0073C85.5065 97.6979 84.5697 98.0861 83.5927 98.0867ZM87.2763 87.4941H82.3708V83.1434C82.3708 82.8367 82.2489 82.5424 82.032 82.3255C81.8151 82.1086 81.5208 81.9867 81.2141 81.9867C80.9073 81.9867 80.6131 82.1086 80.3961 82.3255C80.1792 82.5424 80.0573 82.8367 80.0573 83.1434V90.9823H74.5701C72.5803 90.9855 70.6583 91.7053 69.156 93.01C67.6537 94.3148 66.6717 96.117 66.3898 98.0867H57.4998V90.8431H68.4922C69.4453 90.8431 70.3594 90.4644 71.0334 89.7905C71.7073 89.1165 72.0859 88.2024 72.0859 87.2493V75.4191H75.9582C78.9608 75.4221 81.8396 76.6162 83.9628 78.7394C86.0859 80.8625 87.28 83.7413 87.283 86.7439L87.2763 87.4941Z" fill="black"/>
<path d="M75.7293 61.6573C75.7162 61.359 75.5884 61.0773 75.3727 60.8709C75.157 60.6645 74.87 60.5493 74.5714 60.5493C74.2729 60.5493 73.9858 60.6645 73.7701 60.8709C73.5544 61.0773 73.4267 61.359 73.4136 61.6573V62.7152C73.4267 63.0135 73.5544 63.2952 73.7701 63.5016C73.9858 63.708 74.2729 63.8232 74.5714 63.8232C74.87 63.8232 75.157 63.708 75.3727 63.5016C75.5884 63.2952 75.7162 63.0135 75.7293 62.7152V61.6573Z" fill="black"/>
<path d="M102.08 49.4543L83.5187 34.8143V18.164C83.519 18.012 83.4892 17.8615 83.4312 17.721C83.3732 17.5805 83.288 17.4529 83.1805 17.3454C83.0731 17.2379 82.9454 17.1527 82.8049 17.0947C82.6645 17.0367 82.5139 17.007 82.3619 17.0073H71.5807C71.4287 17.007 71.2781 17.0367 71.1377 17.0947C70.9972 17.1527 70.8696 17.2379 70.7621 17.3454C70.6546 17.4529 70.5694 17.5805 70.5114 17.721C70.4534 17.8615 70.4236 18.012 70.4239 18.164V24.4823L58.2164 14.8465C58.012 14.6862 57.7597 14.5991 57.4999 14.5991C57.2401 14.5991 56.9879 14.6862 56.7834 14.8465L12.9194 49.4543C12.7315 49.6037 12.5945 49.8078 12.5275 50.0383C12.4605 50.2689 12.4667 50.5146 12.5454 50.7415C12.6241 50.9683 12.7712 51.1651 12.9666 51.3047C13.162 51.4443 13.3958 51.5198 13.636 51.5207H23.4312V98.0441C23.4443 98.3423 23.572 98.624 23.7877 98.8304C24.0034 99.0368 24.2905 99.1521 24.589 99.1521C24.8876 99.1521 25.1746 99.0368 25.3903 98.8304C25.606 98.624 25.7338 98.3423 25.7469 98.0441V50.364C25.7469 50.0566 25.6248 49.7618 25.4074 49.5445C25.1901 49.3271 24.8953 49.205 24.5879 49.205H16.9714L57.4999 17.2274L70.8664 27.784C71.0363 27.9181 71.2404 28.0018 71.4555 28.0256C71.6706 28.0495 71.8881 28.0125 72.0832 27.9189C72.2783 27.8253 72.4433 27.6789 72.5593 27.4962C72.6754 27.3136 72.7379 27.102 72.7397 26.8856V19.3163H81.2052V35.3668C81.2062 35.5426 81.2472 35.7158 81.325 35.8734C81.4028 36.031 81.5155 36.1689 81.6544 36.2765L98.0374 49.2005H90.4119C90.2556 49.1936 90.0995 49.2185 89.953 49.2736C89.8065 49.3287 89.6727 49.4128 89.5596 49.521C89.4466 49.6292 89.3566 49.7592 89.2951 49.9031C89.2336 50.047 89.2019 50.2019 89.2019 50.3584C89.2019 50.5149 89.2336 50.6698 89.2951 50.8137C89.3566 50.9576 89.4466 51.0876 89.5596 51.1958C89.6727 51.304 89.8065 51.3881 89.953 51.4432C90.0995 51.4983 90.2556 51.5231 90.4119 51.5163H101.364C101.604 51.5153 101.838 51.4398 102.033 51.3003C102.229 51.1607 102.376 50.9638 102.454 50.737C102.533 50.5101 102.539 50.2644 102.472 50.0338C102.405 49.8033 102.268 49.5992 102.08 49.4498V49.4543Z" fill="black"/>
</svg>
