<svg width="36" height="35" viewBox="0 0 36 35" fill="none" xmlns="http://www.w3.org/2000/svg">
<path d="M25.4338 17.415C27.0238 15.6438 28 13.3112 28 10.75C28 5.23625 23.5138 0.75 18 0.75C12.4863 0.75 8 5.23625 8 10.75C8 16.2638 12.4863 20.75 18 20.75C19.9438 20.75 21.7538 20.1837 23.2913 19.22C28.7288 21.2687 32.4725 26.245 32.9488 32H3.0525C3.37625 28.1262 5.19375 24.5138 8.15 21.9362C8.67125 21.4825 8.725 20.6938 8.27125 20.1725C7.81875 19.6525 7.02875 19.5975 6.5075 20.0513C2.68875 23.3787 0.5 28.1888 0.5 33.25C0.5 33.9412 1.06 34.5 1.75 34.5H34.25C34.9413 34.5 35.5 33.9412 35.5 33.25C35.5 26.3925 31.525 20.2688 25.4338 17.415ZM10.5 10.75C10.5 6.61375 13.8638 3.25 18 3.25C22.1363 3.25 25.5 6.61375 25.5 10.75C25.5 14.8862 22.1363 18.25 18 18.25C13.8638 18.25 10.5 14.8862 10.5 10.75Z" fill="black"/>
</svg>
