<svg width="256" height="406" viewBox="0 0 256 406" fill="none" xmlns="http://www.w3.org/2000/svg">
<path d="M174.296 32.2681H237.568C246.21 32.2681 253 40.8534 253 51.7803V383.488C253 394.414 246.21 403 237.568 403H18.4321C9.79012 403 3 394.414 3 383.488V51.7803C3 40.8534 9.79012 32.2681 18.4321 32.2681H50.8395" fill="#9EFB51"/>
<path d="M239.493 55.8784H17.1992V390.873H239.493V55.8784Z" fill="white"/>
<path d="M174.296 32.2681H237.568C246.21 32.2681 253 40.8534 253 51.7803V383.488C253 394.414 246.21 403 237.568 403H18.4321C9.79012 403 3 394.414 3 383.488V51.7803C3 40.8534 9.79012 32.2681 18.4321 32.2681H50.8395" stroke="#444B54" stroke-width="6" stroke-miterlimit="10" stroke-linecap="round" stroke-linejoin="round"/>
<path d="M152.691 57.6341H103.309C91.2715 57.6341 81.7036 45.5366 81.7036 30.3171C81.7036 15.0976 91.2715 3 103.309 3H152.691C164.728 3 174.296 15.0976 174.296 30.3171C174.296 45.5366 164.728 57.6341 152.691 57.6341Z" fill="white"/>
<path d="M152.691 57.6341H103.309C91.2715 57.6341 81.7036 45.5366 81.7036 30.3171C81.7036 15.0976 91.2715 3 103.309 3H152.691C164.728 3 174.296 15.0976 174.296 30.3171C174.296 45.5366 164.728 57.6341 152.691 57.6341Z" stroke="#444B54" stroke-width="6" stroke-miterlimit="10" stroke-linecap="round" stroke-linejoin="round"/>
<path d="M105.233 50.514C105.064 50.5354 104.892 50.5354 104.722 50.514C104.378 50.413 104.08 50.2123 103.875 49.943C103.669 49.6737 103.567 49.3507 103.585 49.0238V47.5336C103.586 40.7997 106.241 34.2864 111.073 29.1629C115.906 24.0393 122.6 20.6409 129.954 19.5776V13.2592C129.954 12.9825 130.039 12.7112 130.2 12.4758C130.361 12.2404 130.591 12.0501 130.865 11.9264C131.139 11.8026 131.445 11.7502 131.75 11.7751C132.055 11.7999 132.346 11.901 132.591 12.0671L152.368 25.4788C152.572 25.6176 152.739 25.7976 152.853 26.0045C152.967 26.2114 153.027 26.4396 153.027 26.671C153.027 26.9023 152.967 27.1305 152.853 27.3374C152.739 27.5443 152.572 27.7243 152.368 27.8631L132.591 41.2748C132.346 41.4409 132.055 41.542 131.75 41.5669C131.445 41.5917 131.139 41.5393 130.865 41.4155C130.591 41.2918 130.361 41.1015 130.2 40.8661C130.039 40.6307 129.954 40.3594 129.954 40.0827V34.4945C121.973 35.6722 114.827 39.6446 110.062 45.5517L106.568 49.903C106.415 50.0929 106.214 50.2472 105.982 50.3534C105.75 50.4596 105.493 50.5146 105.233 50.514ZM133.25 16.2396V20.889C133.253 21.2574 133.104 21.6136 132.833 21.8888C132.562 22.164 132.188 22.3387 131.783 22.3792C125.569 22.9922 119.76 25.4668 115.28 29.4093C110.801 33.3518 107.908 38.5356 107.062 44.136L107.326 43.8231C110.146 40.3215 113.751 37.397 117.906 35.2401C122.06 33.0832 126.671 31.7425 131.437 31.3055C131.667 31.2861 131.899 31.3106 132.117 31.3774C132.336 31.4441 132.537 31.5516 132.706 31.6929C132.877 31.8322 133.014 32.0023 133.107 32.1922C133.201 32.3822 133.25 32.5877 133.25 32.7956V37.1023L148.627 26.671L133.25 16.2396Z" fill="#444B54"/>
</svg>
