<svg width="256" height="406" viewBox="0 0 256 406" fill="none" xmlns="http://www.w3.org/2000/svg">
<path d="M174.296 32.2681H237.568C246.21 32.2681 253 40.8534 253 51.7803V383.488C253 394.414 246.21 403 237.568 403H18.4321C9.79012 403 3 394.414 3 383.488V51.7803C3 40.8534 9.79012 32.2681 18.4321 32.2681H50.8395" fill="#9EFB51"/>
<path d="M239.493 55.8784H17.1992V390.873H239.493V55.8784Z" fill="white"/>
<path d="M174.296 32.2681H237.568C246.21 32.2681 253 40.8534 253 51.7803V383.488C253 394.414 246.21 403 237.568 403H18.4321C9.79012 403 3 394.414 3 383.488V51.7803C3 40.8534 9.79012 32.2681 18.4321 32.2681H50.8395" stroke="#444B54" stroke-width="6" stroke-miterlimit="10" stroke-linecap="round" stroke-linejoin="round"/>
<path d="M152.691 57.6341H103.309C91.2715 57.6341 81.7036 45.5366 81.7036 30.3171C81.7036 15.0976 91.2715 3 103.309 3H152.691C164.728 3 174.296 15.0976 174.296 30.3171C174.296 45.5366 164.728 57.6341 152.691 57.6341Z" fill="white"/>
<path d="M152.691 57.6341H103.309C91.2715 57.6341 81.7036 45.5366 81.7036 30.3171C81.7036 15.0976 91.2715 3 103.309 3H152.691C164.728 3 174.296 15.0976 174.296 30.3171C174.296 45.5366 164.728 57.6341 152.691 57.6341Z" stroke="#444B54" stroke-width="6" stroke-miterlimit="10" stroke-linecap="round" stroke-linejoin="round"/>
<g clip-path="url(#clip0_217_85)">
<path d="M137.841 31.2217C139.81 29.1101 141.018 26.3294 141.018 23.276C141.018 16.7028 135.464 11.3545 128.637 11.3545C121.81 11.3545 116.255 16.7028 116.255 23.276C116.255 29.8493 121.81 35.1976 128.637 35.1976C131.043 35.1976 133.284 34.5225 135.188 33.3736C141.921 35.816 146.556 41.7484 147.146 48.6093H110.129C110.53 43.9912 112.78 39.6845 116.441 36.6117C117.086 36.0708 117.153 35.1305 116.591 34.5091C116.031 33.8892 115.052 33.8236 114.407 34.3645C109.679 38.3314 106.969 44.0657 106.969 50.0995C106.969 50.9235 107.662 51.5897 108.516 51.5897H148.757C149.613 51.5897 150.305 50.9235 150.305 50.0995C150.305 41.9243 145.383 34.6238 137.841 31.2217ZM119.35 23.276C119.35 18.345 123.515 14.3349 128.637 14.3349C133.758 14.3349 137.923 18.345 137.923 23.276C137.923 28.2071 133.758 32.2172 128.637 32.2172C123.515 32.2172 119.35 28.2071 119.35 23.276Z" fill="#444B54"/>
</g>
<defs>
<clipPath id="clip0_217_85">
<rect width="49.5267" height="47.6861" fill="white" transform="translate(103.874 6.88379)"/>
</clipPath>
</defs>
</svg>
