<svg width="115" height="115" viewBox="0 0 115 115" fill="none" xmlns="http://www.w3.org/2000/svg">
<path d="M92.5391 31.4453H9.88281V78.1641H92.5391V31.4453Z" fill="white"/>
<path d="M51.2109 78.1641L36.8359 96.1328H65.5859L51.2109 78.1641Z" fill="white" stroke="#006DF0" stroke-width="2" stroke-linecap="round" stroke-linejoin="round"/>
<path d="M92.5391 51.2109V78.1641H9.88281V31.4453H72.7734" stroke="#006DF0" stroke-width="2" stroke-linecap="round" stroke-linejoin="round"/>
<path d="M92.5391 78.1641H9.88281V87.1484H92.5391V78.1641Z" fill="#9EFB51" stroke="#006DF0" stroke-width="2" stroke-linecap="round" stroke-linejoin="round"/>
<path d="M27.8516 96.1328H74.5703" stroke="#006DF0" stroke-width="2" stroke-linecap="round" stroke-linejoin="round"/>
<path d="M92.5391 18.8672L79.9609 23.0593L92.5391 27.2532L105.117 23.0593L92.5391 18.8672Z" fill="white" stroke="#006DF0" stroke-width="2" stroke-linecap="round" stroke-linejoin="round"/>
<path d="M105.117 39.8311L92.5391 44.0232L79.9609 39.8311V23.0591L92.5391 27.253L105.117 23.0591V39.8311Z" fill="#78B9EB" stroke="#006DF0" stroke-width="2" stroke-linecap="round" stroke-linejoin="round"/>
<path d="M92.5391 27.2534V44.0237" stroke="#006DF0" stroke-width="2" stroke-linecap="round" stroke-linejoin="round"/>
<path d="M51.2109 38.6328V70.9766" stroke="#78B9EB" stroke-width="2" stroke-linecap="round" stroke-linejoin="round"/>
<path d="M64.6875 50.3125L60.1953 54.8047L64.6875 59.2969" stroke="#006DF0" stroke-width="2" stroke-linecap="round" stroke-linejoin="round"/>
<path d="M79.0625 50.3125L83.5547 54.8047L79.0625 59.2969" stroke="#006DF0" stroke-width="2" stroke-linecap="round" stroke-linejoin="round"/>
<path d="M73.6719 50.3125L70.0781 59.2969" stroke="#006DF0" stroke-width="2" stroke-linecap="round" stroke-linejoin="round"/>
<path d="M17.0703 40.4297H22.4609" stroke="#006DF0" stroke-width="2" stroke-linecap="round" stroke-linejoin="round"/>
<path d="M17.0703 45.8203H33.2422" stroke="#006DF0" stroke-width="2" stroke-linecap="round" stroke-linejoin="round"/>
<path d="M17.0703 54.8047H27.8516" stroke="#006DF0" stroke-width="2" stroke-linecap="round" stroke-linejoin="round"/>
<path d="M17.0703 69.1797H22.4609" stroke="#006DF0" stroke-width="2" stroke-linecap="round" stroke-linejoin="round"/>
<path d="M17.0703 60.1953H22.4609" stroke="#006DF0" stroke-width="2" stroke-linecap="round" stroke-linejoin="round"/>
<path d="M27.8516 60.1953H33.2422" stroke="#006DF0" stroke-width="2" stroke-linecap="round" stroke-linejoin="round"/>
</svg>
