<svg width="115" height="115" viewBox="0 0 115 115" fill="none" xmlns="http://www.w3.org/2000/svg">
<path d="M14.375 28.75V64.6875" stroke="black" stroke-width="8" stroke-linecap="round" stroke-linejoin="round"/>
<path d="M24.3477 97.0313C27.9435 91.5161 32.8585 86.9851 38.6473 83.8487C44.4362 80.7124 50.9161 79.0698 57.5 79.0698C64.0839 79.0698 70.5638 80.7124 76.3527 83.8487C82.1416 86.9851 87.0565 91.5161 90.6524 97.0313" stroke="black" stroke-width="8" stroke-linecap="round" stroke-linejoin="round"/>
<path d="M100.625 28.75L57.5 43.125L14.375 28.75L57.5 14.375L100.625 28.75Z" fill="#9EFB51" stroke="black" stroke-width="8" stroke-linecap="round" stroke-linejoin="round"/>
<path d="M76.0527 36.9258C79.3493 40.5257 81.5273 45.007 82.3213 49.8233C83.1152 54.6396 82.4908 59.5828 80.5241 64.0504C78.5575 68.5179 75.3335 72.3169 71.2453 74.984C67.1571 77.6511 62.3813 79.0712 57.5 79.0712C52.6187 79.0712 47.8429 77.6511 43.7547 74.984C39.6665 72.3169 36.4425 68.5179 34.4759 64.0504C32.5092 59.5828 31.8848 54.6396 32.6788 49.8233C33.4727 45.007 35.6507 40.5257 38.9473 36.9258" stroke="black" stroke-width="8" stroke-linecap="round" stroke-linejoin="round"/>
</svg>
