<svg width="165" height="58" viewBox="0 0 165 58" fill="none" xmlns="http://www.w3.org/2000/svg">
<path fill-rule="evenodd" clip-rule="evenodd" d="M55.0798 4.82374C55.0798 5.45604 54.9446 6.05868 54.7043 6.61253C60.9013 12.1853 64.4132 19.7789 64.4132 27.8433C64.4132 44.2134 49.9657 57.5327 32.2073 57.5327C14.4475 57.5327 0 44.2134 0 27.8433C0 21.5697 2.17367 15.4536 6.14835 10.407C5.69988 9.69626 5.43881 8.87341 5.43881 7.99385C5.43881 5.33341 7.787 3.16879 10.6716 3.16879C13.5591 3.16879 15.9073 5.33341 15.9073 7.99385C15.9073 10.6543 13.5591 12.8176 10.6716 12.8176C10.0544 12.8176 9.46499 12.7127 8.91424 12.5314C5.47314 16.9807 3.59416 22.3431 3.59416 27.8433C3.59416 42.387 16.4294 54.2189 32.2073 54.2189C47.9851 54.2189 60.819 42.387 60.819 27.8426C60.819 20.7277 57.7434 14.0222 52.306 9.0811C51.5722 9.44242 50.7353 9.64879 49.847 9.64879C46.9609 9.64879 44.6127 7.48418 44.6127 4.82374C44.6127 2.16462 46.9609 0 49.847 0C52.733 0 55.0798 2.16462 55.0798 4.82374ZM49.847 3.31319C48.9429 3.31319 48.2069 3.99033 48.2069 4.82374C48.2069 5.65846 48.9429 6.3356 49.847 6.3356C50.751 6.3356 51.4856 5.65846 51.4856 4.82374C51.4856 3.99033 50.751 3.31319 49.847 3.31319ZM12.3124 7.99319C12.3124 7.15846 11.5764 6.48132 10.6709 6.48132C9.76755 6.48132 9.03226 7.15912 9.03226 7.99319C9.03226 8.82659 9.76683 9.50374 10.6709 9.50374C11.5764 9.50374 12.3124 8.82659 12.3124 7.99319ZM74.9504 22.2395V33.8758H77.0583V29.944H79.2856C80.1833 29.944 80.939 29.7792 81.5526 29.4497C82.1663 29.1164 82.6303 28.6599 82.9447 28.0804C83.2591 27.5008 83.4163 26.8379 83.4163 26.0917C83.4163 25.3531 83.2591 24.694 82.9447 24.1145C82.6341 23.5311 82.1738 23.0728 81.564 22.7395C80.9579 22.4061 80.2079 22.2395 79.314 22.2395H74.9504ZM77.0583 28.2111H79.0015C79.5242 28.2111 79.9523 28.1201 80.2856 27.9383C80.6189 27.7565 80.8651 27.5065 81.0242 27.1883C81.1871 26.8701 81.2685 26.5046 81.2685 26.0917C81.2685 25.6789 81.1871 25.3152 81.0242 25.0008C80.8651 24.6864 80.617 24.4421 80.2799 24.2679C79.9466 24.0898 79.5166 24.0008 78.9901 24.0008H77.0583V28.2111ZM94.9404 31.2792C95.4101 30.3853 95.645 29.3114 95.645 28.0576C95.645 26.8039 95.4101 25.7319 94.9404 24.8417C94.4745 23.9478 93.8381 23.2641 93.0313 22.7906C92.2283 22.3171 91.3173 22.0804 90.2984 22.0804C89.2794 22.0804 88.3666 22.3171 87.5597 22.7906C86.7567 23.2641 86.1203 23.9478 85.6506 24.8417C85.1847 25.7319 84.9518 26.8039 84.9518 28.0576C84.9518 29.3076 85.1847 30.3796 85.6506 31.2736C86.1203 32.1637 86.7567 32.8474 87.5597 33.3247C88.3666 33.7982 89.2794 34.0349 90.2984 34.0349C91.3173 34.0349 92.2283 33.7982 93.0313 33.3247C93.8381 32.8512 94.4745 32.1694 94.9404 31.2792ZM93.1109 25.8247C93.3874 26.4307 93.5256 27.1751 93.5256 28.0576C93.5256 28.9402 93.3874 29.6864 93.1109 30.2963C92.8381 30.9023 92.4594 31.3626 91.9745 31.677C91.4897 31.9876 90.9309 32.1429 90.2984 32.1429C89.6658 32.1429 89.1071 31.9876 88.6222 31.677C88.1374 31.3626 87.7567 30.9023 87.4802 30.2963C87.2075 29.6864 87.0711 28.9402 87.0711 28.0576C87.0711 27.1751 87.2075 26.4307 87.4802 25.8247C87.7567 25.2148 88.1374 24.7546 88.6222 24.444C89.1071 24.1296 89.6658 23.9724 90.2984 23.9724C90.9309 23.9724 91.4897 24.1296 91.9745 24.444C92.4594 24.7546 92.8381 25.2148 93.1109 25.8247ZM102.001 22.2395H97.6379V33.8758H99.7458V29.6145H101.891L104.178 33.8758H106.53L104.013 29.269C104.089 29.2385 104.163 29.2059 104.234 29.1713C104.848 28.872 105.312 28.4497 105.626 27.9042C105.945 27.355 106.104 26.7073 106.104 25.9611C106.104 25.2186 105.947 24.569 105.632 24.0122C105.322 23.4516 104.861 23.016 104.251 22.7054C103.645 22.3948 102.895 22.2395 102.001 22.2395ZM99.7458 27.8645H101.689C102.212 27.8645 102.64 27.7925 102.973 27.6486C103.306 27.5008 103.553 27.2868 103.712 27.0065C103.875 26.7224 103.956 26.3739 103.956 25.9611C103.956 25.5482 103.875 25.1959 103.712 24.9042C103.549 24.6088 103.301 24.3853 102.967 24.2338C102.634 24.0785 102.204 24.0008 101.678 24.0008H99.7458V27.8645ZM107.533 22.2395V24.0065H111.129V33.8758H113.22V24.0065H116.817V22.2395H107.533ZM126.061 22.2395H118.607V33.8758H120.715V28.9326H125.55V27.1656H120.715V24.0065H126.061V22.2395ZM137.675 31.2792C138.144 30.3853 138.379 29.3114 138.379 28.0576C138.379 26.8039 138.144 25.7319 137.675 24.8417C137.209 23.9478 136.573 23.2641 135.766 22.7906C134.963 22.3171 134.052 22.0804 133.033 22.0804C132.014 22.0804 131.101 22.3171 130.294 22.7906C129.491 23.2641 128.855 23.9478 128.385 24.8417C127.919 25.7319 127.686 26.8039 127.686 28.0576C127.686 29.3076 127.919 30.3796 128.385 31.2736C128.855 32.1637 129.491 32.8474 130.294 33.3247C131.101 33.7982 132.014 34.0349 133.033 34.0349C134.052 34.0349 134.963 33.7982 135.766 33.3247C136.573 32.8512 137.209 32.1694 137.675 31.2792ZM135.845 25.8247C136.122 26.4307 136.26 27.1751 136.26 28.0576C136.26 28.9402 136.122 29.6864 135.845 30.2963C135.573 30.9023 135.194 31.3626 134.709 31.677C134.224 31.9876 133.665 32.1429 133.033 32.1429C132.4 32.1429 131.841 31.9876 131.357 31.677C130.872 31.3626 130.491 30.9023 130.215 30.2963C129.942 29.6864 129.805 28.9402 129.805 28.0576C129.805 27.1751 129.942 26.4307 130.215 25.8247C130.491 25.2148 130.872 24.7546 131.357 24.444C131.841 24.1296 132.4 23.9724 133.033 23.9724C133.665 23.9724 134.224 24.1296 134.709 24.444C135.194 24.7546 135.573 25.2148 135.845 25.8247ZM142.48 22.2395H140.372V33.8758H147.605V32.1088H142.48V22.2395ZM149.435 33.8758H151.543V22.2395H149.435V33.8758ZM163.519 31.2792C163.988 30.3853 164.223 29.3114 164.223 28.0576C164.223 26.8039 163.988 25.7319 163.519 24.8417C163.053 23.9478 162.416 23.2641 161.609 22.7906C160.806 22.3171 159.895 22.0804 158.876 22.0804C157.858 22.0804 156.945 22.3171 156.138 22.7906C155.335 23.2641 154.698 23.9478 154.229 24.8417C153.763 25.7319 153.53 26.8039 153.53 28.0576C153.53 29.3076 153.763 30.3796 154.229 31.2736C154.698 32.1637 155.335 32.8474 156.138 33.3247C156.945 33.7982 157.858 34.0349 158.876 34.0349C159.895 34.0349 160.806 33.7982 161.609 33.3247C162.416 32.8512 163.053 32.1694 163.519 31.2792ZM161.689 25.8247C161.965 26.4307 162.104 27.1751 162.104 28.0576C162.104 28.9402 161.965 29.6864 161.689 30.2963C161.416 30.9023 161.037 31.3626 160.553 31.677C160.068 31.9876 159.509 32.1429 158.876 32.1429C158.244 32.1429 157.685 31.9876 157.2 31.677C156.715 31.3626 156.335 30.9023 156.058 30.2963C155.786 29.6864 155.649 28.9402 155.649 28.0576C155.649 27.1751 155.786 26.4307 156.058 25.8247C156.335 25.2148 156.715 24.7546 157.2 24.444C157.685 24.1296 158.244 23.9724 158.876 23.9724C159.509 23.9724 160.068 24.1296 160.553 24.444C161.037 24.7546 161.416 25.2148 161.689 25.8247ZM15.3709 19.6589C15.3709 21.0448 16.011 22.291 17.0274 23.1719C16.4838 24.6692 16.2049 26.2332 16.2049 27.8426C16.2049 35.9776 23.3839 42.5954 32.2073 42.5954C41.0293 42.5954 48.2069 35.9776 48.2069 27.8426C48.2069 25.5969 47.6483 23.4026 46.5947 21.4062C47.2077 20.6156 47.5739 19.6497 47.5739 18.6066C47.5739 15.9462 45.2257 13.7815 42.3382 13.7815C39.4521 13.7815 37.1054 15.9462 37.1054 18.6066C37.1054 21.2684 39.4521 23.4343 42.3382 23.4343C42.7688 23.4343 43.1851 23.3802 43.5856 23.2899C44.2587 24.7167 44.6127 26.2635 44.6127 27.842C44.6127 34.1492 39.0487 39.2815 32.2073 39.2815C25.3651 39.2815 19.799 34.1499 19.799 27.842C19.799 26.6829 19.9986 25.5574 20.3634 24.4721C20.3902 24.4734 20.4169 24.4752 20.4437 24.4769C20.4976 24.4804 20.5516 24.484 20.6065 24.484C23.4926 24.484 25.8408 22.3193 25.8408 19.6589C25.8408 16.9985 23.4926 14.8352 20.6065 14.8352C17.7191 14.8352 15.3709 16.9985 15.3709 19.6589ZM40.6995 18.6073C40.6995 17.7725 41.4341 17.0954 42.3382 17.0954C43.2437 17.0954 43.9797 17.7725 43.9797 18.6073C43.9797 19.442 43.2437 20.1218 42.3382 20.1218C41.4341 20.1218 40.6995 19.4413 40.6995 18.6073ZM22.2466 19.6589C22.2466 20.4936 21.5106 21.1708 20.6065 21.1708C19.701 21.1708 18.965 20.4936 18.965 19.6589C18.965 18.8255 19.701 18.1484 20.6065 18.1484C21.5106 18.1484 22.2466 18.8262 22.2466 19.6589ZM10.6716 28.5218C13.5591 28.5218 15.9073 30.6864 15.9073 33.3468C15.9073 34.6899 15.3079 35.9057 14.343 36.7826C17.8764 42.7886 24.6835 46.5851 32.2066 46.5851C43.4161 46.5851 52.5356 38.1785 52.5356 27.844C52.5356 22.8396 50.4206 18.1338 46.5818 14.5925C43.042 11.3268 38.4207 9.41934 33.4611 9.14374C32.6078 10.7426 30.8269 11.8503 28.7648 11.8503C25.8787 11.8503 23.5305 9.68571 23.5305 7.02659C23.5305 4.36615 25.8787 2.20154 28.7648 2.20154C31.2095 2.20154 33.2616 3.7556 33.8345 5.84703C39.6138 6.20242 44.9939 8.44088 49.1245 12.2499C53.6421 16.4169 56.1305 21.9541 56.1305 27.8433C56.1305 40.0048 45.3988 49.8976 32.2073 49.8976C23.268 49.8976 15.1828 45.3435 11.0614 38.1554C11.03 38.1571 10.9987 38.1591 10.9674 38.161C10.8692 38.1671 10.7714 38.1732 10.6716 38.1732C7.787 38.1732 5.43881 36.0073 5.43881 33.3468C5.43881 30.6864 7.787 28.5218 10.6716 28.5218ZM27.1247 7.02593C27.1247 7.85934 27.8607 8.53648 28.7648 8.53648C29.6703 8.53648 30.4048 7.85934 30.4048 7.02593C30.4048 6.19121 29.6703 5.51407 28.7648 5.51407C27.8607 5.51407 27.1247 6.19121 27.1247 7.02593ZM10.6709 31.8349C9.76683 31.8349 9.03226 32.5121 9.03226 33.3468C9.03226 34.1815 9.76755 34.86 10.6709 34.86C11.5764 34.86 12.3124 34.1815 12.3124 33.3468C12.3124 32.5121 11.5764 31.8349 10.6709 31.8349Z" fill="white"/>
</svg>
