<svg width="200" height="200" viewBox="0 0 200 200" fill="none" xmlns="http://www.w3.org/2000/svg">
<path d="M131.728 34.3154C141.019 42.8811 146.875 55.1154 146.875 68.7498V93.7498C146.875 100.653 141.278 106.25 134.375 106.25H133.781C132.294 114.344 127.966 121.415 121.875 126.456V128.125V140.625L154.869 147.225C161.562 148.562 167.303 152.578 170.925 158.175C179.425 145.006 184.375 129.337 184.375 112.5C184.375 77.1279 162.6 46.8561 131.728 34.3154Z" fill="#9EFB51"/>
<path d="M78.125 128.125V126.456C72.0375 121.415 67.7094 114.344 66.2188 106.25H65.625C58.7219 106.25 53.125 100.653 53.125 93.7498V68.7498C53.125 55.1154 58.9813 42.8811 68.2719 34.3154C37.4 46.8561 15.625 77.1279 15.625 112.5C15.625 129.337 20.575 145.006 29.075 158.175C32.6969 152.578 38.4375 148.562 45.1313 147.225L78.125 140.625V128.125Z" fill="#9EFB51"/>
<path d="M77.2625 193.75C84.5 195.772 92.1187 196.875 100 196.875C107.881 196.875 115.5 195.772 122.737 193.75H77.2625Z" fill="#9EFB51"/>
<path d="M196.875 21.8749C196.875 14.9812 191.269 9.37491 184.375 9.37491H44.4875L32.6469 3.45304C31.6719 2.96866 30.5219 3.02179 29.5938 3.59991L4.59375 19.2249C4.42188 19.3312 4.275 19.4687 4.12812 19.6062C4.09375 19.6374 4.05313 19.6593 4.01875 19.6937C3.77188 19.9468 3.58438 20.2437 3.4375 20.5593C3.4 20.6374 3.375 20.7124 3.34375 20.7937C3.21563 21.1374 3.125 21.4968 3.125 21.8749C3.125 22.253 3.21563 22.6124 3.34375 22.9562C3.375 23.0374 3.4 23.1124 3.4375 23.1905C3.58438 23.5093 3.775 23.803 4.02187 24.0562C4.05312 24.0905 4.09375 24.1124 4.12812 24.1437C4.275 24.2812 4.42188 24.4187 4.59375 24.5249L29.5938 40.1499C30.1 40.4655 30.6719 40.6249 31.25 40.6249C31.7281 40.6249 32.2062 40.5155 32.6469 40.2968L44.4875 34.3749H63.7844C55.2656 43.3437 50 55.4312 50 68.7499V93.7499C50 101.7 55.9906 108.209 63.6844 109.178C65.5438 116.525 69.5625 123.003 75.0437 127.909C75.0375 127.984 75 128.05 75 128.125V138.062L44.5156 144.159C34.8875 146.084 26.8531 153.025 23.5469 162.278L12.6813 192.697C12.3406 193.653 12.4844 194.716 13.0688 195.55C13.6563 196.381 14.6094 196.875 15.625 196.875H184.375C185.391 196.875 186.344 196.381 186.928 195.55C187.516 194.719 187.656 193.656 187.316 192.697L176.45 162.278C173.144 153.028 165.109 146.084 155.481 144.159L125 138.062V128.125C125 128.05 124.963 127.984 124.956 127.912C130.438 123.006 134.456 116.528 136.316 109.181C144.009 108.209 150 101.7 150 93.7499V68.7499C150 55.4312 144.734 43.3437 136.216 34.3749H184.375C191.269 34.3749 196.875 28.7687 196.875 21.8749ZM31.4219 33.9218L17.1469 24.9999H21.875C23.6031 24.9999 25 23.5999 25 21.8749C25 20.1499 23.6031 18.7499 21.875 18.7499H17.1469L31.4219 9.82804L40.625 14.4312V29.3187L31.4219 33.9218ZM46.875 15.6249H184.375C187.822 15.6249 190.625 18.428 190.625 21.8749C190.625 25.3218 187.822 28.1249 184.375 28.1249H129.037C120.841 22.2499 110.831 18.7499 100 18.7499C89.1687 18.7499 79.1594 22.2499 70.9625 28.1249H46.875V15.6249ZM56.25 93.7499C56.25 89.6812 58.8719 86.2437 62.5 84.9499V99.9999C62.5 100.875 62.5719 101.731 62.6312 102.591C58.9344 101.334 56.25 97.8655 56.25 93.7499ZM154.256 150.287C161.747 151.784 167.994 157.184 170.569 164.381L179.941 190.625H20.0594L29.4313 164.381C32.0031 157.184 38.25 151.784 45.7437 150.287L76.6125 144.112C79.325 148.072 86.55 156.25 100 156.25C113.45 156.25 120.675 148.072 123.391 144.116L154.256 150.287ZM118.75 139.8C117.4 142.012 111.722 150 100 150C88.2719 150 82.6281 142.084 81.25 139.806V132.425C86.7719 135.631 93.1656 137.5 100 137.5C106.834 137.5 113.228 135.631 118.75 132.425V139.8ZM100 131.25C82.7688 131.25 68.75 117.231 68.75 99.9999V78.1249H77.3688C85.7469 78.1249 93.675 75.2124 100 69.8655C106.325 75.2124 114.256 78.1249 122.631 78.1249H131.25V99.9999C131.25 117.231 117.231 131.25 100 131.25ZM137.369 102.591C137.428 101.731 137.5 100.875 137.5 99.9999V84.9499C141.128 86.2437 143.75 89.6812 143.75 93.7499C143.75 97.8655 141.066 101.334 137.369 102.591ZM143.75 81.3312C141.925 79.9499 139.822 78.9155 137.5 78.4437V71.8749C137.5 70.1499 136.103 68.7499 134.375 68.7499C132.647 68.7499 131.25 70.1499 131.25 71.8749H122.631C114.916 71.8749 107.666 68.8718 102.209 63.4155C100.988 62.1937 99.0125 62.1937 97.7906 63.4155C92.3344 68.8718 85.0844 71.8749 77.3688 71.8749H68.75C68.75 70.1499 67.3531 68.7499 65.625 68.7499C63.8969 68.7499 62.5 70.1499 62.5 71.8749V78.4405C60.1781 78.9155 58.075 79.9468 56.25 81.328V68.7499C56.25 44.6249 75.875 24.9999 100 24.9999C124.125 24.9999 143.75 44.6249 143.75 68.7499V81.3312Z" fill="black"/>
<path d="M31.25 25C32.9759 25 34.375 23.6009 34.375 21.875C34.375 20.1491 32.9759 18.75 31.25 18.75C29.5241 18.75 28.125 20.1491 28.125 21.875C28.125 23.6009 29.5241 25 31.25 25Z" fill="black"/>
<path d="M165.625 121.875C167.351 121.875 168.75 120.476 168.75 118.75C168.75 117.024 167.351 115.625 165.625 115.625C163.899 115.625 162.5 117.024 162.5 118.75C162.5 120.476 163.899 121.875 165.625 121.875Z" fill="black"/>
<path d="M168.75 87.5C168.75 85.775 167.353 84.375 165.625 84.375C163.897 84.375 162.5 85.775 162.5 87.5V106.25C162.5 107.975 163.897 109.375 165.625 109.375C167.353 109.375 168.75 107.975 168.75 106.25V87.5Z" fill="black"/>
<path d="M153.125 137.5C154.851 137.5 156.25 136.101 156.25 134.375C156.25 132.649 154.851 131.25 153.125 131.25C151.399 131.25 150 132.649 150 134.375C150 136.101 151.399 137.5 153.125 137.5Z" fill="black"/>
<path d="M156.25 103.125C156.25 101.4 154.853 100 153.125 100C151.397 100 150 101.4 150 103.125V121.875C150 123.6 151.397 125 153.125 125C154.853 125 156.25 123.6 156.25 121.875V103.125Z" fill="black"/>
<path d="M34.375 121.875C36.1009 121.875 37.5 120.476 37.5 118.75C37.5 117.024 36.1009 115.625 34.375 115.625C32.6491 115.625 31.25 117.024 31.25 118.75C31.25 120.476 32.6491 121.875 34.375 121.875Z" fill="black"/>
<path d="M81.25 90.625C82.9759 90.625 84.375 89.2259 84.375 87.5C84.375 85.7741 82.9759 84.375 81.25 84.375C79.5241 84.375 78.125 85.7741 78.125 87.5C78.125 89.2259 79.5241 90.625 81.25 90.625Z" fill="black"/>
<path d="M118.75 90.625C120.476 90.625 121.875 89.2259 121.875 87.5C121.875 85.7741 120.476 84.375 118.75 84.375C117.024 84.375 115.625 85.7741 115.625 87.5C115.625 89.2259 117.024 90.625 118.75 90.625Z" fill="black"/>
<path d="M37.5 106.25V87.5C37.5 85.775 36.1031 84.375 34.375 84.375C32.6469 84.375 31.25 85.775 31.25 87.5V106.25C31.25 107.975 32.6469 109.375 34.375 109.375C36.1031 109.375 37.5 107.975 37.5 106.25Z" fill="black"/>
<path d="M46.875 137.5C48.6009 137.5 50 136.101 50 134.375C50 132.649 48.6009 131.25 46.875 131.25C45.1491 131.25 43.75 132.649 43.75 134.375C43.75 136.101 45.1491 137.5 46.875 137.5Z" fill="black"/>
<path d="M50 121.875V103.125C50 101.4 48.6031 100 46.875 100C45.1469 100 43.75 101.4 43.75 103.125V121.875C43.75 123.6 45.1469 125 46.875 125C48.6031 125 50 123.6 50 121.875Z" fill="black"/>
<path d="M109.375 106.25C107.647 106.25 106.25 107.65 106.25 109.375C106.25 112.822 103.447 115.625 100 115.625C96.5531 115.625 93.75 112.822 93.75 109.375C93.75 107.65 92.3531 106.25 90.625 106.25C88.8969 106.25 87.5 107.65 87.5 109.375C87.5 116.269 93.1062 121.875 100 121.875C106.894 121.875 112.5 116.269 112.5 109.375C112.5 107.65 111.103 106.25 109.375 106.25Z" fill="black"/>
</svg>
