<svg width="50" height="50" viewBox="0 0 50 50" fill="none" xmlns="http://www.w3.org/2000/svg">
<g clip-path="url(#clip0_154_330)">
<path d="M6.44721 7.6422C5.98567 7.45759 5.48347 7.35374 4.95655 7.35374C2.74061 7.35374 0.936766 9.15649 0.936766 11.3735C0.936766 13.5906 2.74061 15.3944 4.95655 15.3944C7.17358 15.3944 8.97743 13.5906 8.97743 11.3735C8.97743 10.6911 8.80545 10.0482 8.50435 9.48451C12.6219 5.30759 18.2098 2.94495 24.139 2.94495C36.2593 2.94495 46.1192 12.8037 46.1192 24.9241C46.1192 37.0444 36.2593 46.9043 24.1395 46.9043C19.556 46.9043 15.0873 45.4609 11.3796 42.8175C11.5307 42.3944 11.6181 41.9417 11.6181 41.4675C11.6181 39.2493 9.81534 37.4455 7.59831 37.4455C5.38127 37.4455 3.57743 39.2493 3.57743 41.4675C3.57743 43.6834 5.38127 45.4873 7.59831 45.4873C8.33127 45.4873 9.01699 45.2867 9.6093 44.9422C13.8148 47.9955 18.9115 49.6653 24.1395 49.6653C37.7813 49.6653 48.8807 38.5669 48.8807 24.9241C48.8807 11.2823 37.7813 0.183962 24.1395 0.183963C17.4192 0.183963 11.0912 2.88176 6.44721 7.6422ZM4.95655 12.6334C4.26204 12.6334 3.69776 12.068 3.69776 11.3735C3.69776 10.679 4.26204 10.1147 4.95655 10.1147C5.65215 10.1147 6.21644 10.679 6.21644 11.3735C6.21644 12.068 5.65215 12.6334 4.95655 12.6334ZM6.33787 41.468C6.33787 40.7724 6.90215 40.207 7.59776 40.207C8.29226 40.207 8.85655 40.7724 8.85655 41.468C8.85655 42.1625 8.29226 42.7268 7.59776 42.7268C6.9027 42.7268 6.33787 42.162 6.33787 41.468Z" fill="black"/>
<path d="M17.3192 37.8577C18.4741 37.8577 19.5126 37.3659 20.2467 36.5851C21.4945 37.0027 22.7978 37.217 24.139 37.217C30.9181 37.217 36.4329 31.7022 36.4329 24.9241C36.4329 18.1472 30.9181 12.6335 24.139 12.6335C22.2675 12.6335 20.439 13.0626 18.7752 13.8719C18.1164 13.4011 17.3115 13.1198 16.4423 13.1198C14.2252 13.1198 12.4214 14.9236 12.4214 17.1417C12.4214 19.3588 14.2252 21.1615 16.4423 21.1615C18.6604 21.1615 20.4653 19.3588 20.4653 17.1417C20.4653 16.811 20.4203 16.4912 20.345 16.1835C21.534 15.6665 22.823 15.3945 24.1384 15.3945C29.3945 15.3945 33.6714 19.6687 33.6714 24.9241C33.6714 30.1802 29.395 34.456 24.1384 34.456C23.1725 34.456 22.2346 34.3027 21.3302 34.0225C21.3335 33.9604 21.3401 33.8989 21.3401 33.8357C21.3401 31.6187 19.5362 29.8148 17.3192 29.8148C15.1022 29.8148 13.2994 31.6187 13.2994 33.8357C13.2994 36.0538 15.1022 37.8577 17.3192 37.8577ZM16.4428 18.4005C15.7472 18.4005 15.1829 17.8362 15.1829 17.1417C15.1829 16.4461 15.7472 15.8807 16.4428 15.8807C17.1384 15.8807 17.7049 16.4461 17.7049 17.1417C17.7049 17.8362 17.1379 18.4005 16.4428 18.4005ZM17.3192 32.5758C18.0148 32.5758 18.5791 33.1412 18.5791 33.8357C18.5791 34.5313 18.0148 35.0967 17.3192 35.0967C16.6247 35.0967 16.0604 34.5313 16.0604 33.8357C16.0604 33.1412 16.6252 32.5758 17.3192 32.5758Z" fill="black"/>
<path d="M28.7259 37.4455C26.5088 37.4455 24.705 39.2494 24.705 41.4675C24.705 43.6835 26.5088 45.4873 28.7259 45.4873C30.9429 45.4873 32.7479 43.6835 32.7479 41.4675C32.7479 41.3664 32.7391 41.2681 32.733 41.1681C38.7231 38.0021 42.5182 31.7912 42.5182 24.9241C42.5182 14.7906 34.2742 6.54664 24.1396 6.54665C19.2319 6.54665 14.6176 8.45819 11.1451 11.9285C7.97093 15.1016 6.10555 19.2346 5.8094 23.6741C4.06654 24.1142 2.77148 25.6906 2.77148 27.5686C2.77148 29.7857 4.57533 31.5895 6.79236 31.5895C9.0083 31.5895 10.8121 29.7857 10.8121 27.5686C10.8121 25.9846 9.88906 24.6164 8.55665 23.9609C8.78632 20.151 10.3759 16.601 13.0973 13.8818C16.0484 10.9329 19.9698 9.30818 24.1402 9.30818C32.7523 9.30818 39.7577 16.3137 39.7577 24.9247C39.7577 30.7038 36.594 35.9329 31.5891 38.6472C30.8583 37.906 29.8451 37.4455 28.7259 37.4455ZM8.0506 27.5686C8.0506 28.2631 7.48632 28.8285 6.79181 28.8285C6.09621 28.8285 5.53192 28.2631 5.53192 27.5686C5.53192 26.873 6.09621 26.3087 6.79181 26.3087C7.48632 26.3087 8.0506 26.873 8.0506 27.5686ZM28.7259 42.7269C28.0303 42.7269 27.466 42.1626 27.466 41.4681C27.466 40.7725 28.0303 40.2071 28.7259 40.2071C29.4215 40.2071 29.9869 40.7725 29.9869 41.4681C29.9869 42.162 29.4215 42.7269 28.7259 42.7269Z" fill="black"/>
</g>
<defs>
<clipPath id="clip0_154_330">
<rect width="50" height="50" fill="white" transform="translate(0 50) rotate(-90)"/>
</clipPath>
</defs>
</svg>
