<svg width="1360" height="910" viewBox="0 0 1360 910" fill="none" xmlns="http://www.w3.org/2000/svg">
<rect y="10" width="1360" height="900" fill="#F1EAEA"/>
<g clip-path="url(#clip0_154_417)">
<mask id="mask0_154_417" style="mask-type:luminance" maskUnits="userSpaceOnUse" x="190" y="176" width="71" height="76">
<path d="M260.024 196.516L214.981 176.186L190.298 230.874L235.341 251.204L260.024 196.516Z" fill="white"/>
</mask>
<g mask="url(#mask0_154_417)">
<path d="M248.689 195.01C245.426 191.221 241.182 188.159 236.405 186.146C232.346 184.188 227.989 182.932 223.596 182.454C219.513 182.036 216.19 182.467 213.442 183.771C212.492 184.252 211.691 184.916 211.087 185.724C210.394 186.624 210.497 187.556 211.371 188.281C212.384 189.121 213.397 188.827 214.341 188.385L214.678 188.227C215.729 187.729 216.816 187.215 217.963 187.064C219.728 186.837 221.55 186.825 223.382 187.028C227.304 187.462 231.249 188.814 235.796 191.284C238.946 192.994 241.412 194.865 243.338 197.004C246.09 200.061 247.414 202.962 247.386 205.872C247.346 209.995 245.266 212.378 241.203 212.957C238.91 213.232 236.578 213.372 234.224 213.375L234.113 213.377C232.965 213.401 231.779 213.35 230.632 213.301C229.826 213.266 228.992 213.23 228.173 213.22C222.547 213.15 218.092 214.401 214.555 217.043C213.671 217.677 212.907 218.429 212.285 219.278C211.819 219.933 211.525 220.684 211.42 221.486C211.314 222.287 211.401 223.122 211.673 223.937C211.937 224.763 212.425 225.135 212.788 225.302L212.799 225.306C213.059 225.413 213.335 225.468 213.606 225.465C213.877 225.462 214.135 225.402 214.36 225.29C214.777 225.115 215.198 224.944 215.62 224.774C216.733 224.323 217.883 223.855 218.957 223.306C222.314 221.586 226.221 220.707 231.252 220.541C234.344 220.477 237.411 220.269 240.438 219.92C242.574 219.65 244.621 219.121 246.526 218.346C250.535 216.686 252.916 213.8 253.602 209.768C254.449 204.779 252.795 199.815 248.689 195.01Z" fill="black"/>
<path d="M205.929 237.587C206.205 237.755 206.491 237.906 206.786 238.039C208.222 238.669 209.786 238.902 211.255 238.703C212.724 238.505 214.023 237.886 214.966 236.934C215.616 236.181 216.041 235.281 216.209 234.304C216.377 233.327 216.283 232.298 215.934 231.298C215.69 230.493 215.235 229.728 214.609 229.07C213.983 228.41 213.206 227.877 212.343 227.515C211.209 227.007 210.994 226.989 208.719 227.062C207.152 227.081 205.71 227.58 204.629 228.475C203.548 229.37 202.892 230.61 202.769 231.99C202.563 234.298 203.627 236.181 205.929 237.587ZM210.141 230.32C210.191 230.48 210.245 230.634 210.296 230.785C210.468 231.2 210.569 231.629 210.596 232.055C210.588 232.631 210.397 233.172 210.045 233.616C209.825 233.811 209.517 233.914 209.185 233.903C208.722 233.937 208.239 233.819 207.823 233.571C207.62 233.419 207.004 232.954 207.56 231.847C208.155 230.663 208.914 230.207 210.142 230.318L210.141 230.32Z" fill="black"/>
</g>
</g>
<g clip-path="url(#clip1_154_417)">
<path d="M203.395 503.634C212.085 500.598 216.669 491.093 213.633 482.403C210.598 473.713 201.093 469.13 192.403 472.165C183.713 475.2 179.129 484.706 182.165 493.395C185.2 502.085 194.705 506.669 203.395 503.634Z" stroke="black" stroke-width="1.5" stroke-linecap="round" stroke-linejoin="round"/>
<path d="M191.53 484.828C189.606 479.32 198.26 476.298 200.184 481.805C201.558 485.738 197.349 486.325 198.998 491.046" stroke="black" stroke-width="1.5" stroke-linecap="round" stroke-linejoin="round"/>
<path d="M201.202 497.355L201.212 497.332" stroke="black" stroke-width="1.5" stroke-linecap="round" stroke-linejoin="round"/>
</g>
<g clip-path="url(#clip2_154_417)">
<mask id="mask1_154_417" style="mask-type:luminance" maskUnits="userSpaceOnUse" x="1018" y="0" width="49" height="42">
<path d="M1041.07 0.244043L1018.1 15.9414L1043.4 41.8745L1066.37 26.1772L1041.07 0.244043Z" fill="white"/>
</mask>
<g mask="url(#mask1_154_417)">
<path d="M1037.37 5.14455C1034.37 5.67202 1031.55 6.84903 1029.2 8.55137C1027.05 9.93287 1025.24 11.638 1023.87 13.5652C1022.6 15.3636 1022.02 17.0295 1022.08 18.6571C1022.12 19.2276 1022.31 19.7773 1022.62 20.2717C1022.96 20.833 1023.53 21.0302 1024.16 20.8126C1024.9 20.5603 1024.98 20.0096 1024.97 19.4519L1024.96 19.2529C1024.93 18.6306 1024.91 17.9873 1025.11 17.4115C1025.42 16.5269 1025.87 15.6722 1026.45 14.8696C1027.68 13.151 1029.44 11.6633 1032 10.1884C1033.77 9.16698 1035.47 8.50682 1037.18 8.17018C1039.63 7.68902 1041.63 7.83391 1043.29 8.61296C1045.66 9.71713 1046.51 11.3168 1045.83 13.3676C1045.41 14.5123 1044.91 15.6385 1044.32 16.7394L1044.29 16.7919C1044.02 17.3345 1043.69 17.8753 1043.38 18.3984C1043.16 18.7659 1042.93 19.1464 1042.72 19.5264C1041.27 22.1374 1040.88 24.5484 1041.51 26.8969C1041.66 27.4769 1041.9 28.0319 1042.23 28.5464C1042.49 28.9362 1042.85 29.2717 1043.28 29.532C1043.72 29.7921 1044.22 29.9715 1044.76 30.0588C1045.3 30.1529 1045.64 30.0229 1045.82 29.897L1045.83 29.8933C1045.95 29.8 1046.06 29.6852 1046.12 29.5576C1046.19 29.4302 1046.22 29.2938 1046.21 29.1593C1046.21 28.9183 1046.22 28.6767 1046.23 28.4349C1046.25 27.796 1046.26 27.1353 1046.22 26.4887C1046.07 24.4668 1046.54 22.4098 1047.7 20.0152C1048.44 18.5529 1049.09 17.0654 1049.64 15.5586C1050.02 14.4897 1050.23 13.3935 1050.26 12.2992C1050.31 9.98862 1049.24 8.11611 1047.09 6.73367C1044.43 5.02499 1041.16 4.49059 1037.37 5.14455Z" fill="black"/>
<path d="M1051.18 36.3369C1051.34 36.2524 1051.5 36.1585 1051.65 36.0555C1052.37 35.5506 1052.9 34.8809 1053.15 34.142C1053.41 33.4031 1053.37 32.633 1053.06 31.9417C1052.79 31.44 1052.38 31.0045 1051.86 30.6687C1051.34 30.333 1050.72 30.1061 1050.06 30.0056C1049.54 29.908 1048.98 29.9192 1048.45 30.0383C1047.91 30.1572 1047.41 30.3802 1046.99 30.6879C1046.41 31.0841 1046.35 31.18 1045.82 32.2624C1045.44 32.9995 1045.36 33.8048 1045.61 34.5456C1045.85 35.2866 1046.4 35.9193 1047.17 36.3401C1048.44 37.044 1049.79 37.0427 1051.18 36.3369ZM1048.05 32.4555C1048.15 32.4742 1048.26 32.4896 1048.36 32.5055C1048.64 32.5344 1048.91 32.5999 1049.16 32.6995C1049.49 32.8548 1049.75 33.0864 1049.92 33.3682C1049.98 33.5226 1049.96 33.6931 1049.87 33.8454C1049.78 34.0706 1049.59 34.2654 1049.34 34.3949C1049.2 34.4494 1048.78 34.6149 1048.28 34.0637C1047.75 33.4742 1047.68 32.9992 1048.05 32.4545L1048.05 32.4555Z" fill="black"/>
</g>
</g>
<g clip-path="url(#clip3_154_417)">
<path d="M1169.84 370.427C1178.42 373.771 1188.08 369.529 1191.43 360.953C1194.77 352.377 1190.53 342.715 1181.95 339.371C1173.38 336.027 1163.71 340.269 1160.37 348.845C1157.03 357.42 1161.27 367.083 1169.84 370.427Z" stroke="black" stroke-width="1.5" stroke-linecap="round" stroke-linejoin="round"/>
<path d="M1173.06 348.424C1175.18 342.989 1183.72 346.319 1181.6 351.754C1180.08 355.636 1176.5 353.346 1174.69 358.005" stroke="black" stroke-width="1.5" stroke-linecap="round" stroke-linejoin="round"/>
<path d="M1172.26 364.232L1172.28 364.22" stroke="black" stroke-width="1.5" stroke-linecap="round" stroke-linejoin="round"/>
</g>
<g clip-path="url(#clip4_154_417)">
<path d="M969.845 757.427C978.42 760.771 988.083 756.529 991.427 747.953C994.771 739.377 990.529 729.715 981.953 726.371C973.377 723.027 963.715 727.269 960.371 735.845C957.027 744.42 961.269 754.083 969.845 757.427Z" stroke="black" stroke-width="1.5" stroke-linecap="round" stroke-linejoin="round"/>
<path d="M973.057 735.424C975.176 729.989 983.716 733.319 981.597 738.754C980.084 742.636 976.505 740.346 974.688 745.005" stroke="black" stroke-width="1.5" stroke-linecap="round" stroke-linejoin="round"/>
<path d="M972.26 751.232L972.282 751.22" stroke="black" stroke-width="1.5" stroke-linecap="round" stroke-linejoin="round"/>
</g>
<g clip-path="url(#clip5_154_417)">
<mask id="mask2_154_417" style="mask-type:luminance" maskUnits="userSpaceOnUse" x="591" y="697" width="35" height="45">
<path d="M625.751 705.206L607.734 697.074L591.279 733.533L609.296 741.665L625.751 705.206Z" fill="white"/>
</mask>
<g mask="url(#mask2_154_417)">
<path d="M620.856 705.403C619.782 703.375 618.199 701.896 616.274 701.122C614.663 700.311 612.85 699.966 610.942 700.108C609.166 700.257 607.644 700.857 606.291 701.942C605.82 702.336 605.396 702.829 605.047 703.391C604.648 704.02 604.601 704.589 604.918 704.952C605.284 705.373 605.765 705.089 606.229 704.72L606.395 704.588C606.913 704.174 607.448 703.746 607.974 703.537C608.782 703.219 609.594 703.03 610.389 702.973C612.092 702.85 613.713 703.296 615.49 704.376C616.721 705.124 617.632 706.041 618.275 707.178C619.194 708.803 619.493 710.473 619.19 712.285C618.76 714.851 617.596 716.541 615.73 717.306C614.681 717.707 613.629 718.027 612.581 718.264L612.531 718.277C612.018 718.406 611.495 718.493 610.99 718.577C610.634 718.636 610.267 718.697 609.903 718.773C607.406 719.292 605.298 720.515 603.459 722.51C603.002 722.993 602.587 723.537 602.225 724.127C601.952 724.58 601.746 725.077 601.619 725.586C601.492 726.094 601.447 726.604 601.487 727.083C601.522 727.571 601.702 727.753 601.847 727.82L601.851 727.822C601.956 727.863 602.074 727.869 602.195 727.84C602.316 727.811 602.436 727.748 602.548 727.656C602.751 727.505 602.955 727.357 603.16 727.209C603.7 726.817 604.259 726.412 604.792 725.963C606.459 724.558 608.286 723.622 610.541 723.015C611.925 722.666 613.31 722.231 614.693 721.711C615.67 721.33 616.634 720.796 617.56 720.124C619.51 718.691 620.859 716.659 621.568 714.084C622.443 710.899 622.203 707.979 620.856 705.403Z" fill="black"/>
<path d="M597.565 736.142C597.671 736.219 597.783 736.285 597.902 736.338C598.477 736.586 599.15 736.574 599.824 736.304C600.498 736.033 601.138 735.519 601.653 734.833C602.018 734.3 602.297 733.698 602.469 733.074C602.642 732.45 602.703 731.82 602.648 731.233C602.619 730.757 602.493 730.327 602.28 729.98C602.068 729.633 601.775 729.38 601.427 729.241C600.973 729.039 600.879 729.049 599.859 729.322C599.16 729.49 598.468 729.944 597.898 730.609C597.327 731.273 596.911 732.109 596.718 732.979C596.396 734.434 596.681 735.499 597.565 736.142ZM600.167 731.204C600.173 731.299 600.182 731.389 600.189 731.478C600.224 731.719 600.226 731.975 600.196 732.237C600.135 732.596 599.996 732.951 599.794 733.263C599.677 733.406 599.53 733.5 599.383 733.527C599.174 733.594 598.97 733.569 598.81 733.457C598.735 733.383 598.507 733.155 598.865 732.411C599.248 731.616 599.632 731.257 600.167 731.203L600.167 731.204Z" fill="black"/>
</g>
<g clip-path="url(#clip6_154_417)">
<mask id="mask3_154_417" style="mask-type:luminance" maskUnits="userSpaceOnUse" x="591" y="697" width="35" height="45">
<path d="M625.729 705.165L607.711 697.033L591.256 733.491L609.273 741.623L625.729 705.165Z" fill="white"/>
</mask>
<g mask="url(#mask3_154_417)">
<path d="M620.834 705.362C619.76 703.333 618.177 701.854 616.252 701.081C614.641 700.269 612.827 699.924 610.92 700.066C609.144 700.215 607.622 700.815 606.268 701.9C605.797 702.294 605.374 702.788 605.025 703.35C604.626 703.979 604.578 704.548 604.895 704.911C605.262 705.332 605.742 705.048 606.207 704.678L606.372 704.546C606.89 704.132 607.425 703.704 607.951 703.495C608.759 703.178 609.572 702.988 610.367 702.931C612.069 702.809 613.69 703.255 615.467 704.335C616.698 705.083 617.609 705.999 618.252 707.136C619.172 708.761 619.471 710.431 619.168 712.243C618.738 714.81 617.573 716.499 615.707 717.265C614.658 717.666 613.607 717.985 612.559 718.223L612.509 718.235C611.996 718.365 611.473 718.451 610.967 718.536C610.612 718.595 610.244 718.656 609.881 718.731C607.383 719.25 605.275 720.473 603.437 722.469C602.98 722.951 602.564 723.495 602.202 724.086C601.93 724.539 601.724 725.035 601.597 725.544C601.47 726.053 601.425 726.563 601.464 727.042C601.499 727.529 601.679 727.712 601.824 727.779L601.829 727.781C601.934 727.821 602.051 727.827 602.172 727.798C602.293 727.77 602.414 727.707 602.525 727.614C602.728 727.464 602.933 727.316 603.137 727.168C603.678 726.776 604.237 726.371 604.77 725.922C606.436 724.517 608.263 723.58 610.519 722.974C611.902 722.625 613.288 722.189 614.67 721.669C615.648 721.288 616.612 720.754 617.537 720.082C619.488 718.65 620.836 716.618 621.545 714.043C622.421 710.858 622.181 707.938 620.834 705.362Z" fill="black"/>
<path d="M597.543 736.101C597.649 736.178 597.761 736.243 597.879 736.296C598.455 736.544 599.128 736.532 599.802 736.262C600.476 735.992 601.116 735.477 601.631 734.791C601.995 734.258 602.274 733.657 602.447 733.032C602.619 732.408 602.68 731.778 602.625 731.191C602.597 730.716 602.471 730.286 602.258 729.939C602.045 729.592 601.752 729.338 601.405 729.199C600.951 728.997 600.857 729.007 599.837 729.28C599.138 729.449 598.446 729.903 597.875 730.567C597.304 731.232 596.888 732.068 596.696 732.938C596.373 734.393 596.659 735.457 597.543 736.101ZM600.144 731.163C600.151 731.258 600.159 731.348 600.167 731.437C600.202 731.677 600.204 731.934 600.173 732.196C600.112 732.554 599.973 732.91 599.772 733.221C599.654 733.364 599.507 733.459 599.36 733.485C599.151 733.553 598.948 733.528 598.787 733.416C598.712 733.341 598.484 733.114 598.843 732.37C599.226 731.575 599.609 731.215 600.145 731.162L600.144 731.163Z" fill="black"/>
</g>
</g>
</g>
<defs>
<clipPath id="clip0_154_417">
<rect width="50" height="60" fill="white" transform="translate(214.569 176) rotate(24.2917)"/>
</clipPath>
<clipPath id="clip1_154_417">
<rect width="40" height="40" fill="white" transform="translate(172.422 475.613) rotate(-19.2548)"/>
</clipPath>
<clipPath id="clip2_154_417">
<rect width="28.1461" height="36.2297" fill="white" transform="matrix(0.82559 -0.564271 0.698308 0.715798 1017.89 16.085)"/>
</clipPath>
<clipPath id="clip3_154_417">
<rect width="40" height="40" fill="white" transform="translate(1164.53 329) rotate(21.3008)"/>
</clipPath>
<clipPath id="clip4_154_417">
<rect width="40" height="40" fill="white" transform="translate(964.531 716) rotate(21.3008)"/>
</clipPath>
<clipPath id="clip5_154_417">
<rect width="20" height="40" fill="white" transform="translate(607.569 697) rotate(24.2917)"/>
</clipPath>
<clipPath id="clip6_154_417">
<rect width="20" height="40" fill="white" transform="translate(607.547 696.958) rotate(24.2917)"/>
</clipPath>
</defs>
</svg>
