<svg width="1360" height="900" viewBox="0 0 1360 900" fill="none" xmlns="http://www.w3.org/2000/svg">
<rect width="1360" height="900" fill="#F1EAEA"/>
<g clip-path="url(#clip0_460_54)">
<path d="M416.766 788.039C412.858 781.443 406.008 775.037 399.273 770.906C393.083 767.128 384.425 764.286 376.956 766.724C368.567 769.448 368.034 778.787 370.342 785.34C370.537 786.072 371.058 786.683 371.749 787.074C372.001 787.732 372.32 788.379 372.561 788.975C372.66 789.149 372.749 789.261 372.848 789.435C371.457 791.398 370.21 793.399 369.042 795.45C368.657 796.027 368.495 796.692 368.613 797.373C365.208 802.107 367.022 807.406 370.682 811.366C372.135 812.964 373.881 814.257 375.899 815.121C376.687 817.28 379.409 818.214 381.836 818.241C385.07 818.129 388.2 817.015 390.688 814.991C393.986 812.444 395.927 808.856 398.28 805.644C401.034 806.763 404.039 807.328 407.025 807.387C408.681 807.356 410.329 806.88 411.768 805.994C411.969 805.959 412.16 805.862 412.351 805.766C419.405 802.124 420.308 794.124 416.766 788.039Z" fill="#D5F122"/>
<path d="M419.028 752.636C415.049 756.448 411.247 760.485 407.746 764.66C406.018 766.681 404.368 768.751 402.875 770.922C402.772 771.131 402.592 771.29 402.49 771.499C401.822 772.443 401.077 773.337 400.42 774.344C399.798 775.153 399.991 776.267 400.847 776.821C402.105 777.688 403.316 778.691 404.414 779.84C405.757 781.203 408.027 779.918 407.905 778.409C408.085 778.25 408.198 778.103 408.367 777.882L419.532 759.564C419.804 759.135 419.864 758.678 419.789 758.244C420.502 757.165 421.148 756.096 421.872 755.079C422.893 753.372 420.696 751.072 419.028 752.636Z" fill="#EFE7D2"/>
<path d="M418.599 754.559C418.196 754.629 417.814 754.823 417.52 755.128C414.983 757.671 412.39 760.287 409.807 762.965C406.05 766.866 402.496 770.733 399.143 774.564C397.227 773.492 395.188 772.504 393.17 771.641C389.446 770.116 385.418 768.834 381.088 769.008C380.472 769.05 379.857 769.093 379.185 769.209C377.303 769.534 375.541 770.157 373.979 771.128C372.349 772.111 371.052 773.419 370.145 774.979C369.213 776.798 368.727 778.795 368.733 780.835C368.692 781.799 368.785 782.739 368.946 783.668C369.306 786.157 370.53 788.433 372.428 790.21C370.14 793.793 367.852 797.377 365.564 800.961C365.394 801.182 365.37 801.441 365.48 801.677C365.124 802.823 365.047 803.984 365.307 805.087C365.695 806.933 366.486 808.71 367.581 810.243C369.463 812.724 371.897 814.791 374.726 816.344C376.039 817.137 377.399 817.795 378.871 818.306C380.344 818.817 381.986 819.108 383.564 819.027C384.045 819.008 384.515 818.926 384.986 818.845C387.271 818.451 389.371 817.386 390.894 815.784C391.029 815.761 391.22 815.664 391.265 815.529C394.163 812.669 396.972 809.696 399.626 806.624L399.703 806.674C402.479 807.917 405.664 808.323 408.766 807.852C409.102 807.794 409.371 807.747 409.696 807.627C411.422 807.202 413.017 806.416 414.357 805.356C415.764 804.284 416.76 802.836 417.32 801.273C417.87 799.647 417.995 797.967 417.65 796.369C417.394 794.882 416.946 793.493 416.297 792.138C414.218 787.714 411.251 783.762 407.508 780.518C407.564 780.444 407.564 780.444 407.621 780.371C411.966 772.669 416.312 764.967 420.647 757.203C421.135 756.418 420.896 755.438 420.107 754.873C419.639 754.571 419.137 754.467 418.599 754.559ZM413.081 803.981C411.989 804.872 410.653 805.549 409.185 805.866C408.916 805.912 408.647 805.959 408.378 806.005C405.813 806.384 403.131 806.082 400.812 805.079C401.682 804.1 402.54 803.059 403.331 802.03C403.625 801.724 403.84 801.368 404.123 801C404.394 800.571 404.521 800.102 404.57 799.584C404.605 799.386 404.573 799.2 404.541 799.015C404.445 798.457 404.203 797.861 403.849 797.412C399.864 790.766 393.326 785.772 385.437 783.372C383.674 782.783 381.696 782.551 379.803 782.814C378.929 782.965 378.088 783.301 377.335 783.75C376.175 784.652 375.182 785.716 374.501 786.982L373.459 788.565C372.095 787.078 371.159 785.263 370.895 783.331C370.756 782.526 370.673 781.648 370.669 780.819C370.649 779.101 371.043 777.375 371.805 775.776C372.554 774.499 373.614 773.423 374.929 772.622C376.311 771.81 377.804 771.233 379.417 770.955C379.954 770.862 380.503 770.831 381.051 770.8C384.823 770.595 388.617 771.726 392.207 773.274C397.113 775.233 401.599 777.966 405.488 781.249C409.367 784.47 412.4 788.41 414.49 792.896C415.05 794.139 415.477 795.405 415.701 796.705C416.004 798.056 415.892 799.415 415.434 800.769C415.021 801.988 414.184 803.153 413.081 803.981ZM392.516 811.55C392.442 811.116 392.3 810.695 392.168 810.335C390.677 806.51 387.974 803.278 384.334 801.037C380.761 798.784 376.475 797.61 372.133 797.722C371.585 797.753 371.037 797.784 370.499 797.877C370.23 797.923 369.961 797.97 369.703 798.078L376.25 787.892C376.762 786.847 377.574 785.941 378.486 785.21C378.981 784.869 379.575 784.703 380.18 784.598C381.748 784.455 383.368 784.622 384.841 785.133C392.284 787.355 398.5 792.086 402.286 798.384C402.485 798.732 402.684 799.08 402.748 799.452C402.758 799.514 402.769 799.576 402.791 799.7C402.755 799.897 402.664 800.168 402.551 800.315C402.392 800.597 402.166 800.892 401.929 801.124C398.937 804.638 395.81 808.175 392.516 811.55ZM418.909 756.355L406.041 779.24C404.352 777.874 402.616 776.643 400.758 775.497C404.065 771.801 407.563 768.008 411.252 764.119C413.835 761.441 416.361 758.836 418.909 756.355ZM367.178 804.7C366.918 803.597 367.062 802.424 367.652 801.43C367.924 801 368.341 800.609 368.779 800.342C369.408 799.978 370.059 799.739 370.742 799.684C371.212 799.603 371.626 799.595 372.107 799.576C376.102 799.461 379.963 800.58 383.225 802.631C386.486 804.683 389.002 807.629 390.35 811.031C390.471 811.329 390.592 811.627 390.645 811.937C390.667 812.061 390.688 812.185 390.709 812.308C390.706 812.692 390.558 813.036 390.41 813.38C390.205 813.798 389.923 814.166 389.562 814.483C388.265 815.792 386.558 816.724 384.676 817.049C384.272 817.119 383.936 817.177 383.522 817.184C382.146 817.231 380.794 817.018 379.534 816.534C378.207 816.061 376.925 815.454 375.767 814.761C373.172 813.359 370.972 811.443 369.201 809.198C368.205 807.839 367.523 806.299 367.178 804.7Z" fill="black"/>
</g>
<g clip-path="url(#clip1_460_54)">
<path d="M289.916 198.439C293.48 203.316 299.174 207.811 304.538 210.525C309.467 213.005 316.098 214.552 321.294 212.041C327.131 209.232 326.517 201.844 324.126 196.873C323.905 196.313 323.458 195.874 322.912 195.621C322.657 195.123 322.354 194.64 322.114 194.191C322.023 194.061 321.946 193.98 321.855 193.851C322.661 192.197 323.356 190.524 323.99 188.818C324.209 188.334 324.256 187.797 324.097 187.271C326.076 183.277 324.18 179.254 321.081 176.43C319.848 175.288 318.433 174.41 316.866 173.891C316.058 172.255 313.969 171.737 312.192 171.908C309.842 172.253 307.674 173.378 306.074 175.168C303.938 177.433 302.905 180.409 301.531 183.123C299.399 182.461 297.142 182.255 294.954 182.447C293.748 182.603 292.595 183.108 291.638 183.919C291.495 183.963 291.366 184.054 291.237 184.145C286.474 187.57 286.674 193.934 289.916 198.439Z" fill="#9EFB51"/>
<path d="M292.067 226.465C294.565 223.15 296.909 219.673 299.019 216.111C300.064 214.384 301.047 212.625 301.905 210.798C301.957 210.626 302.072 210.487 302.124 210.314C302.511 209.518 302.959 208.756 303.331 207.912C303.698 207.227 303.438 206.365 302.752 205.998C301.74 205.416 300.748 204.723 299.822 203.906C298.694 202.941 297.174 204.132 297.425 205.31C297.311 205.449 297.244 205.574 297.144 205.761L290.954 221.056C290.802 221.415 290.807 221.779 290.909 222.114C290.504 223.02 290.146 223.912 289.727 224.77C289.164 226.193 291.016 227.827 292.067 226.465Z" fill="#EFE7D2"/>
<path d="M292.174 224.918C292.461 224.831 292.719 224.648 292.901 224.385C294.481 222.183 296.095 219.919 297.695 217.608C300.02 214.241 302.202 210.917 304.24 207.637C305.755 208.329 307.351 208.943 308.918 209.462C311.803 210.366 314.884 211.054 318.029 210.573C318.475 210.491 318.92 210.408 319.398 210.264C320.739 209.859 321.959 209.229 322.996 208.34C324.081 207.438 324.888 206.306 325.384 205.007C325.869 203.502 326.009 201.893 325.786 200.289C325.712 199.528 325.543 198.795 325.326 198.077C324.795 196.148 323.657 194.455 322.078 193.209C323.365 190.208 324.652 187.207 325.939 184.207C326.039 184.02 326.029 183.814 325.923 183.637C326.06 182.707 325.991 181.788 325.683 180.941C325.201 179.52 324.432 178.185 323.467 177.066C321.825 175.264 319.825 173.832 317.592 172.835C316.546 172.316 315.482 171.906 314.352 171.621C313.221 171.336 311.99 171.238 310.845 171.427C310.496 171.481 310.161 171.582 309.826 171.683C308.199 172.175 306.778 173.179 305.838 174.56C305.742 174.589 305.613 174.68 305.594 174.791C303.784 177.27 302.051 179.831 300.443 182.459L300.38 182.426C298.219 181.669 295.848 181.602 293.632 182.219C293.393 182.292 293.201 182.35 292.976 182.47C291.761 182.942 290.68 183.686 289.815 184.627C288.902 185.582 288.33 186.799 288.089 188.074C287.862 189.396 287.951 190.727 288.375 191.957C288.722 193.106 289.198 194.163 289.818 195.177C291.812 198.492 294.405 201.365 297.489 203.619C297.455 203.681 297.455 203.681 297.422 203.744C295.074 210.147 292.726 216.55 290.393 223.001C290.122 223.658 290.401 224.409 291.039 224.791C291.413 224.991 291.791 225.033 292.174 224.918ZM290.895 185.606C291.597 184.819 292.501 184.181 293.539 183.814C293.731 183.757 293.922 183.699 294.114 183.641C295.947 183.139 297.939 183.164 299.741 183.768C299.211 184.607 298.696 185.494 298.229 186.367C298.047 186.631 297.928 186.928 297.761 187.239C297.609 187.599 297.566 187.977 297.586 188.389C297.582 188.547 297.625 188.691 297.669 188.834C297.799 189.265 298.039 189.715 298.346 190.04C301.972 194.951 307.286 198.359 313.308 199.62C314.66 199.943 316.13 199.969 317.485 199.612C318.107 199.424 318.686 199.092 319.188 198.679C319.938 197.878 320.549 196.962 320.911 195.912L321.502 194.584C322.658 195.645 323.537 196.999 323.938 198.497C324.126 199.119 324.281 199.804 324.373 200.455C324.572 201.805 324.47 203.194 324.085 204.512C323.675 205.576 323.016 206.506 322.141 207.241C321.218 207.99 320.19 208.562 319.041 208.909C318.658 209.025 318.261 209.093 317.864 209.161C315.13 209.621 312.236 209.033 309.447 208.101C305.652 206.949 302.08 205.156 298.886 202.883C295.706 200.658 293.066 197.8 291.057 194.437C290.514 193.504 290.066 192.543 289.763 191.538C289.396 190.499 289.332 189.422 289.521 188.32C289.691 187.328 290.178 186.345 290.895 185.606ZM305.107 178.019C305.209 178.354 305.358 178.675 305.493 178.948C306.993 181.837 309.316 184.165 312.216 185.638C315.069 187.127 318.327 187.709 321.486 187.276C321.884 187.208 322.281 187.14 322.664 187.025C322.856 186.967 323.047 186.909 323.224 186.803L319.535 195.336C319.273 196.198 318.777 196.975 318.189 197.623C317.864 197.93 317.448 198.108 317.017 198.238C315.887 198.475 314.685 198.473 313.554 198.188C307.877 197.031 302.827 193.804 299.384 189.152C299.201 188.894 299.019 188.635 298.932 188.348C298.917 188.3 298.903 188.252 298.874 188.157C298.878 187.999 298.916 187.778 298.983 187.654C299.069 187.419 299.202 187.169 299.35 186.968C301.159 183.966 303.064 180.935 305.107 178.019ZM291.754 223.53L298.697 204.507C300.079 205.448 301.479 206.278 302.96 207.032C300.941 210.202 298.793 213.463 296.515 216.815C294.916 219.127 293.35 221.376 291.754 223.53ZM324.357 181.394C324.666 182.241 324.687 183.175 324.363 184.004C324.21 184.364 323.948 184.704 323.656 184.949C323.235 185.285 322.785 185.525 322.292 185.622C321.957 185.724 321.656 185.762 321.306 185.816C318.4 186.224 315.458 185.651 312.855 184.296C310.252 182.942 308.097 180.824 306.746 178.255C306.626 178.031 306.505 177.806 306.433 177.566C306.404 177.471 306.375 177.375 306.346 177.279C306.307 176.978 306.379 176.695 306.45 176.412C306.555 176.067 306.721 175.756 306.951 175.477C307.758 174.345 308.905 173.476 310.245 173.071C310.533 172.984 310.772 172.912 311.074 172.873C312.074 172.727 313.085 172.787 314.058 173.068C315.078 173.334 316.08 173.71 317 174.163C319.047 175.059 320.86 176.392 322.396 178.017C323.27 179.006 323.933 180.164 324.357 181.394Z" fill="black"/>
</g>
<g clip-path="url(#clip2_460_54)">
<path opacity="0.2" d="M1063.06 765.506C1063.28 763.169 1063.06 758.494 1063.06 758.494L1075.05 743.3C1073.38 737.383 1070.9 731.699 1067.68 726.388L1047.96 723.706C1046.27 722.011 1044.53 720.361 1042.75 718.756L1039.93 699.988C1034.35 696.922 1028.38 694.565 1022.16 692.975L1006.19 704.388C1003.73 704.181 1001.27 704.181 998.814 704.388L982.844 692.975C976.624 694.572 970.649 696.929 965.066 699.988L962.248 718.756C960.465 720.361 958.731 722.011 957.045 723.706L937.316 726.388C934.095 731.695 931.616 737.381 929.945 743.3L941.941 758.494C941.797 760.831 941.941 765.506 941.941 765.506L929.945 780.7C931.624 786.617 934.102 792.302 937.316 797.613L957.045 800.294C958.731 802.036 960.465 803.686 962.248 805.244L965.066 824.013C970.645 827.078 976.622 829.435 982.844 831.025L998.814 819.613C1001.27 819.819 1003.73 819.819 1006.19 819.613L1022.16 831.025C1028.38 829.428 1034.35 827.071 1039.93 824.013L1042.75 805.244C1044.56 803.663 1047.96 800.294 1047.96 800.294L1067.68 797.613C1070.91 792.305 1073.38 786.619 1075.05 780.7L1063.06 765.506ZM1002.5 795C995.639 795 988.933 793.065 983.229 789.439C977.524 785.813 973.078 780.659 970.453 774.629C967.828 768.599 967.141 761.963 968.479 755.562C969.817 749.161 973.121 743.281 977.972 738.666C982.823 734.05 989.004 730.907 995.733 729.634C1002.46 728.361 1009.44 729.014 1015.77 731.512C1022.11 734.01 1027.53 738.239 1031.34 743.666C1035.15 749.093 1037.19 755.473 1037.19 762C1037.19 770.752 1033.53 779.146 1027.03 785.335C1020.52 791.523 1011.7 795 1002.5 795Z" fill="black"/>
<path d="M1002.5 795C1021.66 795 1037.19 780.225 1037.19 762C1037.19 743.775 1021.66 729 1002.5 729C983.343 729 967.812 743.775 967.812 762C967.812 780.225 983.343 795 1002.5 795Z" stroke="black" stroke-width="16" stroke-linecap="round" stroke-linejoin="round"/>
<path d="M1042.75 718.756C1044.58 720.361 1046.32 722.011 1047.96 723.706L1067.68 726.388C1070.9 731.699 1073.38 737.383 1075.05 743.3L1063.06 758.494C1063.06 758.494 1063.28 763.169 1063.06 765.506L1075.05 780.7C1073.38 786.619 1070.91 792.305 1067.68 797.613L1047.96 800.294C1047.96 800.294 1044.56 803.663 1042.75 805.244L1039.93 824.013C1034.35 827.071 1028.38 829.428 1022.16 831.025L1006.19 819.613C1003.73 819.819 1001.27 819.819 998.814 819.613L982.844 831.025C976.622 829.435 970.645 827.078 965.066 824.013L962.248 805.244C960.465 803.64 958.731 801.99 957.045 800.294L937.316 797.613C934.102 792.302 931.624 786.617 929.945 780.7L941.941 765.506C941.941 765.506 941.797 760.831 941.941 758.494L929.945 743.3C931.616 737.381 934.095 731.695 937.316 726.388L957.045 723.706C958.731 722.011 960.465 720.361 962.248 718.756L965.066 699.988C970.649 696.929 976.624 694.572 982.844 692.975L998.814 704.388C1001.27 704.181 1003.73 704.181 1006.19 704.388L1022.16 692.975C1028.38 694.565 1034.35 696.922 1039.93 699.988L1042.75 718.756Z" stroke="black" stroke-width="16" stroke-linecap="round" stroke-linejoin="round"/>
</g>
<defs>
<clipPath id="clip0_460_54">
<rect width="68.2049" height="62.8457" fill="white" transform="translate(356 761.604) rotate(-9.79574)"/>
</clipPath>
<clipPath id="clip1_460_54">
<rect width="50" height="50" fill="white" transform="translate(337.156 214.403) rotate(163.181)"/>
</clipPath>
<clipPath id="clip2_460_54">
<rect width="185" height="176" fill="white" transform="translate(910 674)"/>
</clipPath>
</defs>
</svg>
