<svg width="116" height="116" viewBox="0 0 116 116" fill="none" xmlns="http://www.w3.org/2000/svg">
<g clip-path="url(#clip0_243_148)">
<path d="M9.60244 79.0676C2.41113 86.2513 6.24319 88.6491 4.15088e-05 115C25.8786 108.305 28.7513 112.619 35.9426 105.436C43.1339 98.252 43.1403 86.2729 35.9566 79.0816C28.7729 71.8903 16.7938 71.8839 9.60244 79.0676ZM32.5902 102.08C27.3166 107.348 23.0051 105.429 6.71168 108.774C10.0745 92.4845 7.68095 88.1707 13.4337 82.9029C19.1865 77.6352 27.8115 77.6397 33.0796 82.9134C37.8687 87.7076 37.8641 96.3326 32.5902 102.08Z" fill="#9EFB51"/>
<path d="M113.616 14.9146L100.206 1.4908C98.2905 -0.426885 95.4155 -0.428411 93.4978 1.48724L28.7762 65.6612C27.8174 66.6191 27.3374 68.0563 27.3367 69.4938C31.6487 70.4544 35.481 72.3731 38.8334 75.7291C42.1857 79.085 44.1004 82.9194 45.0564 87.2324C46.4939 87.2331 47.9317 86.7547 48.8905 85.7969L113.612 21.6229C115.53 19.7073 115.531 16.8323 113.616 14.9146ZM45.5417 75.7326L38.8369 69.0207L82.9436 24.9608L89.6484 31.6727L45.5417 75.7326ZM93.0044 28.3203L86.2996 21.6084L96.3674 11.5513L103.072 18.2632L93.0044 28.3203Z" fill="black"/>
</g>
<defs>
<clipPath id="clip0_243_148">
<rect width="115" height="115" fill="white" transform="translate(0.0610352) rotate(0.0304045)"/>
</clipPath>
</defs>
</svg>
