<svg width="277" height="586" viewBox="0 0 277 586" fill="none" xmlns="http://www.w3.org/2000/svg">
<path d="M131.583 525.675C129.561 525.676 127.601 526.379 126.037 527.662C124.474 528.946 123.403 530.731 123.008 532.715C122.613 534.699 122.917 536.758 123.869 538.543C124.821 540.328 126.362 541.728 128.229 542.504C127.785 543.569 127.036 544.478 126.075 545.116C125.115 545.755 123.987 546.094 122.833 546.092H111.167C109.111 546.1 107.095 546.665 105.333 547.725V530.983C107.279 530.295 108.92 528.942 109.964 527.161C111.008 525.381 111.39 523.289 111.041 521.254C110.692 519.22 109.635 517.374 108.057 516.044C106.478 514.714 104.481 513.984 102.417 513.984C100.353 513.984 98.355 514.714 96.7769 516.044C95.1988 517.374 94.1418 519.22 93.7928 521.254C93.4437 523.289 93.8251 525.381 94.8695 527.161C95.9139 528.942 97.5541 530.295 99.5001 530.983V555.367C97.578 556.058 95.9583 557.4 94.9217 559.16C93.8851 560.92 93.4969 562.987 93.8244 565.004C94.1519 567.02 95.1745 568.858 96.715 570.199C98.2554 571.541 100.217 572.301 102.259 572.348C104.301 572.395 106.295 571.727 107.896 570.458C109.497 569.189 110.603 567.401 111.024 565.402C111.444 563.403 111.152 561.32 110.198 559.514C109.244 557.708 107.688 556.292 105.8 555.513C106.242 554.453 106.987 553.547 107.942 552.909C108.897 552.271 110.018 551.928 111.167 551.925H122.833C125.502 551.925 128.089 551.009 130.164 549.332C132.24 547.655 133.677 545.317 134.238 542.708C136.188 542.046 137.841 540.717 138.908 538.955C139.974 537.193 140.385 535.111 140.068 533.076C139.751 531.042 138.726 529.184 137.174 527.83C135.622 526.476 133.643 525.713 131.583 525.675ZM102.417 519.842C102.994 519.842 103.558 520.013 104.037 520.333C104.517 520.654 104.891 521.109 105.111 521.642C105.332 522.175 105.39 522.762 105.277 523.327C105.165 523.893 104.887 524.413 104.479 524.821C104.071 525.229 103.552 525.507 102.986 525.619C102.42 525.732 101.834 525.674 101.301 525.453C100.768 525.232 100.312 524.859 99.9916 524.379C99.6712 523.899 99.5001 523.335 99.5001 522.758C99.5001 521.985 99.8074 521.243 100.354 520.696C100.901 520.149 101.643 519.842 102.417 519.842ZM102.417 566.508C101.84 566.508 101.276 566.337 100.796 566.017C100.317 565.696 99.9429 565.241 99.7221 564.708C99.5014 564.175 99.4436 563.589 99.5561 563.023C99.6687 562.457 99.9465 561.937 100.354 561.529C100.762 561.122 101.282 560.844 101.848 560.731C102.414 560.619 103 560.676 103.533 560.897C104.066 561.118 104.521 561.492 104.842 561.971C105.162 562.451 105.333 563.015 105.333 563.592C105.333 564.365 105.026 565.107 104.479 565.654C103.932 566.201 103.19 566.508 102.417 566.508ZM131.583 537.342C131.007 537.342 130.443 537.171 129.963 536.85C129.483 536.53 129.11 536.074 128.889 535.541C128.668 535.008 128.61 534.422 128.723 533.856C128.835 533.29 129.113 532.771 129.521 532.363C129.929 531.955 130.449 531.677 131.014 531.565C131.58 531.452 132.167 531.51 132.7 531.73C133.233 531.951 133.688 532.325 134.009 532.805C134.329 533.284 134.5 533.848 134.5 534.425C134.5 535.199 134.193 535.941 133.646 536.488C133.099 537.035 132.357 537.342 131.583 537.342Z" fill="#9EEB5E"/>
<path d="M131.583 484.675C129.561 484.676 127.601 485.379 126.037 486.662C124.474 487.946 123.403 489.731 123.008 491.715C122.613 493.699 122.917 495.758 123.869 497.543C124.821 499.328 126.362 500.728 128.229 501.504C127.785 502.569 127.036 503.478 126.075 504.116C125.115 504.755 123.987 505.094 122.833 505.092H111.167C109.111 505.1 107.095 505.665 105.333 506.725V489.983C107.279 489.295 108.92 487.942 109.964 486.161C111.008 484.381 111.39 482.289 111.041 480.254C110.692 478.22 109.635 476.374 108.057 475.044C106.478 473.714 104.481 472.984 102.417 472.984C100.353 472.984 98.355 473.714 96.7769 475.044C95.1988 476.374 94.1418 478.22 93.7928 480.254C93.4437 482.289 93.8251 484.381 94.8695 486.161C95.9139 487.942 97.5541 489.295 99.5001 489.983V514.367C97.578 515.058 95.9583 516.4 94.9217 518.16C93.8851 519.92 93.4969 521.987 93.8244 524.004C94.1519 526.02 95.1745 527.858 96.715 529.199C98.2554 530.541 100.217 531.301 102.259 531.348C104.301 531.395 106.295 530.727 107.896 529.458C109.497 528.189 110.603 526.401 111.024 524.402C111.444 522.403 111.152 520.32 110.198 518.514C109.244 516.708 107.688 515.292 105.8 514.513C106.242 513.453 106.987 512.547 107.942 511.909C108.897 511.271 110.018 510.928 111.167 510.925H122.833C125.502 510.925 128.089 510.009 130.164 508.332C132.24 506.655 133.677 504.317 134.238 501.708C136.188 501.046 137.841 499.717 138.908 497.955C139.974 496.193 140.385 494.111 140.068 492.076C139.751 490.042 138.726 488.184 137.174 486.83C135.622 485.476 133.643 484.713 131.583 484.675ZM102.417 478.842C102.994 478.842 103.558 479.013 104.037 479.333C104.517 479.654 104.891 480.109 105.111 480.642C105.332 481.175 105.39 481.762 105.277 482.327C105.165 482.893 104.887 483.413 104.479 483.821C104.071 484.229 103.552 484.507 102.986 484.619C102.42 484.732 101.834 484.674 101.301 484.453C100.768 484.232 100.312 483.859 99.9916 483.379C99.6712 482.899 99.5001 482.335 99.5001 481.758C99.5001 480.985 99.8074 480.243 100.354 479.696C100.901 479.149 101.643 478.842 102.417 478.842ZM102.417 525.508C101.84 525.508 101.276 525.337 100.796 525.017C100.317 524.696 99.9429 524.241 99.7221 523.708C99.5014 523.175 99.4436 522.589 99.5561 522.023C99.6687 521.457 99.9465 520.937 100.354 520.529C100.762 520.122 101.282 519.844 101.848 519.731C102.414 519.619 103 519.676 103.533 519.897C104.066 520.118 104.521 520.492 104.842 520.971C105.162 521.451 105.333 522.015 105.333 522.592C105.333 523.365 105.026 524.107 104.479 524.654C103.932 525.201 103.19 525.508 102.417 525.508ZM131.583 496.342C131.007 496.342 130.443 496.171 129.963 495.85C129.483 495.53 129.11 495.074 128.889 494.541C128.668 494.008 128.61 493.422 128.723 492.856C128.835 492.29 129.113 491.771 129.521 491.363C129.929 490.955 130.449 490.677 131.014 490.565C131.58 490.452 132.167 490.51 132.7 490.73C133.233 490.951 133.688 491.325 134.009 491.805C134.329 492.284 134.5 492.848 134.5 493.425C134.5 494.199 134.193 494.941 133.646 495.488C133.099 496.035 132.357 496.342 131.583 496.342Z" fill="#9EEB5E"/>
<path d="M160.583 455.675C158.561 455.676 156.601 456.379 155.037 457.662C153.474 458.946 152.403 460.731 152.008 462.715C151.613 464.699 151.917 466.758 152.869 468.543C153.821 470.328 155.362 471.728 157.229 472.504C156.785 473.569 156.036 474.478 155.075 475.116C154.115 475.755 152.987 476.094 151.833 476.092H140.167C138.111 476.1 136.095 476.665 134.333 477.725V460.983C136.279 460.295 137.92 458.942 138.964 457.161C140.008 455.381 140.39 453.289 140.041 451.254C139.692 449.22 138.635 447.374 137.057 446.044C135.478 444.714 133.481 443.984 131.417 443.984C129.353 443.984 127.355 444.714 125.777 446.044C124.199 447.374 123.142 449.22 122.793 451.254C122.444 453.289 122.825 455.381 123.87 457.161C124.914 458.942 126.554 460.295 128.5 460.983V485.367C126.578 486.058 124.958 487.4 123.922 489.16C122.885 490.92 122.497 492.987 122.824 495.004C123.152 497.02 124.175 498.858 125.715 500.199C127.255 501.541 129.217 502.301 131.259 502.348C133.301 502.395 135.295 501.727 136.896 500.458C138.497 499.189 139.603 497.401 140.024 495.402C140.444 493.403 140.152 491.32 139.198 489.514C138.244 487.708 136.688 486.292 134.8 485.513C135.242 484.453 135.987 483.547 136.942 482.909C137.897 482.271 139.018 481.928 140.167 481.925H151.833C154.502 481.925 157.089 481.009 159.164 479.332C161.24 477.655 162.677 475.317 163.238 472.708C165.188 472.046 166.841 470.717 167.908 468.955C168.974 467.193 169.385 465.111 169.068 463.076C168.751 461.042 167.726 459.184 166.174 457.83C164.622 456.476 162.643 455.713 160.583 455.675ZM131.417 449.842C131.994 449.842 132.558 450.013 133.037 450.333C133.517 450.654 133.891 451.109 134.111 451.642C134.332 452.175 134.39 452.762 134.277 453.327C134.165 453.893 133.887 454.413 133.479 454.821C133.071 455.229 132.552 455.507 131.986 455.619C131.42 455.732 130.834 455.674 130.301 455.453C129.768 455.232 129.312 454.859 128.992 454.379C128.671 453.899 128.5 453.335 128.5 452.758C128.5 451.985 128.807 451.243 129.354 450.696C129.901 450.149 130.643 449.842 131.417 449.842ZM131.417 496.508C130.84 496.508 130.276 496.337 129.796 496.017C129.317 495.696 128.943 495.241 128.722 494.708C128.501 494.175 128.444 493.589 128.556 493.023C128.669 492.457 128.946 491.937 129.354 491.529C129.762 491.122 130.282 490.844 130.848 490.731C131.414 490.619 132 490.676 132.533 490.897C133.066 491.118 133.521 491.492 133.842 491.971C134.162 492.451 134.333 493.015 134.333 493.592C134.333 494.365 134.026 495.107 133.479 495.654C132.932 496.201 132.19 496.508 131.417 496.508ZM160.583 467.342C160.007 467.342 159.443 467.171 158.963 466.85C158.483 466.53 158.11 466.074 157.889 465.541C157.668 465.008 157.61 464.422 157.723 463.856C157.835 463.29 158.113 462.771 158.521 462.363C158.929 461.955 159.449 461.677 160.014 461.565C160.58 461.452 161.167 461.51 161.7 461.73C162.233 461.951 162.688 462.325 163.009 462.805C163.329 463.284 163.5 463.848 163.5 464.425C163.5 465.199 163.193 465.941 162.646 466.488C162.099 467.035 161.357 467.342 160.583 467.342Z" fill="#9EEB5E"/>
<path d="M160.583 414.675C158.561 414.676 156.601 415.379 155.037 416.662C153.474 417.946 152.403 419.731 152.008 421.715C151.613 423.699 151.917 425.758 152.869 427.543C153.821 429.328 155.362 430.728 157.229 431.504C156.785 432.569 156.036 433.478 155.075 434.116C154.115 434.755 152.987 435.094 151.833 435.092H140.167C138.111 435.1 136.095 435.665 134.333 436.725V419.983C136.279 419.295 137.92 417.942 138.964 416.161C140.008 414.381 140.39 412.289 140.041 410.254C139.692 408.22 138.635 406.374 137.057 405.044C135.478 403.714 133.481 402.984 131.417 402.984C129.353 402.984 127.355 403.714 125.777 405.044C124.199 406.374 123.142 408.22 122.793 410.254C122.444 412.289 122.825 414.381 123.87 416.161C124.914 417.942 126.554 419.295 128.5 419.983V444.367C126.578 445.058 124.958 446.4 123.922 448.16C122.885 449.92 122.497 451.987 122.824 454.004C123.152 456.02 124.175 457.858 125.715 459.199C127.255 460.541 129.217 461.301 131.259 461.348C133.301 461.395 135.295 460.727 136.896 459.458C138.497 458.189 139.603 456.401 140.024 454.402C140.444 452.403 140.152 450.32 139.198 448.514C138.244 446.708 136.688 445.292 134.8 444.513C135.242 443.453 135.987 442.547 136.942 441.909C137.897 441.271 139.018 440.928 140.167 440.925H151.833C154.502 440.925 157.089 440.009 159.164 438.332C161.24 436.655 162.677 434.317 163.238 431.708C165.188 431.046 166.841 429.717 167.908 427.955C168.974 426.193 169.385 424.111 169.068 422.076C168.751 420.042 167.726 418.184 166.174 416.83C164.622 415.476 162.643 414.713 160.583 414.675ZM131.417 408.842C131.994 408.842 132.558 409.013 133.037 409.333C133.517 409.654 133.891 410.109 134.111 410.642C134.332 411.175 134.39 411.762 134.277 412.327C134.165 412.893 133.887 413.413 133.479 413.821C133.071 414.229 132.552 414.507 131.986 414.619C131.42 414.732 130.834 414.674 130.301 414.453C129.768 414.232 129.312 413.859 128.992 413.379C128.671 412.899 128.5 412.335 128.5 411.758C128.5 410.985 128.807 410.243 129.354 409.696C129.901 409.149 130.643 408.842 131.417 408.842ZM131.417 455.508C130.84 455.508 130.276 455.337 129.796 455.017C129.317 454.696 128.943 454.241 128.722 453.708C128.501 453.175 128.444 452.589 128.556 452.023C128.669 451.457 128.946 450.937 129.354 450.529C129.762 450.122 130.282 449.844 130.848 449.731C131.414 449.619 132 449.676 132.533 449.897C133.066 450.118 133.521 450.492 133.842 450.971C134.162 451.451 134.333 452.015 134.333 452.592C134.333 453.365 134.026 454.107 133.479 454.654C132.932 455.201 132.19 455.508 131.417 455.508ZM160.583 426.342C160.007 426.342 159.443 426.171 158.963 425.85C158.483 425.53 158.11 425.074 157.889 424.541C157.668 424.008 157.61 423.422 157.723 422.856C157.835 422.29 158.113 421.771 158.521 421.363C158.929 420.955 159.449 420.677 160.014 420.565C160.58 420.452 161.167 420.51 161.7 420.73C162.233 420.951 162.688 421.325 163.009 421.805C163.329 422.284 163.5 422.848 163.5 423.425C163.5 424.199 163.193 424.941 162.646 425.488C162.099 426.035 161.357 426.342 160.583 426.342Z" fill="#9EEB5E"/>
<path d="M160.583 372.675C158.561 372.676 156.601 373.379 155.037 374.662C153.474 375.946 152.403 377.731 152.008 379.715C151.613 381.699 151.917 383.758 152.869 385.543C153.821 387.328 155.362 388.728 157.229 389.504C156.785 390.569 156.036 391.478 155.075 392.116C154.115 392.755 152.987 393.094 151.833 393.092H140.167C138.111 393.1 136.095 393.665 134.333 394.725V377.983C136.279 377.295 137.92 375.942 138.964 374.161C140.008 372.381 140.39 370.289 140.041 368.254C139.692 366.22 138.635 364.374 137.057 363.044C135.478 361.714 133.481 360.984 131.417 360.984C129.353 360.984 127.355 361.714 125.777 363.044C124.199 364.374 123.142 366.22 122.793 368.254C122.444 370.289 122.825 372.381 123.87 374.161C124.914 375.942 126.554 377.295 128.5 377.983V402.367C126.578 403.058 124.958 404.4 123.922 406.16C122.885 407.92 122.497 409.987 122.824 412.004C123.152 414.02 124.175 415.858 125.715 417.199C127.255 418.541 129.217 419.301 131.259 419.348C133.301 419.395 135.295 418.727 136.896 417.458C138.497 416.189 139.603 414.401 140.024 412.402C140.444 410.403 140.152 408.32 139.198 406.514C138.244 404.708 136.688 403.292 134.8 402.513C135.242 401.453 135.987 400.547 136.942 399.909C137.897 399.271 139.018 398.928 140.167 398.925H151.833C154.502 398.925 157.089 398.009 159.164 396.332C161.24 394.655 162.677 392.317 163.238 389.708C165.188 389.046 166.841 387.717 167.908 385.955C168.974 384.193 169.385 382.111 169.068 380.076C168.751 378.042 167.726 376.184 166.174 374.83C164.622 373.476 162.643 372.713 160.583 372.675ZM131.417 366.842C131.994 366.842 132.558 367.013 133.037 367.333C133.517 367.654 133.891 368.109 134.111 368.642C134.332 369.175 134.39 369.762 134.277 370.327C134.165 370.893 133.887 371.413 133.479 371.821C133.071 372.229 132.552 372.507 131.986 372.619C131.42 372.732 130.834 372.674 130.301 372.453C129.768 372.232 129.312 371.859 128.992 371.379C128.671 370.899 128.5 370.335 128.5 369.758C128.5 368.985 128.807 368.243 129.354 367.696C129.901 367.149 130.643 366.842 131.417 366.842ZM131.417 413.508C130.84 413.508 130.276 413.337 129.796 413.017C129.317 412.696 128.943 412.241 128.722 411.708C128.501 411.175 128.444 410.589 128.556 410.023C128.669 409.457 128.946 408.937 129.354 408.529C129.762 408.122 130.282 407.844 130.848 407.731C131.414 407.619 132 407.676 132.533 407.897C133.066 408.118 133.521 408.492 133.842 408.971C134.162 409.451 134.333 410.015 134.333 410.592C134.333 411.365 134.026 412.107 133.479 412.654C132.932 413.201 132.19 413.508 131.417 413.508ZM160.583 384.342C160.007 384.342 159.443 384.171 158.963 383.85C158.483 383.53 158.11 383.074 157.889 382.541C157.668 382.008 157.61 381.422 157.723 380.856C157.835 380.29 158.113 379.771 158.521 379.363C158.929 378.955 159.449 378.677 160.014 378.565C160.58 378.452 161.167 378.51 161.7 378.73C162.233 378.951 162.688 379.325 163.009 379.805C163.329 380.284 163.5 380.848 163.5 381.425C163.5 382.199 163.193 382.941 162.646 383.488C162.099 384.035 161.357 384.342 160.583 384.342Z" fill="#9EEB5E"/>
<path d="M160.583 332.675C158.561 332.676 156.601 333.379 155.037 334.662C153.474 335.946 152.403 337.731 152.008 339.715C151.613 341.699 151.917 343.758 152.869 345.543C153.821 347.328 155.362 348.728 157.229 349.504C156.785 350.569 156.036 351.478 155.075 352.116C154.115 352.755 152.987 353.094 151.833 353.092H140.167C138.111 353.1 136.095 353.665 134.333 354.725V337.983C136.279 337.295 137.92 335.942 138.964 334.161C140.008 332.381 140.39 330.289 140.041 328.254C139.692 326.22 138.635 324.374 137.057 323.044C135.478 321.714 133.481 320.984 131.417 320.984C129.353 320.984 127.355 321.714 125.777 323.044C124.199 324.374 123.142 326.22 122.793 328.254C122.444 330.289 122.825 332.381 123.87 334.161C124.914 335.942 126.554 337.295 128.5 337.983V362.367C126.578 363.058 124.958 364.4 123.922 366.16C122.885 367.92 122.497 369.987 122.824 372.004C123.152 374.02 124.175 375.858 125.715 377.199C127.255 378.541 129.217 379.301 131.259 379.348C133.301 379.395 135.295 378.727 136.896 377.458C138.497 376.189 139.603 374.401 140.024 372.402C140.444 370.403 140.152 368.32 139.198 366.514C138.244 364.708 136.688 363.292 134.8 362.513C135.242 361.453 135.987 360.547 136.942 359.909C137.897 359.271 139.018 358.928 140.167 358.925H151.833C154.502 358.925 157.089 358.009 159.164 356.332C161.24 354.655 162.677 352.317 163.238 349.708C165.188 349.046 166.841 347.717 167.908 345.955C168.974 344.193 169.385 342.111 169.068 340.076C168.751 338.042 167.726 336.184 166.174 334.83C164.622 333.476 162.643 332.713 160.583 332.675ZM131.417 326.842C131.994 326.842 132.558 327.013 133.037 327.333C133.517 327.654 133.891 328.109 134.111 328.642C134.332 329.175 134.39 329.762 134.277 330.327C134.165 330.893 133.887 331.413 133.479 331.821C133.071 332.229 132.552 332.507 131.986 332.619C131.42 332.732 130.834 332.674 130.301 332.453C129.768 332.232 129.312 331.859 128.992 331.379C128.671 330.899 128.5 330.335 128.5 329.758C128.5 328.985 128.807 328.243 129.354 327.696C129.901 327.149 130.643 326.842 131.417 326.842ZM131.417 373.508C130.84 373.508 130.276 373.337 129.796 373.017C129.317 372.696 128.943 372.241 128.722 371.708C128.501 371.175 128.444 370.589 128.556 370.023C128.669 369.457 128.946 368.937 129.354 368.529C129.762 368.122 130.282 367.844 130.848 367.731C131.414 367.619 132 367.676 132.533 367.897C133.066 368.118 133.521 368.492 133.842 368.971C134.162 369.451 134.333 370.015 134.333 370.592C134.333 371.365 134.026 372.107 133.479 372.654C132.932 373.201 132.19 373.508 131.417 373.508ZM160.583 344.342C160.007 344.342 159.443 344.171 158.963 343.85C158.483 343.53 158.11 343.074 157.889 342.541C157.668 342.008 157.61 341.422 157.723 340.856C157.835 340.29 158.113 339.771 158.521 339.363C158.929 338.955 159.449 338.677 160.014 338.565C160.58 338.452 161.167 338.51 161.7 338.73C162.233 338.951 162.688 339.325 163.009 339.805C163.329 340.284 163.5 340.848 163.5 341.425C163.5 342.199 163.193 342.941 162.646 343.488C162.099 344.035 161.357 344.342 160.583 344.342Z" fill="#9EEB5E"/>
<g clip-path="url(#clip0_172_164)">
<path d="M205.003 362.933C203.245 361.931 201.195 361.569 199.201 361.909C197.207 362.248 195.392 363.268 194.065 364.795C192.738 366.322 191.981 368.261 191.923 370.283C191.865 372.305 192.509 374.285 193.746 375.885C192.833 376.589 191.731 377.007 190.58 377.085C189.43 377.164 188.282 376.899 187.281 376.325L177.149 370.541C175.36 369.529 173.329 369.02 171.274 369.067L179.574 354.528C181.605 354.896 183.701 354.533 185.491 353.505C187.28 352.476 188.649 350.849 189.354 348.909C190.06 346.969 190.057 344.842 189.346 342.904C188.635 340.967 187.262 339.343 185.469 338.319C183.677 337.296 181.58 336.939 179.55 337.312C177.52 337.685 175.687 338.764 174.375 340.357C173.064 341.951 172.358 343.957 172.382 346.021C172.406 348.085 173.159 350.074 174.508 351.636L162.419 372.812C160.407 372.459 158.335 372.821 156.562 373.836C154.79 374.85 153.427 376.453 152.712 378.367C151.997 380.28 151.974 382.383 152.647 384.312C153.319 386.241 154.646 387.873 156.396 388.927C158.146 389.98 160.209 390.388 162.228 390.08C164.248 389.772 166.095 388.767 167.452 387.24C168.808 385.712 169.587 383.759 169.654 381.717C169.721 379.675 169.071 377.675 167.818 376.062C168.727 375.361 169.824 374.943 170.969 374.863C172.114 374.782 173.258 375.041 174.257 375.607L184.389 381.391C186.707 382.714 189.407 383.202 192.041 382.774C194.675 382.347 197.082 381.029 198.863 379.041C200.884 379.433 202.98 379.098 204.779 378.097C206.579 377.096 207.968 375.492 208.702 373.567C209.435 371.643 209.466 369.521 208.79 367.576C208.113 365.631 206.772 363.987 205.003 362.933ZM182.565 343.406C183.066 343.692 183.471 344.121 183.729 344.637C183.986 345.153 184.085 345.734 184.013 346.306C183.94 346.878 183.7 347.416 183.321 347.852C182.943 348.287 182.444 348.601 181.888 348.753C181.331 348.905 180.742 348.889 180.195 348.706C179.648 348.523 179.167 348.182 178.814 347.726C178.46 347.27 178.25 346.72 178.21 346.144C178.169 345.569 178.3 344.994 178.586 344.493C178.97 343.822 179.604 343.33 180.351 343.126C181.097 342.922 181.893 343.023 182.565 343.406ZM159.428 383.934C158.927 383.648 158.522 383.219 158.265 382.703C158.007 382.187 157.908 381.606 157.981 381.034C158.053 380.462 158.294 379.924 158.672 379.488C159.05 379.053 159.549 378.739 160.106 378.587C160.662 378.435 161.251 378.451 161.798 378.634C162.345 378.817 162.826 379.158 163.179 379.614C163.533 380.07 163.743 380.62 163.784 381.196C163.824 381.771 163.693 382.346 163.407 382.847C163.024 383.519 162.389 384.01 161.643 384.214C160.897 384.418 160.1 384.317 159.428 383.934ZM199.218 373.065C198.717 372.779 198.312 372.351 198.055 371.834C197.797 371.318 197.698 370.737 197.771 370.165C197.843 369.593 198.084 369.055 198.462 368.619C198.84 368.184 199.339 367.87 199.896 367.718C200.452 367.566 201.041 367.583 201.588 367.765C202.136 367.948 202.616 368.289 202.97 368.745C203.323 369.201 203.533 369.752 203.574 370.327C203.614 370.902 203.483 371.477 203.197 371.978C202.814 372.65 202.179 373.142 201.433 373.345C200.687 373.549 199.89 373.448 199.218 373.065Z" fill="#9EEB5E"/>
</g>
<g clip-path="url(#clip1_172_164)">
<path d="M225.003 327.933C223.245 326.931 221.195 326.569 219.201 326.909C217.207 327.248 215.392 328.268 214.065 329.795C212.738 331.322 211.981 333.261 211.923 335.283C211.865 337.305 212.509 339.285 213.746 340.885C212.833 341.589 211.731 342.007 210.58 342.085C209.43 342.164 208.282 341.899 207.281 341.325L197.149 335.541C195.36 334.529 193.329 334.02 191.274 334.067L199.574 319.528C201.605 319.896 203.701 319.533 205.491 318.505C207.28 317.476 208.649 315.849 209.354 313.909C210.06 311.969 210.057 309.842 209.346 307.904C208.635 305.967 207.262 304.343 205.469 303.319C203.677 302.296 201.58 301.939 199.55 302.312C197.52 302.685 195.687 303.764 194.375 305.357C193.064 306.951 192.358 308.957 192.382 311.021C192.406 313.085 193.159 315.074 194.508 316.636L182.419 337.812C180.407 337.459 178.335 337.821 176.562 338.836C174.79 339.85 173.427 341.453 172.712 343.367C171.997 345.28 171.974 347.383 172.647 349.312C173.319 351.241 174.646 352.873 176.396 353.927C178.146 354.98 180.209 355.388 182.228 355.08C184.248 354.772 186.095 353.767 187.452 352.24C188.808 350.712 189.587 348.759 189.654 346.717C189.721 344.675 189.071 342.675 187.818 341.062C188.727 340.361 189.824 339.943 190.969 339.863C192.114 339.782 193.258 340.041 194.257 340.607L204.389 346.391C206.707 347.714 209.407 348.202 212.041 347.774C214.675 347.347 217.082 346.029 218.863 344.041C220.884 344.433 222.98 344.098 224.779 343.097C226.579 342.096 227.968 340.492 228.702 338.567C229.435 336.643 229.466 334.521 228.79 332.576C228.113 330.631 226.772 328.987 225.003 327.933ZM202.565 308.406C203.066 308.692 203.471 309.121 203.729 309.637C203.986 310.153 204.085 310.734 204.013 311.306C203.94 311.878 203.7 312.416 203.321 312.852C202.943 313.287 202.444 313.601 201.888 313.753C201.331 313.905 200.742 313.889 200.195 313.706C199.648 313.523 199.167 313.182 198.814 312.726C198.46 312.27 198.25 311.72 198.21 311.144C198.169 310.569 198.3 309.994 198.586 309.493C198.97 308.822 199.604 308.33 200.351 308.126C201.097 307.922 201.893 308.023 202.565 308.406ZM179.428 348.934C178.927 348.648 178.522 348.219 178.265 347.703C178.007 347.187 177.908 346.606 177.981 346.034C178.053 345.462 178.294 344.924 178.672 344.488C179.05 344.053 179.549 343.739 180.106 343.587C180.662 343.435 181.251 343.451 181.798 343.634C182.345 343.817 182.826 344.158 183.179 344.614C183.533 345.07 183.743 345.62 183.784 346.196C183.824 346.771 183.693 347.346 183.407 347.847C183.024 348.519 182.389 349.01 181.643 349.214C180.897 349.418 180.1 349.317 179.428 348.934ZM219.218 338.065C218.717 337.779 218.312 337.351 218.055 336.834C217.797 336.318 217.698 335.737 217.771 335.165C217.843 334.593 218.084 334.055 218.462 333.619C218.84 333.184 219.339 332.87 219.896 332.718C220.452 332.566 221.041 332.583 221.588 332.765C222.136 332.948 222.616 333.289 222.97 333.745C223.323 334.201 223.533 334.752 223.574 335.327C223.614 335.902 223.483 336.477 223.197 336.978C222.814 337.65 222.179 338.142 221.433 338.345C220.687 338.549 219.89 338.448 219.218 338.065Z" fill="#9EEB5E"/>
</g>
<path d="M230.886 272.962C228.863 272.952 226.899 273.642 225.328 274.917C223.758 276.191 222.677 277.971 222.27 279.952C221.863 281.933 222.155 283.995 223.097 285.785C224.038 287.575 225.571 288.984 227.434 289.772C226.984 290.833 226.229 291.738 225.265 292.371C224.301 293.004 223.171 293.337 222.018 293.328L210.351 293.26C208.295 293.257 206.276 293.809 204.509 294.86L204.606 278.118C206.556 277.441 208.204 276.097 209.258 274.323C210.313 272.549 210.706 270.459 210.369 268.422C210.032 266.386 208.986 264.534 207.415 263.195C205.845 261.855 203.852 261.114 201.787 261.102C199.723 261.09 197.722 261.808 196.136 263.129C194.55 264.451 193.482 266.29 193.121 268.322C192.761 270.355 193.13 272.449 194.164 274.235C195.198 276.022 196.83 277.385 198.772 278.084L198.631 302.467C196.705 303.147 195.077 304.48 194.031 306.234C192.984 307.988 192.584 310.053 192.9 312.071C193.215 314.089 194.227 315.933 195.76 317.283C197.293 318.634 199.249 319.405 201.291 319.464C203.333 319.523 205.331 318.866 206.939 317.607C208.547 316.348 209.664 314.565 210.096 312.569C210.528 310.572 210.248 308.488 209.305 306.676C208.361 304.864 206.814 303.44 204.93 302.65C205.378 301.592 206.129 300.691 207.087 300.058C208.045 299.426 209.169 299.09 210.317 299.093L221.984 299.161C224.652 299.176 227.245 298.276 229.33 296.611C231.415 294.945 232.866 292.616 233.441 290.011C235.395 289.359 237.057 288.04 238.133 286.284C239.21 284.528 239.633 282.449 239.328 280.412C239.022 278.376 238.008 276.512 236.464 275.149C234.92 273.786 232.945 273.012 230.886 272.962ZM201.754 266.96C202.33 266.963 202.893 267.137 203.371 267.461C203.849 267.784 204.22 268.242 204.438 268.776C204.655 269.31 204.71 269.897 204.594 270.462C204.478 271.027 204.197 271.545 203.787 271.951C203.377 272.356 202.855 272.631 202.289 272.74C201.723 272.85 201.137 272.788 200.605 272.565C200.073 272.341 199.62 271.964 199.302 271.483C198.984 271.001 198.817 270.436 198.82 269.86C198.824 269.086 199.136 268.346 199.686 267.802C200.236 267.258 200.98 266.955 201.754 266.96ZM201.483 313.626C200.906 313.622 200.343 313.448 199.866 313.125C199.388 312.801 199.017 312.344 198.799 311.81C198.581 311.275 198.527 310.689 198.643 310.123C198.758 309.558 199.039 309.04 199.45 308.635C199.86 308.229 200.381 307.954 200.948 307.845C201.514 307.736 202.1 307.797 202.632 308.021C203.163 308.245 203.617 308.621 203.934 309.103C204.252 309.584 204.42 310.149 204.417 310.726C204.412 311.5 204.1 312.24 203.55 312.783C203 313.327 202.257 313.63 201.483 313.626ZM230.818 284.629C230.241 284.625 229.679 284.451 229.201 284.128C228.723 283.804 228.352 283.347 228.134 282.812C227.916 282.278 227.862 281.691 227.978 281.126C228.094 280.561 228.375 280.043 228.785 279.638C229.195 279.232 229.716 278.957 230.283 278.848C230.849 278.739 231.435 278.8 231.967 279.024C232.499 279.248 232.952 279.624 233.27 280.106C233.587 280.587 233.755 281.152 233.752 281.729C233.747 282.502 233.436 283.242 232.886 283.786C232.335 284.33 231.592 284.633 230.818 284.629Z" fill="#9EEB5E"/>
<g clip-path="url(#clip2_172_164)">
<path d="M142.503 283.4C140.652 284.216 139.141 285.648 138.226 287.452C137.312 289.256 137.051 291.322 137.488 293.297C137.925 295.272 139.033 297.034 140.623 298.285C142.213 299.535 144.187 300.196 146.209 300.155C146.231 301.308 145.911 302.442 145.289 303.413C144.667 304.384 143.771 305.149 142.715 305.612L132.036 310.309C130.157 311.145 128.539 312.473 127.354 314.153L120.612 298.829C122.117 297.415 123.073 295.516 123.312 293.466C123.551 291.415 123.058 289.347 121.919 287.625C120.781 285.903 119.07 284.64 117.09 284.057C115.109 283.475 112.987 283.611 111.098 284.443C109.208 285.274 107.674 286.746 106.765 288.599C105.856 290.452 105.632 292.567 106.131 294.57C106.631 296.573 107.822 298.334 109.495 299.543C111.168 300.753 113.215 301.331 115.273 301.178L125.091 323.497C123.61 324.904 122.668 326.784 122.428 328.813C122.187 330.841 122.664 332.89 123.776 334.603C124.888 336.317 126.564 337.588 128.514 338.195C130.464 338.803 132.566 338.709 134.454 337.93C136.342 337.151 137.898 335.736 138.853 333.93C139.807 332.124 140.1 330.041 139.68 328.042C139.26 326.043 138.154 324.254 136.553 322.985C134.953 321.716 132.959 321.047 130.916 321.094C130.894 319.945 131.212 318.816 131.829 317.848C132.446 316.879 133.335 316.114 134.384 315.649L145.063 310.951C147.506 309.876 149.506 307.997 150.73 305.626C151.954 303.255 152.329 300.536 151.791 297.923C153.309 296.531 154.288 294.648 154.555 292.606C154.821 290.564 154.359 288.493 153.25 286.758C152.14 285.023 150.454 283.735 148.488 283.121C146.523 282.507 144.403 282.606 142.503 283.4ZM113.456 289.805C113.984 289.572 114.57 289.502 115.138 289.602C115.706 289.702 116.231 289.969 116.648 290.368C117.065 290.767 117.354 291.28 117.478 291.843C117.603 292.407 117.558 292.994 117.349 293.532C117.14 294.069 116.776 294.533 116.304 294.864C115.831 295.195 115.271 295.378 114.694 295.39C114.117 295.403 113.55 295.244 113.063 294.934C112.577 294.624 112.193 294.177 111.961 293.649C111.65 292.941 111.632 292.138 111.913 291.417C112.193 290.696 112.748 290.116 113.456 289.805ZM132.247 332.521C131.719 332.753 131.134 332.824 130.566 332.724C129.998 332.623 129.472 332.357 129.056 331.958C128.639 331.559 128.35 331.045 128.225 330.482C128.1 329.919 128.145 329.331 128.354 328.794C128.564 328.256 128.927 327.793 129.4 327.462C129.873 327.131 130.433 326.948 131.009 326.935C131.586 326.923 132.154 327.081 132.64 327.391C133.127 327.701 133.51 328.149 133.742 328.677C134.054 329.385 134.071 330.188 133.791 330.909C133.511 331.63 132.955 332.21 132.247 332.521ZM147.201 294.079C146.673 294.311 146.088 294.382 145.52 294.282C144.951 294.181 144.426 293.915 144.009 293.516C143.592 293.117 143.303 292.604 143.179 292.04C143.054 291.477 143.099 290.89 143.308 290.352C143.517 289.814 143.881 289.351 144.354 289.02C144.826 288.689 145.386 288.506 145.963 288.493C146.54 288.481 147.107 288.64 147.594 288.95C148.08 289.26 148.464 289.707 148.696 290.235C149.008 290.943 149.025 291.746 148.745 292.467C148.464 293.188 147.909 293.768 147.201 294.079Z" fill="#9EEB5E"/>
</g>
<g clip-path="url(#clip3_172_164)">
<path d="M205.003 445.933C203.245 444.931 201.195 444.569 199.201 444.909C197.207 445.248 195.392 446.268 194.065 447.795C192.738 449.322 191.981 451.261 191.923 453.283C191.865 455.305 192.509 457.285 193.746 458.885C192.833 459.589 191.731 460.007 190.58 460.085C189.43 460.164 188.282 459.899 187.281 459.325L177.149 453.541C175.36 452.529 173.329 452.02 171.274 452.067L179.574 437.528C181.605 437.896 183.701 437.533 185.491 436.505C187.28 435.476 188.649 433.849 189.354 431.909C190.06 429.969 190.057 427.842 189.346 425.904C188.635 423.967 187.262 422.343 185.469 421.319C183.677 420.296 181.58 419.939 179.55 420.312C177.52 420.685 175.687 421.764 174.375 423.357C173.064 424.951 172.358 426.957 172.382 429.021C172.406 431.085 173.159 433.074 174.508 434.636L162.419 455.812C160.407 455.459 158.335 455.821 156.562 456.836C154.79 457.85 153.427 459.453 152.712 461.367C151.997 463.28 151.974 465.383 152.647 467.312C153.319 469.241 154.646 470.873 156.396 471.927C158.146 472.98 160.209 473.388 162.228 473.08C164.248 472.772 166.095 471.767 167.452 470.24C168.808 468.712 169.587 466.759 169.654 464.717C169.721 462.675 169.071 460.675 167.818 459.062C168.727 458.361 169.824 457.943 170.969 457.863C172.114 457.782 173.258 458.041 174.257 458.607L184.389 464.391C186.707 465.714 189.407 466.202 192.041 465.774C194.675 465.347 197.082 464.029 198.863 462.041C200.884 462.433 202.98 462.098 204.779 461.097C206.579 460.096 207.968 458.492 208.702 456.567C209.435 454.643 209.466 452.521 208.79 450.576C208.113 448.631 206.772 446.987 205.003 445.933ZM182.565 426.406C183.066 426.692 183.471 427.121 183.729 427.637C183.986 428.153 184.085 428.734 184.013 429.306C183.94 429.878 183.7 430.416 183.321 430.852C182.943 431.287 182.444 431.601 181.888 431.753C181.331 431.905 180.742 431.889 180.195 431.706C179.648 431.523 179.167 431.182 178.814 430.726C178.46 430.27 178.25 429.72 178.21 429.144C178.169 428.569 178.3 427.994 178.586 427.493C178.97 426.822 179.604 426.33 180.351 426.126C181.097 425.922 181.893 426.023 182.565 426.406ZM159.428 466.934C158.927 466.648 158.522 466.219 158.265 465.703C158.007 465.187 157.908 464.606 157.981 464.034C158.053 463.462 158.294 462.924 158.672 462.488C159.05 462.053 159.549 461.739 160.106 461.587C160.662 461.435 161.251 461.451 161.798 461.634C162.345 461.817 162.826 462.158 163.179 462.614C163.533 463.07 163.743 463.62 163.784 464.196C163.824 464.771 163.693 465.346 163.407 465.847C163.024 466.519 162.389 467.01 161.643 467.214C160.897 467.418 160.1 467.317 159.428 466.934ZM199.218 456.065C198.717 455.779 198.312 455.351 198.055 454.834C197.797 454.318 197.698 453.737 197.771 453.165C197.843 452.593 198.084 452.055 198.462 451.619C198.84 451.184 199.339 450.87 199.896 450.718C200.452 450.566 201.041 450.583 201.588 450.765C202.136 450.948 202.616 451.289 202.97 451.745C203.323 452.201 203.533 452.752 203.574 453.327C203.614 453.902 203.483 454.477 203.197 454.978C202.814 455.65 202.179 456.142 201.433 456.345C200.687 456.549 199.89 456.448 199.218 456.065Z" fill="#9EEB5E"/>
</g>
<g clip-path="url(#clip4_172_164)">
<path d="M245.003 434.933C243.245 433.931 241.195 433.569 239.201 433.909C237.207 434.248 235.392 435.268 234.065 436.795C232.738 438.322 231.981 440.261 231.923 442.283C231.865 444.305 232.509 446.285 233.746 447.885C232.833 448.589 231.731 449.007 230.58 449.085C229.43 449.164 228.282 448.899 227.281 448.325L217.149 442.541C215.36 441.529 213.329 441.02 211.274 441.067L219.574 426.528C221.605 426.896 223.701 426.533 225.491 425.505C227.28 424.476 228.649 422.849 229.354 420.909C230.06 418.969 230.057 416.842 229.346 414.904C228.635 412.967 227.262 411.343 225.469 410.319C223.677 409.296 221.58 408.939 219.55 409.312C217.52 409.685 215.687 410.764 214.375 412.357C213.064 413.951 212.358 415.957 212.382 418.021C212.406 420.085 213.159 422.074 214.508 423.636L202.419 444.812C200.407 444.459 198.335 444.821 196.562 445.836C194.79 446.85 193.427 448.453 192.712 450.367C191.997 452.28 191.974 454.383 192.647 456.312C193.319 458.241 194.646 459.873 196.396 460.927C198.146 461.98 200.209 462.388 202.228 462.08C204.248 461.772 206.095 460.767 207.452 459.24C208.808 457.712 209.587 455.759 209.654 453.717C209.721 451.675 209.071 449.675 207.818 448.062C208.727 447.361 209.824 446.943 210.969 446.863C212.114 446.782 213.258 447.041 214.257 447.607L224.389 453.391C226.707 454.714 229.407 455.202 232.041 454.774C234.675 454.347 237.082 453.029 238.863 451.041C240.884 451.433 242.98 451.098 244.779 450.097C246.579 449.096 247.968 447.492 248.702 445.567C249.435 443.643 249.466 441.521 248.79 439.576C248.113 437.631 246.772 435.987 245.003 434.933ZM222.565 415.406C223.066 415.692 223.471 416.121 223.729 416.637C223.986 417.153 224.085 417.734 224.013 418.306C223.94 418.878 223.7 419.416 223.321 419.852C222.943 420.287 222.444 420.601 221.888 420.753C221.331 420.905 220.742 420.889 220.195 420.706C219.648 420.523 219.167 420.182 218.814 419.726C218.46 419.27 218.25 418.72 218.21 418.144C218.169 417.569 218.3 416.994 218.586 416.493C218.97 415.822 219.604 415.33 220.351 415.126C221.097 414.922 221.893 415.023 222.565 415.406ZM199.428 455.934C198.927 455.648 198.522 455.219 198.265 454.703C198.007 454.187 197.908 453.606 197.981 453.034C198.053 452.462 198.294 451.924 198.672 451.488C199.05 451.053 199.549 450.739 200.106 450.587C200.662 450.435 201.251 450.451 201.798 450.634C202.345 450.817 202.826 451.158 203.179 451.614C203.533 452.07 203.743 452.62 203.784 453.196C203.824 453.771 203.693 454.346 203.407 454.847C203.024 455.519 202.389 456.01 201.643 456.214C200.897 456.418 200.1 456.317 199.428 455.934ZM239.218 445.065C238.717 444.779 238.312 444.351 238.055 443.834C237.797 443.318 237.698 442.737 237.771 442.165C237.843 441.593 238.084 441.055 238.462 440.619C238.84 440.184 239.339 439.87 239.896 439.718C240.452 439.566 241.041 439.583 241.588 439.765C242.136 439.948 242.616 440.289 242.97 440.745C243.323 441.201 243.533 441.752 243.574 442.327C243.614 442.902 243.483 443.477 243.197 443.978C242.814 444.65 242.179 445.142 241.433 445.345C240.687 445.549 239.89 445.448 239.218 445.065Z" fill="#9EEB5E"/>
</g>
<g clip-path="url(#clip5_172_164)">
<path d="M176.003 515.933C174.245 514.931 172.195 514.569 170.201 514.909C168.207 515.248 166.392 516.268 165.065 517.795C163.738 519.322 162.981 521.261 162.923 523.283C162.865 525.305 163.509 527.285 164.746 528.885C163.833 529.589 162.731 530.007 161.58 530.085C160.43 530.164 159.282 529.899 158.281 529.325L148.149 523.541C146.36 522.529 144.329 522.02 142.274 522.067L150.574 507.528C152.605 507.896 154.701 507.533 156.491 506.505C158.28 505.476 159.649 503.849 160.354 501.909C161.06 499.969 161.057 497.842 160.346 495.904C159.635 493.967 158.262 492.343 156.469 491.319C154.677 490.296 152.58 489.939 150.55 490.312C148.52 490.685 146.687 491.764 145.375 493.357C144.064 494.951 143.358 496.957 143.382 499.021C143.406 501.085 144.159 503.074 145.508 504.636L133.419 525.812C131.407 525.459 129.335 525.821 127.562 526.836C125.79 527.85 124.427 529.453 123.712 531.367C122.997 533.28 122.974 535.383 123.647 537.312C124.319 539.241 125.646 540.873 127.396 541.927C129.146 542.98 131.209 543.388 133.228 543.08C135.248 542.772 137.095 541.767 138.452 540.24C139.808 538.712 140.587 536.759 140.654 534.717C140.721 532.675 140.071 530.675 138.818 529.062C139.727 528.361 140.824 527.943 141.969 527.863C143.114 527.782 144.258 528.041 145.257 528.607L155.389 534.391C157.707 535.714 160.407 536.202 163.041 535.774C165.675 535.347 168.082 534.029 169.863 532.041C171.884 532.433 173.98 532.098 175.779 531.097C177.579 530.096 178.968 528.492 179.702 526.567C180.435 524.643 180.466 522.521 179.79 520.576C179.113 518.631 177.772 516.987 176.003 515.933ZM153.565 496.406C154.066 496.692 154.471 497.121 154.729 497.637C154.986 498.153 155.085 498.734 155.013 499.306C154.94 499.878 154.7 500.416 154.321 500.852C153.943 501.287 153.444 501.601 152.888 501.753C152.331 501.905 151.742 501.889 151.195 501.706C150.648 501.523 150.167 501.182 149.814 500.726C149.46 500.27 149.25 499.72 149.21 499.144C149.169 498.569 149.3 497.994 149.586 497.493C149.97 496.822 150.604 496.33 151.351 496.126C152.097 495.922 152.893 496.023 153.565 496.406ZM130.428 536.934C129.927 536.648 129.522 536.219 129.265 535.703C129.007 535.187 128.908 534.606 128.981 534.034C129.053 533.462 129.294 532.924 129.672 532.488C130.05 532.053 130.549 531.739 131.106 531.587C131.662 531.435 132.251 531.451 132.798 531.634C133.345 531.817 133.826 532.158 134.179 532.614C134.533 533.07 134.743 533.62 134.784 534.196C134.824 534.771 134.693 535.346 134.407 535.847C134.024 536.519 133.389 537.01 132.643 537.214C131.897 537.418 131.1 537.317 130.428 536.934ZM170.218 526.065C169.717 525.779 169.312 525.351 169.055 524.834C168.797 524.318 168.698 523.737 168.771 523.165C168.843 522.593 169.084 522.055 169.462 521.619C169.84 521.184 170.339 520.87 170.896 520.718C171.452 520.566 172.041 520.583 172.588 520.765C173.136 520.948 173.616 521.289 173.97 521.745C174.323 522.201 174.533 522.752 174.574 523.327C174.614 523.902 174.483 524.477 174.197 524.978C173.814 525.65 173.179 526.142 172.433 526.345C171.687 526.549 170.89 526.448 170.218 526.065Z" fill="#9EEB5E"/>
</g>
<g clip-path="url(#clip6_172_164)">
<path d="M92.9368 435.004C91.6067 436.528 90.8458 438.466 90.7834 440.488C90.721 442.51 91.3611 444.491 92.5946 446.094C93.8282 447.697 95.5791 448.823 97.5495 449.281C99.5198 449.739 101.588 449.499 103.402 448.604C103.911 449.639 104.102 450.801 103.951 451.945C103.8 453.088 103.313 454.161 102.552 455.028L94.8753 463.813C93.5288 465.367 92.6274 467.256 92.2666 469.28L79.6604 458.263C80.4229 456.345 80.4828 454.219 79.8294 452.261C79.1761 450.303 77.8516 448.639 76.0901 447.564C74.3285 446.488 72.2434 446.069 70.2031 446.382C68.1629 446.695 66.2989 447.719 64.9407 449.273C63.5824 450.827 62.8174 452.812 62.7807 454.876C62.744 456.939 63.4381 458.95 64.7403 460.551C66.0424 462.153 67.8688 463.242 69.8967 463.627C71.9245 464.012 74.0232 463.668 75.8219 462.656L94.1822 478.701C93.4378 480.603 93.3825 482.706 94.0256 484.644C94.6688 486.583 95.97 488.236 97.7037 489.316C99.4374 490.396 101.494 490.836 103.518 490.558C105.542 490.281 107.405 489.305 108.784 487.798C110.164 486.291 110.972 484.35 111.07 482.31C111.169 480.269 110.55 478.259 109.321 476.627C108.093 474.995 106.332 473.844 104.344 473.374C102.357 472.904 100.267 473.144 98.4376 474.053C97.9305 473.023 97.7388 471.866 97.8864 470.727C98.0341 469.588 98.5146 468.518 99.2677 467.651L106.945 458.866C108.7 456.857 109.714 454.306 109.816 451.64C109.919 448.974 109.105 446.353 107.509 444.214C108.293 442.31 108.381 440.19 107.756 438.228C107.131 436.265 105.834 434.586 104.093 433.486C102.352 432.385 100.279 431.935 98.2383 432.212C96.1976 432.49 94.3203 433.479 92.9368 435.004ZM69.3516 453.128C69.7312 452.694 70.2311 452.381 70.788 452.231C71.345 452.081 71.934 452.099 72.4806 452.284C73.0271 452.468 73.5067 452.811 73.8587 453.268C74.2106 453.725 74.4192 454.276 74.4579 454.851C74.4966 455.427 74.3638 456.001 74.0763 456.501C73.7887 457.001 73.3593 457.405 72.8424 457.661C72.3255 457.917 71.7442 458.014 71.1722 457.94C70.6001 457.865 70.0629 457.623 69.6286 457.243C69.0461 456.734 68.6897 456.015 68.6377 455.243C68.5858 454.471 68.8426 453.71 69.3516 453.128ZM104.491 483.836C104.111 484.271 103.611 484.583 103.055 484.733C102.498 484.883 101.909 484.865 101.362 484.681C100.815 484.496 100.336 484.154 99.9839 483.697C99.6319 483.24 99.4234 482.688 99.3847 482.113C99.3459 481.537 99.4787 480.963 99.7663 480.463C100.054 479.963 100.483 479.559 101 479.303C101.517 479.047 102.098 478.95 102.67 479.025C103.242 479.099 103.78 479.341 104.214 479.721C104.796 480.23 105.153 480.949 105.205 481.721C105.257 482.493 105 483.254 104.491 483.836ZM101.722 442.681C101.342 443.116 100.842 443.428 100.285 443.578C99.7282 443.728 99.1392 443.71 98.5927 443.526C98.0461 443.341 97.5665 442.999 97.2145 442.542C96.8626 442.085 96.654 441.534 96.6153 440.958C96.5766 440.382 96.7094 439.808 96.997 439.308C97.2845 438.808 97.7139 438.405 98.2308 438.149C98.7478 437.893 99.329 437.796 99.9011 437.87C100.473 437.944 101.01 438.186 101.445 438.566C102.027 439.075 102.384 439.795 102.435 440.566C102.487 441.338 102.231 442.099 101.722 442.681Z" fill="#9EEB5E"/>
</g>
<path d="M66.8534 531.854C66.6816 533.87 67.2135 535.882 68.3584 537.55C69.5034 539.218 71.1907 540.437 73.1334 541.001C75.0761 541.564 77.154 541.438 79.0137 540.642C80.8734 539.846 82.4 538.431 83.3338 536.636C84.3563 537.17 85.1977 537.994 85.7517 539.006C86.3057 540.017 86.5474 541.171 86.4463 542.319L85.4479 553.943C85.2806 555.993 85.6704 558.049 86.5761 559.895L69.8958 558.462C69.3769 556.464 68.1684 554.714 66.4839 553.522C64.7994 552.329 62.7475 551.77 60.6907 551.943C58.634 552.117 56.7048 553.012 55.2442 554.471C53.7836 555.929 52.8857 557.857 52.709 559.913C52.5324 561.97 53.0884 564.023 54.2789 565.709C55.4694 567.395 57.2176 568.606 59.2147 569.128C61.2117 569.65 63.3289 569.449 65.1921 568.561C67.0553 567.672 68.5446 566.154 69.3966 564.274L93.6905 566.361C94.2147 568.335 95.4131 570.064 97.078 571.247C98.7429 572.431 100.769 572.994 102.806 572.84C104.843 572.687 106.762 571.825 108.23 570.405C109.699 568.985 110.624 567.096 110.846 565.066C111.068 563.035 110.572 560.991 109.445 559.287C108.318 557.584 106.63 556.328 104.675 555.738C102.719 555.148 100.619 555.261 98.7377 556.057C96.8565 556.853 95.3131 558.282 94.3749 560.096C93.3568 559.565 92.5182 558.745 91.964 557.74C91.4099 556.734 91.1649 555.587 91.2599 554.442L92.2583 542.819C92.4861 540.16 91.7957 537.504 90.3023 535.293C88.8089 533.081 86.6026 531.449 84.0514 530.668C83.5581 528.668 82.3753 526.906 80.7112 525.693C79.0471 524.48 77.0083 523.892 74.9537 524.034C72.8991 524.176 70.9603 525.038 69.4786 526.468C67.9969 527.899 67.0673 529.806 66.8534 531.854ZM58.5454 560.415C58.5948 559.84 58.8135 559.293 59.1738 558.842C59.5342 558.392 60.0201 558.058 60.5699 557.884C61.1198 557.71 61.7091 557.702 62.2631 557.863C62.8172 558.023 63.3112 558.345 63.6827 558.786C64.0542 559.227 64.2865 559.769 64.3502 560.342C64.4139 560.916 64.3062 561.495 64.0406 562.007C63.7751 562.519 63.3636 562.941 62.8583 563.219C62.353 563.497 61.7765 563.62 61.2018 563.57C60.4311 563.504 59.7182 563.134 59.2201 562.543C58.7219 561.951 58.4792 561.185 58.5454 560.415ZM105.041 564.408C104.992 564.983 104.773 565.53 104.412 565.981C104.052 566.431 103.566 566.765 103.016 566.939C102.467 567.113 101.877 567.121 101.323 566.96C100.769 566.8 100.275 566.478 99.9036 566.037C99.5321 565.596 99.2998 565.054 99.2361 564.481C99.1724 563.908 99.2801 563.328 99.5457 562.816C99.8112 562.304 100.223 561.882 100.728 561.604C101.233 561.326 101.81 561.203 102.385 561.253C103.155 561.319 103.868 561.689 104.366 562.28C104.864 562.872 105.107 563.638 105.041 564.408ZM78.4773 532.853C78.4279 533.427 78.2092 533.975 77.8488 534.425C77.4885 534.876 77.0026 535.209 76.4527 535.383C75.9029 535.558 75.3136 535.565 74.7596 535.405C74.2055 535.244 73.7115 534.923 73.34 534.481C72.9685 534.04 72.7362 533.499 72.6725 532.925C72.6088 532.352 72.7165 531.773 72.982 531.26C73.2476 530.748 73.659 530.326 74.1644 530.048C74.6697 529.77 75.2461 529.648 75.8209 529.697C76.5916 529.763 77.3044 530.133 77.8026 530.725C78.3008 531.317 78.5435 532.082 78.4773 532.853Z" fill="#9EEB5E"/>
<path d="M25.8534 528.854C25.6816 530.87 26.2135 532.882 27.3584 534.55C28.5034 536.218 30.1907 537.437 32.1334 538.001C34.0761 538.564 36.154 538.438 38.0137 537.642C39.8734 536.846 41.4 535.431 42.3338 533.636C43.3563 534.17 44.1977 534.994 44.7517 536.006C45.3057 537.017 45.5474 538.171 45.4463 539.319L44.4479 550.943C44.2806 552.993 44.6704 555.049 45.5761 556.895L28.8958 555.462C28.3769 553.464 27.1684 551.714 25.4839 550.522C23.7994 549.329 21.7475 548.77 19.6907 548.943C17.634 549.117 15.7048 550.012 14.2442 551.471C12.7836 552.929 11.8857 554.857 11.709 556.913C11.5324 558.97 12.0884 561.023 13.2789 562.709C14.4694 564.395 16.2176 565.606 18.2147 566.128C20.2117 566.65 22.3289 566.449 24.1921 565.561C26.0553 564.672 27.5446 563.154 28.3966 561.274L52.6905 563.361C53.2147 565.335 54.4131 567.064 56.078 568.247C57.7429 569.431 59.7694 569.994 61.8062 569.84C63.843 569.687 65.7619 568.825 67.2302 567.405C68.6986 565.985 69.6238 564.096 69.8457 562.066C70.0675 560.035 69.572 557.991 68.4449 556.287C67.3179 554.584 65.6303 553.328 63.6748 552.738C61.7192 552.148 59.6188 552.261 57.7377 553.057C55.8565 553.853 54.3131 555.282 53.3749 557.096C52.3568 556.565 51.5182 555.745 50.964 554.74C50.4099 553.734 50.1649 552.587 50.2599 551.442L51.2583 539.819C51.4861 537.16 50.7957 534.504 49.3023 532.293C47.8089 530.081 45.6026 528.449 43.0514 527.668C42.5581 525.668 41.3753 523.906 39.7112 522.693C38.0471 521.48 36.0083 520.892 33.9537 521.034C31.8991 521.176 29.9603 522.038 28.4786 523.468C26.9969 524.899 26.0673 526.806 25.8534 528.854ZM17.5454 557.415C17.5948 556.84 17.8135 556.293 18.1738 555.842C18.5342 555.392 19.0201 555.058 19.5699 554.884C20.1198 554.71 20.7091 554.702 21.2631 554.863C21.8172 555.023 22.3112 555.345 22.6827 555.786C23.0542 556.227 23.2865 556.769 23.3502 557.342C23.4139 557.916 23.3062 558.495 23.0406 559.007C22.7751 559.519 22.3636 559.941 21.8583 560.219C21.353 560.497 20.7765 560.62 20.2018 560.57C19.4311 560.504 18.7182 560.134 18.2201 559.543C17.7219 558.951 17.4792 558.185 17.5454 557.415ZM64.0409 561.408C63.9915 561.983 63.7728 562.53 63.4125 562.981C63.0521 563.431 62.5663 563.765 62.0164 563.939C61.4665 564.113 60.8773 564.121 60.3232 563.96C59.7691 563.8 59.2751 563.478 58.9036 563.037C58.5321 562.596 58.2998 562.054 58.2361 561.481C58.1724 560.908 58.2801 560.328 58.5457 559.816C58.8112 559.304 59.2227 558.882 59.728 558.604C60.2333 558.326 60.8098 558.203 61.3845 558.253C62.1552 558.319 62.8681 558.689 63.3663 559.28C63.8644 559.872 64.1071 560.638 64.0409 561.408ZM37.4773 529.853C37.4279 530.427 37.2092 530.975 36.8488 531.425C36.4885 531.876 36.0026 532.209 35.4527 532.383C34.9029 532.558 34.3136 532.565 33.7596 532.405C33.2055 532.244 32.7115 531.923 32.34 531.481C31.9685 531.04 31.7362 530.499 31.6725 529.925C31.6088 529.352 31.7165 528.773 31.982 528.26C32.2476 527.748 32.659 527.326 33.1644 527.048C33.6697 526.77 34.2461 526.648 34.8209 526.697C35.5916 526.763 36.3044 527.133 36.8026 527.725C37.3008 528.317 37.5435 529.082 37.4773 529.853Z" fill="#9EEB5E"/>
<g clip-path="url(#clip7_172_164)">
<path d="M52.488 485.429C50.537 485.963 48.8313 487.156 47.6611 488.806C46.4908 490.456 45.9284 492.46 46.0695 494.478C46.2106 496.496 47.0464 498.403 48.4348 499.874C49.8232 501.345 51.6784 502.29 53.6848 502.547C53.5368 503.691 53.0531 504.765 52.2947 505.634C51.5364 506.503 50.5375 507.127 49.4243 507.429L38.1696 510.502C36.1883 511.052 34.3926 512.127 32.9724 513.614L28.563 497.463C30.2591 496.287 31.4847 494.549 32.0233 492.556C32.5619 490.564 32.3788 488.445 31.5063 486.574C30.6337 484.704 29.128 483.202 27.2552 482.334C25.3824 481.466 23.2631 481.288 21.2719 481.832C19.2807 482.376 17.5458 483.606 16.3738 485.305C15.2018 487.004 14.6682 489.063 14.8673 491.117C15.0664 493.172 15.9854 495.09 17.4618 496.532C18.9382 497.974 20.8771 498.848 22.9356 499L29.3577 522.522C27.6856 523.695 26.4765 525.416 25.94 527.387C25.4036 529.358 25.5736 531.455 26.4206 533.313C27.2676 535.172 28.7382 536.676 30.5776 537.564C32.4169 538.453 34.5091 538.67 36.4916 538.177C38.474 537.685 40.2217 536.515 41.4319 534.869C42.6421 533.224 43.2384 531.207 43.1176 529.167C42.9967 527.128 42.1663 525.196 40.7702 523.705C39.3742 522.214 37.5004 521.258 35.4737 521.003C35.6211 519.865 36.1013 518.795 36.8542 517.927C37.607 517.06 38.5991 516.435 39.706 516.129L50.9607 513.056C53.5346 512.353 55.7897 510.789 57.3499 508.624C58.9102 506.46 59.6813 503.826 59.5347 501.161C61.2414 500.009 62.4867 498.291 63.0515 496.31C63.6163 494.33 63.4645 492.213 62.6226 490.334C61.7807 488.454 60.3028 486.932 58.4491 486.035C56.5953 485.137 54.4844 484.923 52.488 485.429ZM22.8148 487.483C23.3712 487.331 23.9603 487.348 24.5074 487.531C25.0545 487.713 25.5351 488.054 25.8885 488.51C26.2418 488.966 26.452 489.517 26.4924 490.092C26.5329 490.668 26.4018 491.242 26.1157 491.743C25.8297 492.244 25.4015 492.649 24.8853 492.907C24.3692 493.164 23.7882 493.263 23.2159 493.19C22.6437 493.118 22.1058 492.877 21.6702 492.499C21.2347 492.121 20.9212 491.622 20.7693 491.065C20.5655 490.319 20.6666 489.522 21.0502 488.85C21.4338 488.179 22.0685 487.687 22.8148 487.483ZM35.106 532.502C34.5495 532.654 33.9604 532.638 33.4133 532.455C32.8662 532.272 32.3856 531.931 32.0322 531.475C31.6789 531.019 31.4687 530.468 31.4283 529.893C31.3878 529.318 31.5189 528.743 31.805 528.242C32.0911 527.741 32.5192 527.336 33.0354 527.079C33.5516 526.821 34.1325 526.722 34.7048 526.795C35.2771 526.868 35.815 527.108 36.2505 527.486C36.686 527.865 36.9995 528.364 37.1514 528.92C37.3552 529.666 37.2541 530.463 36.8705 531.135C36.4869 531.807 35.8522 532.298 35.106 532.502ZM55.5608 496.683C55.0043 496.835 54.4152 496.819 53.8681 496.636C53.321 496.453 52.8404 496.112 52.4871 495.656C52.1337 495.2 51.9235 494.65 51.8831 494.074C51.8426 493.499 51.9737 492.924 52.2598 492.423C52.5459 491.922 52.9741 491.517 53.4902 491.26C54.0064 491.002 54.5873 490.904 55.1596 490.976C55.7319 491.049 56.2698 491.289 56.7053 491.668C57.1408 492.046 57.4543 492.545 57.6063 493.101C57.81 493.848 57.709 494.644 57.3254 495.316C56.9418 495.988 56.307 496.48 55.5608 496.683Z" fill="#9EEB5E"/>
</g>
<g clip-path="url(#clip8_172_164)">
<path d="M126.503 246.4C124.652 247.216 123.141 248.648 122.226 250.452C121.312 252.256 121.051 254.322 121.488 256.297C121.925 258.272 123.033 260.034 124.623 261.285C126.213 262.535 128.187 263.196 130.209 263.155C130.231 264.308 129.911 265.442 129.289 266.413C128.667 267.384 127.771 268.149 126.715 268.612L116.036 273.309C114.157 274.145 112.539 275.473 111.354 277.153L104.612 261.829C106.117 260.415 107.073 258.516 107.312 256.466C107.551 254.415 107.058 252.347 105.919 250.625C104.781 248.903 103.07 247.64 101.09 247.057C99.1094 246.475 96.9871 246.611 95.0977 247.443C93.2084 248.274 91.6736 249.746 90.7648 251.599C89.856 253.452 89.6315 255.567 90.1312 257.57C90.6309 259.573 91.8224 261.334 93.4953 262.543C95.1681 263.753 97.2146 264.331 99.2729 264.178L109.091 286.497C107.61 287.904 106.668 289.784 106.428 291.813C106.187 293.841 106.664 295.89 107.776 297.603C108.888 299.317 110.564 300.588 112.514 301.195C114.464 301.803 116.566 301.709 118.454 300.93C120.342 300.151 121.898 298.736 122.853 296.93C123.807 295.124 124.1 293.041 123.68 291.042C123.26 289.043 122.154 287.254 120.553 285.985C118.953 284.716 116.959 284.047 114.916 284.094C114.894 282.945 115.212 281.816 115.829 280.848C116.446 279.879 117.335 279.114 118.384 278.649L129.063 273.951C131.506 272.876 133.506 270.997 134.73 268.626C135.954 266.255 136.329 263.536 135.791 260.923C137.309 259.531 138.288 257.648 138.555 255.606C138.821 253.564 138.359 251.493 137.25 249.758C136.14 248.023 134.454 246.735 132.488 246.121C130.523 245.507 128.403 245.606 126.503 246.4ZM97.4564 252.805C97.9845 252.572 98.5695 252.502 99.1376 252.602C99.7057 252.702 100.231 252.969 100.648 253.368C101.065 253.767 101.354 254.28 101.478 254.843C101.603 255.407 101.558 255.994 101.349 256.532C101.14 257.069 100.776 257.533 100.304 257.864C99.831 258.195 99.2709 258.378 98.6942 258.39C98.1175 258.403 97.55 258.244 97.0635 257.934C96.577 257.624 96.1934 257.177 95.9611 256.649C95.6496 255.941 95.6322 255.138 95.9126 254.417C96.193 253.696 96.7484 253.116 97.4564 252.805ZM116.247 295.521C115.719 295.753 115.134 295.824 114.566 295.724C113.998 295.623 113.472 295.357 113.056 294.958C112.639 294.559 112.35 294.045 112.225 293.482C112.1 292.919 112.145 292.331 112.354 291.794C112.564 291.256 112.927 290.793 113.4 290.462C113.873 290.131 114.433 289.948 115.009 289.935C115.586 289.923 116.154 290.081 116.64 290.391C117.127 290.701 117.51 291.149 117.742 291.677C118.054 292.385 118.071 293.188 117.791 293.909C117.511 294.63 116.955 295.21 116.247 295.521ZM131.201 257.079C130.673 257.311 130.088 257.382 129.52 257.282C128.951 257.181 128.426 256.915 128.009 256.516C127.592 256.117 127.303 255.604 127.179 255.04C127.054 254.477 127.099 253.89 127.308 253.352C127.517 252.814 127.881 252.351 128.354 252.02C128.826 251.689 129.386 251.506 129.963 251.493C130.54 251.481 131.107 251.64 131.594 251.95C132.08 252.26 132.464 252.707 132.696 253.235C133.008 253.943 133.025 254.746 132.745 255.467C132.464 256.188 131.909 256.768 131.201 257.079Z" fill="#9EEB5E"/>
</g>
<g clip-path="url(#clip9_172_164)">
<path d="M109.503 208.4C107.652 209.216 106.141 210.648 105.226 212.452C104.312 214.256 104.051 216.322 104.488 218.297C104.925 220.272 106.033 222.034 107.623 223.285C109.213 224.535 111.187 225.196 113.209 225.155C113.231 226.308 112.911 227.442 112.289 228.413C111.667 229.384 110.771 230.149 109.715 230.612L99.0355 235.309C97.1569 236.145 95.5392 237.473 94.3536 239.153L87.6125 223.829C89.1168 222.415 90.0729 220.516 90.3121 218.466C90.5512 216.415 90.0578 214.347 88.9192 212.625C87.7805 210.903 86.0699 209.64 84.0897 209.057C82.1094 208.475 79.9871 208.611 78.0977 209.443C76.2084 210.274 74.6736 211.746 73.7648 213.599C72.856 215.452 72.6315 217.567 73.1312 219.57C73.6309 221.573 74.8224 223.334 76.4953 224.543C78.1681 225.753 80.2146 226.331 82.2729 226.178L92.0911 248.497C90.61 249.904 89.6677 251.784 89.4276 253.813C89.1874 255.841 89.6645 257.89 90.7761 259.603C91.8878 261.317 93.5639 262.588 95.5141 263.195C97.4643 263.803 99.5656 263.709 101.454 262.93C103.342 262.151 104.898 260.736 105.853 258.93C106.807 257.124 107.1 255.041 106.68 253.042C106.26 251.043 105.154 249.254 103.553 247.985C101.953 246.716 99.9586 246.047 97.9165 246.094C97.8944 244.945 98.2117 243.816 98.8286 242.848C99.4455 241.879 100.335 241.114 101.384 240.649L112.063 235.951C114.506 234.876 116.506 232.997 117.73 230.626C118.954 228.255 119.329 225.536 118.791 222.923C120.309 221.531 121.288 219.648 121.555 217.606C121.821 215.564 121.359 213.493 120.25 211.758C119.14 210.023 117.454 208.735 115.488 208.121C113.523 207.507 111.403 207.606 109.503 208.4ZM80.4564 214.805C80.9845 214.572 81.5695 214.502 82.1376 214.602C82.7057 214.702 83.2313 214.969 83.648 215.368C84.0646 215.767 84.3537 216.28 84.4785 216.843C84.6033 217.407 84.5582 217.994 84.3491 218.532C84.14 219.069 83.7761 219.533 83.3036 219.864C82.831 220.195 82.2709 220.378 81.6942 220.39C81.1175 220.403 80.55 220.244 80.0635 219.934C79.577 219.624 79.1934 219.177 78.9611 218.649C78.6496 217.941 78.6322 217.138 78.9126 216.417C79.193 215.696 79.7484 215.116 80.4564 214.805ZM99.2471 257.521C98.7191 257.753 98.134 257.824 97.5659 257.724C96.9979 257.623 96.4722 257.357 96.0556 256.958C95.6389 256.559 95.3499 256.045 95.2251 255.482C95.1003 254.919 95.1453 254.331 95.3544 253.794C95.5636 253.256 95.9274 252.793 96.4 252.462C96.8726 252.131 97.4326 251.948 98.0094 251.935C98.5861 251.923 99.1536 252.081 99.6401 252.391C100.127 252.701 100.51 253.149 100.742 253.677C101.054 254.385 101.071 255.188 100.791 255.909C100.511 256.63 99.9552 257.21 99.2471 257.521ZM114.201 219.079C113.673 219.311 113.088 219.382 112.52 219.282C111.951 219.181 111.426 218.915 111.009 218.516C110.592 218.117 110.303 217.604 110.179 217.04C110.054 216.477 110.099 215.89 110.308 215.352C110.517 214.814 110.881 214.351 111.354 214.02C111.826 213.689 112.386 213.506 112.963 213.493C113.54 213.481 114.107 213.64 114.594 213.95C115.08 214.26 115.464 214.707 115.696 215.235C116.008 215.943 116.025 216.746 115.745 217.467C115.464 218.188 114.909 218.768 114.201 219.079Z" fill="#9EEB5E"/>
</g>
<path d="M91.7867 343.305C91.9009 345.324 92.7113 347.242 94.08 348.731C95.4487 350.22 97.2911 351.19 99.2939 351.474C101.297 351.758 103.336 351.339 105.065 350.289C106.794 349.239 108.105 347.623 108.777 345.714C109.864 346.098 110.814 346.796 111.505 347.719C112.196 348.643 112.598 349.75 112.66 350.902L113.311 362.55C113.434 364.603 114.11 366.584 115.267 368.283L98.5514 369.217C97.7559 367.313 96.3126 365.751 94.4767 364.807C92.6409 363.864 90.5306 363.6 88.5189 364.062C86.5072 364.524 84.7235 365.682 83.4832 367.332C82.243 368.982 81.6259 371.017 81.741 373.078C81.8562 375.139 82.6962 377.093 84.1126 378.594C85.529 380.096 87.4306 381.048 89.4812 381.283C91.5319 381.518 93.5996 381.02 95.319 379.878C97.0383 378.736 98.2985 377.023 98.8769 375.042L123.222 373.681C124.02 375.562 125.45 377.104 127.265 378.041C129.08 378.978 131.166 379.25 133.161 378.81C135.155 378.371 136.934 377.247 138.187 375.634C139.44 374.022 140.09 372.021 140.023 369.979C139.956 367.938 139.178 365.984 137.822 364.456C136.465 362.929 134.618 361.924 132.599 361.616C130.579 361.307 128.516 361.715 126.766 362.768C125.016 363.822 123.689 365.454 123.016 367.383C121.933 367.001 120.988 366.307 120.297 365.39C119.607 364.472 119.202 363.371 119.135 362.225L118.484 350.576C118.335 347.912 117.276 345.38 115.486 343.401C113.696 341.423 111.281 340.118 108.645 339.704C107.875 337.794 106.456 336.217 104.637 335.25C102.818 334.284 100.717 333.99 98.7031 334.42C96.689 334.85 94.8912 335.977 93.626 337.602C92.3609 339.227 91.7096 341.246 91.7867 343.305ZM87.5898 372.751C87.5576 372.175 87.697 371.603 87.9902 371.106C88.2834 370.609 88.7174 370.21 89.2372 369.96C89.757 369.71 90.3393 369.62 90.9105 369.701C91.4816 369.781 92.016 370.03 92.4461 370.414C92.8761 370.799 93.1824 371.302 93.3264 371.861C93.4703 372.419 93.4453 373.008 93.2547 373.553C93.064 374.097 92.7162 374.573 92.2551 374.919C91.7941 375.266 91.2406 375.468 90.6647 375.501C89.8923 375.544 89.1345 375.278 88.5578 374.763C87.9812 374.247 87.633 373.524 87.5898 372.751ZM134.184 370.147C134.216 370.723 134.077 371.296 133.783 371.793C133.49 372.29 133.056 372.688 132.536 372.938C132.017 373.188 131.434 373.279 130.863 373.198C130.292 373.117 129.758 372.869 129.328 372.484C128.898 372.1 128.591 371.597 128.447 371.038C128.303 370.479 128.328 369.891 128.519 369.346C128.71 368.802 129.057 368.326 129.518 367.979C129.979 367.632 130.533 367.43 131.109 367.398C131.881 367.355 132.639 367.62 133.216 368.136C133.792 368.652 134.141 369.375 134.184 370.147ZM103.435 342.654C103.467 343.23 103.328 343.802 103.035 344.299C102.742 344.796 102.308 345.194 101.788 345.444C101.268 345.695 100.686 345.785 100.115 345.704C99.5434 345.623 99.009 345.375 98.5789 344.991C98.1489 344.606 97.8426 344.103 97.6986 343.544C97.5547 342.985 97.5797 342.397 97.7703 341.852C97.961 341.308 98.3088 340.832 98.7699 340.485C99.2309 340.139 99.7844 339.936 100.36 339.904C101.133 339.861 101.891 340.126 102.467 340.642C103.044 341.158 103.392 341.881 103.435 342.654Z" fill="#9EEB5E"/>
<g clip-path="url(#clip10_172_164)">
<path d="M240.393 242.295C238.453 241.723 236.375 241.84 234.511 242.627C232.648 243.414 231.115 244.822 230.173 246.612C229.231 248.402 228.938 250.463 229.344 252.445C229.75 254.427 230.831 256.206 232.401 257.481C231.673 258.376 230.697 259.034 229.595 259.374C228.493 259.714 227.314 259.719 226.209 259.39L215.022 256.079C213.048 255.504 210.955 255.473 208.965 255.99L213.716 239.937C215.777 239.829 217.734 238.996 219.241 237.586C220.747 236.175 221.707 234.277 221.949 232.227C222.192 230.177 221.702 228.108 220.567 226.384C219.431 224.66 217.722 223.394 215.743 222.808C213.764 222.222 211.641 222.355 209.751 223.183C207.86 224.011 206.323 225.481 205.411 227.332C204.499 229.184 204.271 231.299 204.767 233.302C205.263 235.306 206.452 237.069 208.122 238.281L201.203 261.662C199.164 261.78 197.23 262.607 195.736 264C194.243 265.394 193.284 267.266 193.026 269.292C192.768 271.319 193.227 273.371 194.323 275.095C195.42 276.818 197.085 278.104 199.03 278.728C200.974 279.353 203.076 279.278 204.971 278.516C206.866 277.753 208.435 276.352 209.406 274.555C210.376 272.757 210.687 270.677 210.285 268.674C209.882 266.672 208.792 264.873 207.203 263.59C207.927 262.699 208.899 262.042 209.995 261.701C211.092 261.36 212.265 261.35 213.367 261.673L224.554 264.983C227.113 265.74 229.853 265.597 232.319 264.577C234.785 263.558 236.827 261.724 238.105 259.382C240.163 259.3 242.126 258.495 243.648 257.108C245.171 255.721 246.156 253.842 246.429 251.8C246.702 249.759 246.247 247.687 245.143 245.948C244.039 244.21 242.357 242.916 240.393 242.295ZM214.081 228.425C214.634 228.589 215.126 228.913 215.495 229.356C215.864 229.8 216.093 230.343 216.154 230.916C216.214 231.49 216.103 232.069 215.835 232.579C215.566 233.09 215.152 233.51 214.646 233.785C214.139 234.06 213.561 234.179 212.987 234.127C212.413 234.074 211.867 233.852 211.418 233.489C210.97 233.126 210.639 232.639 210.468 232.088C210.297 231.537 210.293 230.948 210.456 230.394C210.676 229.653 211.181 229.028 211.861 228.659C212.54 228.29 213.339 228.206 214.081 228.425ZM200.838 273.174C200.285 273.01 199.793 272.686 199.424 272.242C199.055 271.799 198.826 271.256 198.765 270.682C198.705 270.109 198.816 269.53 199.084 269.019C199.353 268.509 199.767 268.089 200.274 267.814C200.78 267.539 201.358 267.42 201.932 267.472C202.506 267.525 203.052 267.747 203.501 268.11C203.949 268.473 204.28 268.96 204.451 269.511C204.622 270.062 204.626 270.651 204.463 271.204C204.243 271.946 203.738 272.57 203.058 272.94C202.379 273.309 201.58 273.393 200.838 273.174ZM237.083 253.483C236.529 253.319 236.037 252.995 235.668 252.551C235.299 252.108 235.07 251.565 235.01 250.991C234.949 250.418 235.06 249.839 235.329 249.328C235.597 248.818 236.011 248.398 236.518 248.123C237.025 247.848 237.602 247.729 238.176 247.781C238.751 247.834 239.297 248.056 239.745 248.419C240.194 248.782 240.524 249.269 240.695 249.82C240.867 250.371 240.871 250.96 240.707 251.513C240.487 252.255 239.982 252.879 239.303 253.249C238.623 253.618 237.824 253.702 237.083 253.483Z" fill="#9EEB5E"/>
</g>
<g clip-path="url(#clip11_172_164)">
<path d="M168.393 226.019C166.453 225.446 164.375 225.563 162.511 226.35C160.648 227.137 159.115 228.545 158.173 230.335C157.231 232.126 156.938 234.187 157.344 236.168C157.75 238.15 158.831 239.929 160.401 241.204C159.673 242.099 158.697 242.758 157.595 243.097C156.493 243.437 155.314 243.443 154.209 243.113L143.022 239.802C141.048 239.227 138.955 239.196 136.965 239.713L141.716 223.66C143.777 223.552 145.734 222.719 147.241 221.309C148.747 219.898 149.707 218 149.949 215.95C150.192 213.9 149.702 211.831 148.567 210.107C147.431 208.384 145.722 207.117 143.743 206.531C141.764 205.946 139.641 206.078 137.751 206.906C135.86 207.734 134.323 209.204 133.411 211.056C132.499 212.907 132.271 215.022 132.767 217.025C133.263 219.029 134.452 220.792 136.122 222.004L129.203 245.385C127.164 245.503 125.23 246.33 123.736 247.724C122.243 249.117 121.284 250.989 121.026 253.015C120.768 255.042 121.227 257.094 122.323 258.818C123.42 260.541 125.085 261.827 127.03 262.452C128.974 263.076 131.076 263.001 132.971 262.239C134.866 261.477 136.435 260.075 137.406 258.278C138.376 256.48 138.687 254.4 138.285 252.398C137.882 250.395 136.792 248.596 135.203 247.313C135.927 246.422 136.899 245.765 137.995 245.424C139.092 245.083 140.265 245.073 141.367 245.396L152.554 248.707C155.113 249.463 157.853 249.32 160.319 248.301C162.785 247.281 164.827 245.447 166.105 243.105C168.163 243.023 170.126 242.218 171.648 240.831C173.171 239.444 174.156 237.565 174.429 235.523C174.702 233.482 174.247 231.41 173.143 229.671C172.039 227.933 170.357 226.639 168.393 226.019ZM142.081 212.148C142.634 212.312 143.126 212.636 143.495 213.08C143.864 213.523 144.093 214.066 144.154 214.64C144.214 215.213 144.103 215.792 143.835 216.303C143.566 216.813 143.152 217.233 142.646 217.508C142.139 217.783 141.561 217.902 140.987 217.85C140.413 217.797 139.867 217.575 139.418 217.212C138.97 216.849 138.639 216.362 138.468 215.811C138.297 215.26 138.293 214.671 138.456 214.118C138.676 213.376 139.181 212.752 139.861 212.382C140.54 212.013 141.339 211.929 142.081 212.148ZM128.838 256.897C128.285 256.733 127.793 256.409 127.424 255.966C127.055 255.522 126.826 254.979 126.765 254.406C126.705 253.832 126.816 253.253 127.084 252.743C127.353 252.232 127.767 251.813 128.274 251.537C128.78 251.262 129.358 251.143 129.932 251.195C130.506 251.248 131.052 251.47 131.501 251.833C131.949 252.196 132.28 252.683 132.451 253.234C132.622 253.785 132.626 254.374 132.463 254.928C132.243 255.669 131.738 256.294 131.058 256.663C130.379 257.032 129.58 257.116 128.838 256.897ZM165.083 237.206C164.529 237.042 164.037 236.718 163.668 236.275C163.299 235.831 163.07 235.288 163.01 234.715C162.949 234.141 163.06 233.562 163.329 233.052C163.597 232.541 164.011 232.121 164.518 231.846C165.025 231.571 165.602 231.452 166.176 231.504C166.751 231.557 167.297 231.779 167.745 232.142C168.194 232.505 168.524 232.992 168.695 233.543C168.867 234.094 168.871 234.683 168.707 235.237C168.487 235.978 167.982 236.602 167.303 236.972C166.623 237.341 165.824 237.425 165.083 237.206Z" fill="#9EEB5E"/>
</g>
<g clip-path="url(#clip12_172_164)">
<path d="M251.848 203.646C249.908 203.073 247.829 203.19 245.966 203.977C244.102 204.764 242.569 206.172 241.627 207.962C240.685 209.752 240.392 211.814 240.799 213.795C241.205 215.777 242.285 217.556 243.856 218.831C243.128 219.726 242.151 220.385 241.049 220.724C239.947 221.064 238.769 221.07 237.664 220.74L226.477 217.429C224.503 216.854 222.41 216.823 220.42 217.34L225.171 201.287C227.232 201.179 229.189 200.346 230.695 198.936C232.202 197.525 233.161 195.627 233.404 193.577C233.647 191.527 233.157 189.458 232.021 187.734C230.885 186.011 229.177 184.744 227.198 184.158C225.218 183.573 223.096 183.705 221.205 184.533C219.314 185.361 217.777 186.831 216.865 188.683C215.953 190.534 215.725 192.649 216.221 194.652C216.718 196.656 217.906 198.419 219.577 199.631L212.658 223.012C210.618 223.13 208.685 223.957 207.191 225.35C205.698 226.744 204.739 228.616 204.481 230.642C204.223 232.669 204.682 234.721 205.778 236.445C206.875 238.168 208.539 239.454 210.484 240.079C212.429 240.703 214.531 240.628 216.426 239.866C218.321 239.104 219.89 237.702 220.86 235.905C221.831 234.107 222.142 232.027 221.739 230.025C221.337 228.022 220.247 226.223 218.657 224.94C219.382 224.049 220.353 223.392 221.45 223.051C222.547 222.71 223.719 222.7 224.821 223.023L236.009 226.333C238.567 227.09 241.308 226.947 243.774 225.928C246.24 224.908 248.282 223.074 249.559 220.732C251.617 220.65 253.58 219.845 255.103 218.458C256.625 217.071 257.61 215.192 257.884 213.15C258.157 211.109 257.702 209.037 256.597 207.298C255.493 205.56 253.812 204.266 251.848 203.646ZM225.535 189.775C226.089 189.939 226.581 190.263 226.95 190.707C227.319 191.15 227.548 191.693 227.608 192.267C227.669 192.84 227.558 193.419 227.289 193.93C227.021 194.44 226.607 194.86 226.1 195.135C225.593 195.41 225.016 195.529 224.442 195.477C223.867 195.424 223.321 195.202 222.873 194.839C222.424 194.476 222.094 193.989 221.922 193.438C221.751 192.887 221.747 192.298 221.911 191.744C222.13 191.003 222.636 190.379 223.315 190.009C223.995 189.64 224.794 189.556 225.535 189.775ZM212.293 234.524C211.74 234.36 211.247 234.036 210.878 233.593C210.51 233.149 210.28 232.606 210.22 232.033C210.159 231.459 210.27 230.88 210.539 230.37C210.807 229.859 211.221 229.439 211.728 229.164C212.235 228.889 212.812 228.77 213.387 228.822C213.961 228.875 214.507 229.097 214.955 229.46C215.404 229.823 215.735 230.31 215.906 230.861C216.077 231.412 216.081 232.001 215.917 232.555C215.698 233.296 215.193 233.921 214.513 234.29C213.833 234.659 213.035 234.743 212.293 234.524ZM248.537 214.833C247.984 214.669 247.492 214.345 247.123 213.901C246.754 213.458 246.525 212.915 246.464 212.341C246.404 211.768 246.515 211.189 246.783 210.678C247.052 210.168 247.466 209.748 247.972 209.473C248.479 209.198 249.056 209.079 249.631 209.131C250.205 209.184 250.751 209.406 251.2 209.769C251.648 210.132 251.979 210.619 252.15 211.17C252.321 211.721 252.325 212.31 252.162 212.864C251.942 213.605 251.437 214.229 250.757 214.599C250.077 214.968 249.279 215.052 248.537 214.833Z" fill="#9EEB5E"/>
</g>
<path d="M244.988 148.788C243.016 149.241 241.263 150.364 240.025 151.964C238.788 153.564 238.143 155.543 238.201 157.565C238.259 159.587 239.015 161.527 240.342 163.054C241.668 164.581 243.483 165.602 245.477 165.942C245.282 167.078 244.754 168.132 243.96 168.969C243.167 169.805 242.143 170.388 241.018 170.644L229.646 173.249C227.644 173.717 225.806 174.717 224.325 176.144L220.586 159.825C222.329 158.72 223.626 157.034 224.246 155.065C224.867 153.097 224.771 150.972 223.977 149.067C223.182 147.162 221.74 145.599 219.904 144.655C218.069 143.71 215.959 143.445 213.947 143.906C211.935 144.367 210.151 145.525 208.909 147.174C207.668 148.823 207.05 150.858 207.164 152.919C207.278 154.98 208.117 156.934 209.533 158.436C210.949 159.938 212.85 160.892 214.9 161.128L220.346 184.895C218.627 185.998 217.347 187.668 216.73 189.615C216.113 191.562 216.196 193.664 216.966 195.556C217.735 197.448 219.142 199.012 220.944 199.975C222.745 200.939 224.826 201.242 226.827 200.832C228.828 200.422 230.623 199.325 231.9 197.73C233.177 196.136 233.856 194.145 233.82 192.103C233.783 190.061 233.033 188.096 231.7 186.548C230.366 185.001 228.534 183.969 226.519 183.63C226.713 182.499 227.237 181.449 228.025 180.614C228.814 179.779 229.831 179.195 230.949 178.935L242.321 176.33C244.922 175.733 247.24 174.263 248.888 172.165C250.536 170.067 251.415 167.467 251.379 164.799C253.132 163.717 254.447 162.052 255.093 160.097C255.739 158.141 255.675 156.021 254.911 154.108C254.148 152.195 252.734 150.613 250.919 149.64C249.104 148.667 247.003 148.365 244.988 148.788ZM215.255 149.616C215.817 149.487 216.405 149.528 216.944 149.733C217.483 149.939 217.949 150.299 218.284 150.769C218.618 151.24 218.805 151.798 218.822 152.375C218.838 152.952 218.684 153.52 218.377 154.009C218.071 154.498 217.626 154.884 217.1 155.12C216.574 155.357 215.989 155.431 215.42 155.335C214.851 155.239 214.324 154.976 213.904 154.58C213.485 154.184 213.192 153.673 213.063 153.111C212.891 152.357 213.024 151.565 213.435 150.909C213.846 150.254 214.501 149.789 215.255 149.616ZM225.677 195.104C225.115 195.233 224.527 195.192 223.988 194.987C223.449 194.782 222.983 194.421 222.648 193.951C222.314 193.481 222.127 192.922 222.11 192.345C222.094 191.769 222.248 191.2 222.555 190.711C222.861 190.223 223.306 189.836 223.832 189.6C224.359 189.364 224.943 189.289 225.512 189.385C226.081 189.481 226.608 189.744 227.028 190.14C227.447 190.536 227.74 191.048 227.869 191.61C228.041 192.364 227.908 193.156 227.497 193.811C227.086 194.466 226.431 194.931 225.677 195.104ZM247.593 160.16C247.031 160.289 246.443 160.248 245.904 160.043C245.365 159.838 244.899 159.477 244.565 159.007C244.23 158.537 244.043 157.978 244.026 157.402C244.01 156.825 244.164 156.256 244.471 155.768C244.777 155.279 245.222 154.892 245.748 154.656C246.275 154.42 246.859 154.345 247.428 154.442C247.997 154.538 248.524 154.8 248.944 155.196C249.363 155.592 249.656 156.104 249.785 156.666C249.958 157.42 249.824 158.212 249.413 158.867C249.002 159.522 248.347 159.988 247.593 160.16Z" fill="#9EEB5E"/>
<g clip-path="url(#clip13_172_164)">
<path d="M233.738 108.3C231.794 108.858 230.104 110.073 228.954 111.737C227.805 113.402 227.267 115.413 227.434 117.429C227.6 119.445 228.46 121.341 229.867 122.795C231.273 124.248 233.14 125.169 235.15 125.402C235.016 126.547 234.546 127.627 233.798 128.506C233.051 129.384 232.06 130.021 230.951 130.337L219.735 133.55C217.761 134.125 215.979 135.223 214.578 136.727L209.966 120.633C211.647 119.436 212.851 117.683 213.365 115.683C213.878 113.684 213.669 111.568 212.773 109.708C211.877 107.849 210.352 106.366 208.469 105.522C206.585 104.677 204.464 104.526 202.48 105.095C200.495 105.663 198.776 106.915 197.625 108.629C196.475 110.342 195.967 112.407 196.192 114.459C196.417 116.511 197.36 118.417 198.854 119.841C200.348 121.265 202.298 122.115 204.358 122.24L211.075 145.68C209.417 146.874 208.23 148.61 207.718 150.588C207.207 152.565 207.403 154.659 208.273 156.507C209.143 158.355 210.633 159.841 212.483 160.706C214.333 161.571 216.428 161.762 218.404 161.245C220.38 160.728 222.113 159.536 223.303 157.875C224.492 156.214 225.063 154.19 224.917 152.153C224.77 150.115 223.916 148.193 222.501 146.72C221.087 145.246 219.201 144.314 217.171 144.085C217.304 142.944 217.771 141.868 218.513 140.992C219.255 140.115 220.239 139.477 221.342 139.158L232.557 135.944C235.122 135.209 237.358 133.616 238.891 131.432C240.424 129.249 241.162 126.605 240.982 123.943C242.674 122.769 243.897 121.036 244.437 119.048C244.977 117.061 244.799 114.946 243.934 113.078C243.068 111.209 241.571 109.705 239.707 108.831C237.842 107.957 235.728 107.769 233.738 108.3ZM204.093 110.726C204.648 110.567 205.237 110.576 205.786 110.752C206.336 110.928 206.821 111.263 207.18 111.715C207.539 112.166 207.756 112.714 207.803 113.289C207.851 113.864 207.727 114.44 207.447 114.944C207.168 115.449 206.744 115.859 206.232 116.123C205.719 116.387 205.139 116.493 204.566 116.428C203.993 116.362 203.452 116.128 203.012 115.756C202.571 115.383 202.252 114.888 202.093 114.333C201.88 113.59 201.971 112.792 202.346 112.115C202.721 111.439 203.35 110.939 204.093 110.726ZM216.948 155.587C216.393 155.746 215.804 155.737 215.254 155.561C214.705 155.385 214.22 155.05 213.861 154.599C213.502 154.147 213.285 153.599 213.238 153.024C213.19 152.45 213.314 151.873 213.594 151.369C213.873 150.865 214.296 150.454 214.809 150.19C215.322 149.926 215.902 149.82 216.475 149.886C217.048 149.951 217.589 150.185 218.029 150.558C218.469 150.931 218.789 151.426 218.948 151.98C219.161 152.724 219.07 153.522 218.695 154.198C218.32 154.875 217.691 155.374 216.948 155.587ZM236.952 119.515C236.397 119.674 235.808 119.665 235.259 119.489C234.709 119.313 234.225 118.978 233.866 118.526C233.507 118.075 233.29 117.527 233.242 116.952C233.194 116.377 233.318 115.801 233.598 115.297C233.878 114.792 234.301 114.382 234.814 114.118C235.326 113.854 235.906 113.748 236.479 113.813C237.052 113.879 237.593 114.113 238.034 114.485C238.474 114.858 238.794 115.353 238.952 115.908C239.165 116.651 239.074 117.449 238.699 118.126C238.324 118.802 237.696 119.302 236.952 119.515Z" fill="#9EEB5E"/>
</g>
<g clip-path="url(#clip14_172_164)">
<path d="M222.65 69.5433C220.706 70.1018 219.015 71.3166 217.866 72.9811C216.716 74.6455 216.179 76.6568 216.345 78.6728C216.512 80.6887 217.371 82.5847 218.778 84.0383C220.185 85.4918 222.052 86.4131 224.061 86.6453C223.927 87.7909 223.457 88.8711 222.71 89.7495C221.962 90.6278 220.971 91.265 219.862 91.5803L208.647 94.7939C206.672 95.3686 204.89 96.4663 203.489 97.9709L198.877 81.8769C200.559 80.6794 201.762 78.9262 202.276 76.927C202.79 74.9278 202.58 72.8115 201.684 70.9519C200.788 69.0924 199.264 67.6095 197.38 66.7652C195.497 65.921 193.375 65.7698 191.391 66.3383C189.407 66.9069 187.687 68.1586 186.537 69.8722C185.386 71.5859 184.878 73.6511 185.103 75.7029C185.328 77.7547 186.271 79.661 187.765 81.0848C189.26 82.5086 191.209 83.3583 193.27 83.4837L199.986 106.924C198.329 108.118 197.141 109.854 196.63 111.831C196.118 113.809 196.314 115.903 197.185 117.751C198.055 119.599 199.544 121.084 201.394 121.95C203.245 122.815 205.339 123.005 207.316 122.488C209.292 121.971 211.025 120.779 212.214 119.119C213.404 117.458 213.975 115.434 213.828 113.396C213.682 111.359 212.827 109.437 211.413 107.963C209.998 106.49 208.112 105.558 206.083 105.329C206.216 104.188 206.682 103.112 207.424 102.236C208.166 101.359 209.151 100.721 210.253 100.402L221.469 97.188C224.034 96.4525 226.269 94.8601 227.802 92.6761C229.335 90.4922 230.073 87.8488 229.893 85.1866C231.585 84.0125 232.809 82.2792 233.349 80.2917C233.889 78.3043 233.71 76.19 232.845 74.3212C231.98 72.4523 230.483 70.9485 228.618 70.0746C226.753 69.2006 224.64 69.0125 222.65 69.5433ZM193.005 71.9696C193.559 71.8107 194.148 71.8198 194.698 71.9958C195.247 72.1718 195.732 72.5067 196.091 72.9582C196.45 73.4098 196.667 73.9576 196.715 74.5325C196.762 75.1074 196.638 75.6835 196.359 76.188C196.079 76.6925 195.656 77.1027 195.143 77.3667C194.63 77.6307 194.05 77.7367 193.477 77.6713C192.904 77.6059 192.363 77.372 191.923 76.9992C191.483 76.6264 191.163 76.1314 191.004 75.5769C190.791 74.8332 190.882 74.0354 191.257 73.3589C191.632 72.6825 192.261 72.1827 193.005 71.9696ZM205.859 116.831C205.304 116.99 204.715 116.981 204.166 116.805C203.616 116.629 203.132 116.294 202.773 115.842C202.414 115.391 202.197 114.843 202.149 114.268C202.101 113.693 202.225 113.117 202.505 112.613C202.785 112.108 203.208 111.698 203.721 111.434C204.234 111.17 204.813 111.064 205.386 111.129C205.959 111.195 206.5 111.429 206.941 111.801C207.381 112.174 207.701 112.669 207.859 113.224C208.073 113.967 207.981 114.765 207.606 115.442C207.231 116.118 206.603 116.618 205.859 116.831ZM225.863 80.7586C225.309 80.9175 224.72 80.9084 224.17 80.7325C223.621 80.5565 223.136 80.2216 222.777 79.77C222.418 79.3185 222.201 78.7707 222.153 78.1958C222.106 77.6209 222.229 77.0448 222.509 76.5403C222.789 76.0358 223.212 75.6256 223.725 75.3616C224.238 75.0975 224.818 74.9915 225.391 75.0569C225.964 75.1224 226.505 75.3563 226.945 75.7291C227.385 76.1019 227.705 76.5969 227.864 77.1514C228.077 77.895 227.986 78.6928 227.611 79.3693C227.235 80.0458 226.607 80.5456 225.863 80.7586Z" fill="#9EEB5E"/>
</g>
<g clip-path="url(#clip15_172_164)">
<path d="M187.409 26.9469C185.989 28.3876 185.112 30.2757 184.927 32.2901C184.742 34.3044 185.261 36.3205 186.396 37.9954C187.53 39.6702 189.209 40.9003 191.148 41.4765C193.087 42.0526 195.166 41.9391 197.031 41.1553C197.477 42.219 197.597 43.391 197.377 44.5231C197.157 45.6552 196.606 46.6966 195.794 47.5158L187.6 55.8198C186.161 57.2893 185.147 59.1203 184.665 61.119L172.748 49.3594C173.626 47.491 173.814 45.3727 173.281 43.3787C172.747 41.3848 171.526 39.6437 169.832 38.4632C168.139 37.2827 166.083 36.7387 164.028 36.9275C161.972 37.1162 160.05 38.0255 158.6 39.4947C157.15 40.9638 156.266 42.8982 156.105 44.956C155.943 47.0137 156.514 49.0624 157.717 50.7398C158.92 52.4172 160.677 53.6153 162.678 54.1225C164.679 54.6297 166.794 54.4133 168.651 53.5114L186.006 70.6386C185.148 72.4923 184.966 74.5877 185.49 76.5618C186.015 78.536 187.214 80.2643 188.879 81.4474C190.544 82.6305 192.57 83.1937 194.607 83.0395C196.644 82.8853 198.563 82.0234 200.031 80.6031C201.499 79.1828 202.424 77.2937 202.645 75.2631C202.867 73.2325 202.371 71.1884 201.243 69.4851C200.116 67.7818 198.428 66.5265 196.472 65.9369C194.517 65.3473 192.416 65.4606 190.535 66.2569C190.092 65.1978 189.97 64.0313 190.187 62.9035C190.403 61.7757 190.947 60.7369 191.751 59.9172L199.946 51.6132C201.82 49.7137 202.986 47.2292 203.25 44.574C203.514 41.9189 202.86 39.2534 201.397 37.0222C202.295 35.1688 202.51 33.0581 202.005 31.0614C201.501 29.0647 200.308 27.3102 198.636 26.1065C196.965 24.9028 194.923 24.3271 192.869 24.4809C190.816 24.6346 188.882 25.5078 187.409 26.9469ZM162.769 43.6094C163.175 43.1988 163.693 42.9175 164.258 42.8013C164.823 42.685 165.409 42.7389 165.944 42.9561C166.478 43.1733 166.936 43.5441 167.26 44.0216C167.583 44.4992 167.758 45.0619 167.762 45.6388C167.766 46.2156 167.599 46.7807 167.281 47.2624C166.964 47.7442 166.511 48.121 165.979 48.3453C165.448 48.5695 164.862 48.6312 164.295 48.5224C163.729 48.4136 163.207 48.1393 162.797 47.7341C162.246 47.1907 161.934 46.4509 161.929 45.6774C161.924 44.9038 162.226 44.1599 162.769 43.6094ZM195.985 76.3887C195.58 76.7993 195.062 77.0805 194.497 77.1968C193.932 77.3131 193.345 77.2592 192.811 77.042C192.277 76.8247 191.819 76.4539 191.495 75.9764C191.171 75.4989 190.997 74.9361 190.993 74.3593C190.989 73.7824 191.156 73.2174 191.474 72.7357C191.791 72.2539 192.244 71.8771 192.775 71.6528C193.307 71.4285 193.893 71.3669 194.459 71.4757C195.026 71.5845 195.547 71.8588 195.958 72.264C196.509 72.8074 196.821 73.5472 196.826 74.3207C196.831 75.0942 196.529 75.8381 195.985 76.3887ZM195.713 35.1417C195.307 35.5523 194.789 35.8335 194.224 35.9498C193.659 36.0661 193.073 36.0122 192.538 35.795C192.004 35.5777 191.546 35.2069 191.222 34.7294C190.899 34.2519 190.724 33.6891 190.72 33.1123C190.716 32.5354 190.883 31.9704 191.201 31.4887C191.518 31.0069 191.971 30.6301 192.503 30.4058C193.034 30.1815 193.62 30.1199 194.187 30.2287C194.753 30.3375 195.275 30.6118 195.685 31.017C196.236 31.5604 196.548 32.3002 196.553 33.0737C196.558 33.8472 196.256 34.5911 195.713 35.1417Z" fill="#9EEB5E"/>
</g>
<path d="M141.817 177.859C139.795 177.885 137.844 178.611 136.296 179.914C134.749 181.217 133.701 183.015 133.33 185.004C132.959 186.992 133.288 189.048 134.262 190.821C135.236 192.594 136.794 193.974 138.671 194.728C138.241 195.798 137.502 196.716 136.55 197.366C135.597 198.017 134.474 198.37 133.32 198.382L121.655 198.526C119.599 198.56 117.59 199.149 115.842 200.231L115.635 183.491C117.572 182.779 119.196 181.405 120.218 179.612C121.24 177.819 121.596 175.722 121.222 173.692C120.848 171.662 119.768 169.83 118.173 168.519C116.579 167.208 114.573 166.503 112.509 166.529C110.445 166.554 108.456 167.308 106.895 168.658C105.333 170.008 104.299 171.866 103.975 173.905C103.651 175.943 104.058 178.031 105.125 179.798C106.191 181.566 107.848 182.899 109.802 183.563L110.103 207.944C108.19 208.659 106.587 210.021 105.572 211.794C104.557 213.567 104.195 215.639 104.547 217.651C104.899 219.663 105.945 221.488 107.502 222.81C109.058 224.132 111.029 224.868 113.071 224.89C115.114 224.913 117.1 224.219 118.685 222.931C120.27 221.643 121.354 219.84 121.75 217.836C122.146 215.832 121.828 213.753 120.852 211.959C119.875 210.165 118.302 208.769 116.405 208.012C116.834 206.947 117.567 206.032 118.514 205.382C119.461 204.733 120.578 204.376 121.727 204.359L133.392 204.215C136.06 204.181 138.636 203.234 140.691 201.532C142.745 199.829 144.154 197.474 144.682 194.858C146.623 194.171 148.261 192.822 149.305 191.047C150.35 189.272 150.735 187.186 150.393 185.155C150.051 183.124 149.003 181.279 147.435 179.944C145.866 178.61 143.877 177.871 141.817 177.859ZM112.581 172.386C113.158 172.379 113.724 172.543 114.207 172.858C114.691 173.172 115.07 173.623 115.298 174.153C115.525 174.683 115.59 175.269 115.484 175.836C115.379 176.403 115.108 176.926 114.705 177.339C114.302 177.752 113.786 178.036 113.221 178.156C112.657 178.275 112.07 178.225 111.534 178.011C110.999 177.797 110.538 177.428 110.212 176.953C109.886 176.477 109.708 175.915 109.701 175.339C109.691 174.565 109.989 173.819 110.529 173.266C111.069 172.712 111.807 172.396 112.581 172.386ZM113.157 219.049C112.581 219.056 112.015 218.892 111.531 218.578C111.047 218.263 110.668 217.812 110.441 217.282C110.213 216.752 110.148 216.166 110.254 215.599C110.359 215.032 110.631 214.509 111.034 214.096C111.436 213.683 111.953 213.399 112.517 213.279C113.081 213.16 113.668 213.21 114.204 213.425C114.74 213.639 115.2 214.007 115.526 214.483C115.853 214.958 116.031 215.52 116.038 216.097C116.047 216.87 115.749 217.616 115.209 218.17C114.669 218.723 113.931 219.04 113.157 219.049ZM141.962 189.525C141.385 189.532 140.819 189.368 140.335 189.053C139.852 188.739 139.472 188.288 139.245 187.757C139.018 187.227 138.953 186.642 139.058 186.074C139.164 185.507 139.435 184.984 139.838 184.571C140.241 184.158 140.757 183.874 141.321 183.755C141.886 183.635 142.473 183.686 143.008 183.9C143.544 184.114 144.004 184.482 144.33 184.958C144.657 185.434 144.835 185.995 144.842 186.572C144.852 187.346 144.553 188.091 144.013 188.645C143.473 189.199 142.735 189.515 141.962 189.525Z" fill="#9EEB5E"/>
<path d="M141.572 137.548C139.55 137.575 137.599 138.301 136.051 139.604C134.504 140.906 133.455 142.705 133.085 144.693C132.714 146.682 133.043 148.737 134.017 150.51C134.991 152.283 136.549 153.664 138.426 154.418C137.995 155.487 137.257 156.405 136.305 157.056C135.352 157.706 134.228 158.06 133.075 158.071L121.409 158.216C119.354 158.25 117.345 158.839 115.597 159.921L115.39 143.18C117.327 142.468 118.951 141.094 119.973 139.301C120.995 137.508 121.351 135.411 120.977 133.381C120.602 131.352 119.523 129.519 117.928 128.208C116.334 126.898 114.327 126.193 112.264 126.218C110.2 126.244 108.211 126.998 106.65 128.348C105.088 129.698 104.054 131.556 103.73 133.594C103.406 135.633 103.813 137.72 104.88 139.488C105.946 141.255 107.603 142.588 109.557 143.252L109.858 167.634C107.945 168.349 106.342 169.711 105.327 171.483C104.312 173.256 103.95 175.328 104.302 177.34C104.654 179.352 105.7 181.177 107.256 182.5C108.813 183.822 110.784 184.558 112.826 184.58C114.869 184.602 116.855 183.909 118.44 182.62C120.025 181.332 121.109 179.53 121.505 177.526C121.901 175.522 121.583 173.443 120.607 171.648C119.63 169.854 118.057 168.458 116.159 167.702C116.588 166.637 117.322 165.722 118.269 165.072C119.216 164.422 120.333 164.066 121.481 164.048L133.147 163.904C135.815 163.871 138.391 162.924 140.446 161.221C142.5 159.518 143.909 157.163 144.437 154.547C146.378 153.861 148.016 152.511 149.06 150.736C150.105 148.962 150.49 146.875 150.148 144.844C149.806 142.813 148.758 140.968 147.19 139.634C145.621 138.299 143.632 137.561 141.572 137.548ZM112.336 132.076C112.913 132.068 113.479 132.233 113.962 132.547C114.446 132.862 114.825 133.312 115.053 133.843C115.28 134.373 115.345 134.959 115.239 135.526C115.134 136.093 114.862 136.616 114.46 137.029C114.057 137.442 113.541 137.726 112.976 137.845C112.412 137.965 111.825 137.914 111.289 137.7C110.753 137.486 110.293 137.118 109.967 136.642C109.641 136.167 109.463 135.605 109.455 135.028C109.446 134.255 109.744 133.509 110.284 132.955C110.824 132.402 111.562 132.085 112.336 132.076ZM112.912 178.739C112.335 178.746 111.769 178.582 111.286 178.267C110.802 177.953 110.423 177.502 110.196 176.972C109.968 176.441 109.903 175.856 110.009 175.289C110.114 174.721 110.386 174.198 110.788 173.785C111.191 173.373 111.708 173.088 112.272 172.969C112.836 172.849 113.423 172.9 113.959 173.114C114.495 173.328 114.955 173.696 115.281 174.172C115.607 174.648 115.786 175.209 115.793 175.786C115.802 176.56 115.504 177.305 114.964 177.859C114.424 178.413 113.686 178.729 112.912 178.739ZM141.716 149.214C141.14 149.221 140.574 149.057 140.09 148.743C139.607 148.428 139.227 147.977 139 147.447C138.772 146.917 138.707 146.331 138.813 145.764C138.919 145.197 139.19 144.674 139.593 144.261C139.996 143.848 140.512 143.564 141.076 143.444C141.64 143.325 142.228 143.375 142.763 143.589C143.299 143.804 143.759 144.172 144.085 144.647C144.412 145.123 144.59 145.685 144.597 146.262C144.606 147.035 144.308 147.781 143.768 148.334C143.228 148.888 142.49 149.204 141.716 149.214Z" fill="#9EEB5E"/>
<path d="M140.798 95.9262C138.775 95.9525 136.824 96.6788 135.277 97.9815C133.729 99.2841 132.681 101.083 132.31 103.071C131.939 105.06 132.269 107.115 133.243 108.888C134.217 110.661 135.775 112.042 137.652 112.795C137.221 113.865 136.483 114.783 135.53 115.434C134.578 116.084 133.454 116.438 132.301 116.449L120.635 116.593C118.579 116.627 116.571 117.217 114.822 118.299L114.615 101.558C116.553 100.846 118.176 99.4723 119.199 97.6792C120.221 95.886 120.576 93.7892 120.202 91.7593C119.828 89.7294 118.748 87.8972 117.154 86.5863C115.56 85.2755 113.553 84.5705 111.489 84.596C109.425 84.6215 107.437 85.3758 105.875 86.7256C104.314 88.0754 103.279 89.9338 102.956 91.9723C102.632 94.0109 103.039 96.0983 104.105 97.8656C105.171 99.6329 106.828 100.966 108.783 101.63L109.084 126.012C107.17 126.727 105.567 128.089 104.553 129.861C103.538 131.634 103.175 133.706 103.528 135.718C103.88 137.73 104.925 139.555 106.482 140.878C108.039 142.2 110.009 142.936 112.052 142.958C114.094 142.98 116.08 142.287 117.665 140.998C119.25 139.71 120.335 137.908 120.731 135.904C121.126 133.9 120.808 131.82 119.832 130.026C118.856 128.232 117.283 126.836 115.385 126.08C115.814 125.015 116.548 124.1 117.495 123.45C118.441 122.8 119.559 122.444 120.707 122.426L132.373 122.282C135.041 122.249 137.617 121.302 139.671 119.599C141.726 117.896 143.134 115.541 143.662 112.925C145.604 112.239 147.241 110.889 148.286 109.114C149.331 107.34 149.716 105.253 149.373 103.222C149.031 101.191 147.984 99.3462 146.415 98.0116C144.846 96.6771 142.857 95.9386 140.798 95.9262ZM111.561 90.4535C112.138 90.4464 112.704 90.6105 113.188 90.925C113.671 91.2395 114.051 91.6904 114.278 92.2206C114.505 92.7508 114.57 93.3365 114.465 93.9036C114.359 94.4707 114.088 94.9938 113.685 95.4067C113.282 95.8196 112.766 96.1038 112.202 96.2233C111.637 96.3428 111.05 96.2923 110.515 96.0782C109.979 95.864 109.519 95.4958 109.193 95.0202C108.866 94.5445 108.688 93.9828 108.681 93.406C108.671 92.6325 108.97 91.8869 109.51 91.3332C110.05 90.7795 110.788 90.4631 111.561 90.4535ZM112.138 137.117C111.561 137.124 110.995 136.96 110.511 136.645C110.028 136.331 109.648 135.88 109.421 135.35C109.194 134.819 109.129 134.234 109.234 133.667C109.34 133.099 109.611 132.576 110.014 132.163C110.417 131.75 110.933 131.466 111.497 131.347C112.062 131.227 112.649 131.278 113.185 131.492C113.72 131.706 114.18 132.074 114.507 132.55C114.833 133.026 115.011 133.587 115.018 134.164C115.028 134.938 114.73 135.683 114.189 136.237C113.649 136.791 112.911 137.107 112.138 137.117ZM140.942 107.592C140.365 107.599 139.799 107.435 139.316 107.12C138.832 106.806 138.453 106.355 138.225 105.825C137.998 105.295 137.933 104.709 138.039 104.142C138.144 103.575 138.415 103.052 138.818 102.639C139.221 102.226 139.737 101.942 140.302 101.822C140.866 101.703 141.453 101.753 141.989 101.967C142.524 102.181 142.985 102.55 143.311 103.025C143.637 103.501 143.815 104.063 143.822 104.639C143.832 105.413 143.534 106.159 142.994 106.712C142.454 107.266 141.716 107.582 140.942 107.592Z" fill="#9EEB5E"/>
<g clip-path="url(#clip16_172_164)">
<path d="M96.6154 47.8335C95.4727 49.5026 94.9436 51.5161 95.1181 53.5313C95.2926 55.5466 96.1599 57.4391 97.5725 58.887C98.9851 60.3348 100.856 61.2485 102.866 61.4726C104.876 61.6968 106.902 61.2174 108.599 60.1162C109.226 61.0843 109.552 62.2165 109.535 63.3697C109.519 64.5229 109.161 65.6453 108.507 66.5952L101.91 76.2175C100.754 77.9182 100.08 79.8997 99.9582 81.9523L86.1501 72.4854C86.6831 70.4913 86.4939 68.373 85.6161 66.5049C84.7383 64.6368 83.2283 63.1391 81.353 62.2767C79.4778 61.4142 77.358 61.2424 75.3683 61.7917C73.3787 62.341 71.6472 63.5759 70.4801 65.2783C69.3129 66.9807 68.7851 69.041 68.99 71.0949C69.195 73.1487 70.1194 75.0641 71.5999 76.5023C73.0804 77.9405 75.0217 78.8091 77.0806 78.9545C79.1396 79.0998 81.1837 78.5126 82.8516 77.2966L102.962 91.0845C102.445 93.0607 102.636 95.1554 103.502 97.0057C104.367 98.8559 105.853 100.345 107.701 101.215C109.549 102.085 111.643 102.281 113.621 101.769C115.598 101.257 117.334 100.069 118.528 98.4117C119.722 96.7542 120.298 94.7313 120.157 92.6935C120.016 90.6558 119.166 88.7316 117.755 87.2545C116.344 85.7774 114.461 84.8405 112.432 84.606C110.403 84.3716 108.355 84.8545 106.645 85.971C106.021 85.007 105.695 83.8803 105.709 82.7321C105.722 81.5838 106.074 80.4651 106.721 79.5161L113.318 69.8937C114.826 67.6927 115.535 65.0412 115.325 62.3812C115.115 59.7212 114 57.2135 112.165 55.2762C112.721 53.2932 112.56 51.1776 111.71 49.3017C110.86 47.4258 109.375 45.9098 107.518 45.0207C105.66 44.1315 103.548 43.9261 101.554 44.4406C99.5598 44.9551 97.811 46.1566 96.6154 47.8335ZM75.3115 68.5908C75.6377 68.115 76.0977 67.7467 76.6332 67.5323C77.1688 67.3179 77.7558 67.2672 78.3202 67.3865C78.8846 67.5057 79.401 67.7897 79.804 68.2025C80.207 68.6152 80.4785 69.1382 80.5843 69.7053C80.6901 70.2724 80.6253 70.8581 80.3982 71.3883C80.1711 71.9186 79.7918 72.3696 79.3084 72.6844C78.825 72.9991 78.2591 73.1634 77.6822 73.1565C77.1054 73.1496 76.5436 72.9719 76.0678 72.6457C75.4298 72.2082 74.9917 71.5353 74.8499 70.7749C74.708 70.0144 74.8741 69.2288 75.3115 68.5908ZM113.801 94.9792C113.475 95.455 113.015 95.8233 112.479 96.0377C111.944 96.2521 111.357 96.3028 110.792 96.1835C110.228 96.0642 109.711 95.7803 109.308 95.3675C108.905 94.9548 108.634 94.4318 108.528 93.8647C108.422 93.2976 108.487 92.7119 108.714 92.1816C108.941 91.6514 109.321 91.2003 109.804 90.8856C110.287 90.5709 110.853 90.4066 111.43 90.4135C112.007 90.4203 112.569 90.5981 113.045 90.9243C113.683 91.3617 114.121 92.0347 114.262 92.7951C114.404 93.5556 114.238 94.3412 113.801 94.9792ZM106.238 54.4306C105.912 54.9064 105.452 55.2747 104.916 55.4891C104.381 55.7035 103.793 55.7542 103.229 55.6349C102.665 55.5157 102.148 55.2317 101.745 54.8189C101.342 54.4062 101.071 53.8832 100.965 53.3161C100.859 52.749 100.924 52.1633 101.151 51.633C101.378 51.1028 101.757 50.6518 102.241 50.337C102.724 50.0223 103.29 49.858 103.867 49.8649C104.444 49.8718 105.006 50.0495 105.481 50.3757C106.119 50.8132 106.558 51.4861 106.699 52.2465C106.841 53.007 106.675 53.7926 106.238 54.4306Z" fill="#9EEB5E"/>
</g>
<defs>
<clipPath id="clip0_172_164">
<rect width="70" height="70" fill="white" transform="translate(170.706 323) rotate(29.7221)"/>
</clipPath>
<clipPath id="clip1_172_164">
<rect width="70" height="70" fill="white" transform="translate(190.706 288) rotate(29.7221)"/>
</clipPath>
<clipPath id="clip2_172_164">
<rect width="70" height="70" fill="white" transform="translate(90 287.186) rotate(-23.7444)"/>
</clipPath>
<clipPath id="clip3_172_164">
<rect width="70" height="70" fill="white" transform="translate(170.706 406) rotate(29.7221)"/>
</clipPath>
<clipPath id="clip4_172_164">
<rect width="70" height="70" fill="white" transform="translate(210.706 395) rotate(29.7221)"/>
</clipPath>
<clipPath id="clip5_172_164">
<rect width="70" height="70" fill="white" transform="translate(141.706 476) rotate(29.7221)"/>
</clipPath>
<clipPath id="clip6_172_164">
<rect width="70" height="70" fill="white" transform="translate(47 460.709) rotate(-48.8497)"/>
</clipPath>
<clipPath id="clip7_172_164">
<rect width="70" height="70" fill="white" transform="translate(0 481.437) rotate(-15.2709)"/>
</clipPath>
<clipPath id="clip8_172_164">
<rect width="70" height="70" fill="white" transform="translate(74 250.186) rotate(-23.7444)"/>
</clipPath>
<clipPath id="clip9_172_164">
<rect width="70" height="70" fill="white" transform="translate(57 212.186) rotate(-23.7444)"/>
</clipPath>
<clipPath id="clip10_172_164">
<rect width="70" height="70" fill="white" transform="translate(197.864 211.277) rotate(16.4853)"/>
</clipPath>
<clipPath id="clip11_172_164">
<rect width="70" height="70" fill="white" transform="translate(125.864 195) rotate(16.4853)"/>
</clipPath>
<clipPath id="clip12_172_164">
<rect width="70" height="70" fill="white" transform="translate(209.318 172.627) rotate(16.4853)"/>
</clipPath>
<clipPath id="clip13_172_164">
<rect width="70" height="70" fill="white" transform="translate(181.205 104.966) rotate(-15.9889)"/>
</clipPath>
<clipPath id="clip14_172_164">
<rect width="70" height="70" fill="white" transform="translate(170.116 66.21) rotate(-15.9889)"/>
</clipPath>
<clipPath id="clip15_172_164">
<rect width="70" height="70" fill="white" transform="translate(140 49.8237) rotate(-45.3789)"/>
</clipPath>
<clipPath id="clip16_172_164">
<rect width="70" height="70" fill="white" transform="translate(54 78.7339) rotate(-55.5654)"/>
</clipPath>
</defs>
</svg>
