<svg width="31" height="42" viewBox="0 0 31 42" fill="none" xmlns="http://www.w3.org/2000/svg">
<path d="M14.9 2.69909C15.0264 2.48474 15.2115 2.31668 15.4276 2.22007C15.6437 2.12346 15.8792 2.10351 16.0988 2.1632L24.2284 4.36757C24.3893 4.41134 24.5362 4.49641 24.6569 4.61577C24.7777 4.73513 24.8689 4.88537 24.923 5.05413C24.9771 5.22288 24.9926 5.40532 24.9682 5.58643C24.9438 5.76753 24.8802 5.94213 24.7826 6.09584L17.8431 17.0252L25.5784 19.1226C25.7688 19.1741 25.939 19.2831 26.0697 19.4374C26.2003 19.5916 26.2863 19.7848 26.3176 19.995C26.349 20.2052 26.3246 20.4239 26.2471 20.6263C26.1696 20.8286 26.0422 21.0065 25.8794 21.1396L6.0561 37.3479C5.85275 37.5149 5.60539 37.6026 5.3572 37.5956C5.10901 37.5886 4.87575 37.4874 4.69811 37.3096C4.52048 37.1318 4.40976 36.8887 4.38527 36.6228C4.36078 36.3569 4.42408 36.085 4.56412 35.8546L11.8641 23.7975L5.11038 21.9662C4.95236 21.9235 4.80777 21.8409 4.68809 21.7251C4.5684 21.6093 4.47693 21.4634 4.42092 21.2989C4.36491 21.1345 4.34592 20.9562 4.36545 20.778C4.38498 20.5998 4.44249 20.4268 4.53342 20.2726L14.9 2.69909ZM16.2371 4.59887L7.08986 20.1048L13.8618 21.9411C14.0209 21.9841 14.1663 22.0676 14.2864 22.1846C14.4064 22.3017 14.4978 22.4492 14.5532 22.6151C14.6086 22.781 14.6263 22.9608 14.6051 23.1401C14.5839 23.3193 14.5243 23.4929 14.431 23.647L9.57538 31.6664L22.8795 20.789L15.8108 18.8723C15.6499 18.8285 15.503 18.7434 15.3823 18.6241C15.2615 18.5047 15.1703 18.3545 15.1162 18.1857C15.0621 18.017 15.0466 17.8345 15.071 17.6534C15.0954 17.4723 15.159 17.2977 15.2566 17.144L22.1961 6.21467L16.2371 4.59887Z" fill="black"/>
</svg>
