<svg width="164" height="58" viewBox="0 0 164 58" fill="none" xmlns="http://www.w3.org/2000/svg">
<path fill-rule="evenodd" clip-rule="evenodd" d="M55.0798 4.82389C55.0798 5.4562 54.9446 6.05883 54.7043 6.61268C60.9013 12.1854 64.4132 19.7791 64.4132 27.8434C64.4132 44.2136 49.9657 57.5329 32.2073 57.5329C14.4475 57.5329 1.09971e-05 44.2136 1.09971e-05 27.8434C1.09971e-05 21.5698 2.17368 15.4538 6.14836 10.4072C5.69989 9.69642 5.43882 8.87356 5.43882 7.994C5.43882 5.33356 7.78701 3.16894 10.6716 3.16894C13.5591 3.16894 15.9073 5.33356 15.9073 7.994C15.9073 10.6544 13.5591 12.8177 10.6716 12.8177C10.0544 12.8177 9.465 12.7129 8.91426 12.5316C5.47316 16.9808 3.59418 22.3432 3.59418 27.8434C3.59418 42.3872 16.4295 54.2191 32.2073 54.2191C47.9852 54.2191 60.819 42.3872 60.819 27.8428C60.819 20.7278 57.7434 14.0224 52.306 9.08125C51.5722 9.44257 50.7353 9.64894 49.847 9.64894C46.9609 9.64894 44.6127 7.48433 44.6127 4.82389C44.6127 2.16477 46.9609 0.000152469 49.847 0.000152469C52.733 0.000152469 55.0798 2.16477 55.0798 4.82389ZM49.847 3.31334C48.9429 3.31334 48.2069 3.99048 48.2069 4.82389C48.2069 5.65861 48.9429 6.33576 49.847 6.33576C50.7511 6.33576 51.4856 5.65861 51.4856 4.82389C51.4856 3.99048 50.7511 3.31334 49.847 3.31334ZM12.3124 7.99334C12.3124 7.15861 11.5764 6.48147 10.6709 6.48147C9.76756 6.48147 9.03227 7.15927 9.03227 7.99334C9.03227 8.82675 9.76684 9.50389 10.6709 9.50389C11.5764 9.50389 12.3124 8.82675 12.3124 7.99334ZM74.9504 22.2396V33.876H77.0583V29.9442H79.2856C80.1833 29.9442 80.939 29.7794 81.5526 29.4498C82.1663 29.1165 82.6303 28.6601 82.9447 28.0805C83.2591 27.501 83.4163 26.8381 83.4163 26.0919C83.4163 25.3532 83.2591 24.6942 82.9447 24.1146C82.6341 23.5313 82.1739 23.0729 81.564 22.7396C80.9579 22.4063 80.2079 22.2396 79.314 22.2396H74.9504ZM77.0583 28.2112H79.0015C79.5242 28.2112 79.9523 28.1203 80.2856 27.9385C80.6189 27.7567 80.8651 27.5067 81.0242 27.1885C81.1871 26.8703 81.2685 26.5048 81.2685 26.0919C81.2685 25.679 81.1871 25.3154 81.0242 25.001C80.8651 24.6866 80.617 24.4423 80.2799 24.268C79.9466 24.09 79.5167 24.001 78.9901 24.001H77.0583V28.2112ZM94.9404 31.2794C95.4101 30.3854 95.645 29.3116 95.645 28.0578C95.645 26.804 95.4101 25.732 94.9404 24.8419C94.4745 23.9479 93.8382 23.2642 93.0313 22.7907C92.2283 22.3173 91.3173 22.0805 90.2984 22.0805C89.2794 22.0805 88.3666 22.3173 87.5597 22.7907C86.7567 23.2642 86.1203 23.9479 85.6507 24.8419C85.1847 25.732 84.9518 26.804 84.9518 28.0578C84.9518 29.3078 85.1847 30.3798 85.6507 31.2737C86.1203 32.1639 86.7567 32.8476 87.5597 33.3248C88.3666 33.7983 89.2794 34.0351 90.2984 34.0351C91.3173 34.0351 92.2283 33.7983 93.0313 33.3248C93.8382 32.8514 94.4745 32.1695 94.9404 31.2794ZM93.1109 25.8248C93.3874 26.4309 93.5257 27.1752 93.5257 28.0578C93.5257 28.9404 93.3874 29.6866 93.1109 30.2964C92.8382 30.9025 92.4594 31.3627 91.9745 31.6771C91.4897 31.9877 90.931 32.143 90.2984 32.143C89.6658 32.143 89.1071 31.9877 88.6222 31.6771C88.1374 31.3627 87.7567 30.9025 87.4802 30.2964C87.2075 29.6866 87.0711 28.9404 87.0711 28.0578C87.0711 27.1752 87.2075 26.4309 87.4802 25.8248C87.7567 25.215 88.1374 24.7548 88.6222 24.4442C89.1071 24.1298 89.6658 23.9726 90.2984 23.9726C90.931 23.9726 91.4897 24.1298 91.9745 24.4442C92.4594 24.7548 92.8382 25.215 93.1109 25.8248ZM102.002 22.2396H97.6379V33.876H99.7458V29.6146H101.891L104.178 33.876H106.53L104.013 29.2692C104.089 29.2386 104.163 29.206 104.234 29.1714C104.848 28.8722 105.312 28.4498 105.627 27.9044C105.945 27.3551 106.104 26.7074 106.104 25.9612C106.104 25.2188 105.947 24.5692 105.632 24.0123C105.322 23.4517 104.861 23.0161 104.252 22.7055C103.645 22.3949 102.895 22.2396 102.002 22.2396ZM99.7458 27.8646H101.689C102.212 27.8646 102.64 27.7926 102.973 27.6487C103.306 27.501 103.553 27.287 103.712 27.0067C103.875 26.7226 103.956 26.3741 103.956 25.9612C103.956 25.5483 103.875 25.1961 103.712 24.9044C103.549 24.6089 103.301 24.3854 102.967 24.2339C102.634 24.0786 102.204 24.001 101.678 24.001H99.7458V27.8646ZM107.533 22.2396V24.0067H111.129V33.876H113.22V24.0067H116.817V22.2396H107.533ZM126.061 22.2396H118.607V33.876H120.715V28.9328H125.55V27.1657H120.715V24.0067H126.061V22.2396ZM137.675 31.2794C138.145 30.3854 138.379 29.3116 138.379 28.0578C138.379 26.804 138.145 25.732 137.675 24.8419C137.209 23.9479 136.573 23.2642 135.766 22.7907C134.963 22.3173 134.052 22.0805 133.033 22.0805C132.014 22.0805 131.101 22.3173 130.294 22.7907C129.491 23.2642 128.855 23.9479 128.385 24.8419C127.919 25.732 127.686 26.804 127.686 28.0578C127.686 29.3078 127.919 30.3798 128.385 31.2737C128.855 32.1639 129.491 32.8476 130.294 33.3248C131.101 33.7983 132.014 34.0351 133.033 34.0351C134.052 34.0351 134.963 33.7983 135.766 33.3248C136.573 32.8514 137.209 32.1695 137.675 31.2794ZM135.845 25.8248C136.122 26.4309 136.26 27.1752 136.26 28.0578C136.26 28.9404 136.122 29.6866 135.845 30.2964C135.573 30.9025 135.194 31.3627 134.709 31.6771C134.224 31.9877 133.665 32.143 133.033 32.143C132.4 32.143 131.841 31.9877 131.357 31.6771C130.872 31.3627 130.491 30.9025 130.215 30.2964C129.942 29.6866 129.805 28.9404 129.805 28.0578C129.805 27.1752 129.942 26.4309 130.215 25.8248C130.491 25.215 130.872 24.7548 131.357 24.4442C131.841 24.1298 132.4 23.9726 133.033 23.9726C133.665 23.9726 134.224 24.1298 134.709 24.4442C135.194 24.7548 135.573 25.215 135.845 25.8248ZM142.48 22.2396H140.372V33.876H147.605V32.1089H142.48V22.2396ZM149.435 33.876H151.543V22.2396H149.435V33.876ZM163.519 31.2794C163.988 30.3854 164.223 29.3116 164.223 28.0578C164.223 26.804 163.988 25.732 163.519 24.8419C163.053 23.9479 162.416 23.2642 161.609 22.7907C160.806 22.3173 159.895 22.0805 158.876 22.0805C157.858 22.0805 156.945 22.3173 156.138 22.7907C155.335 23.2642 154.698 23.9479 154.229 24.8419C153.763 25.732 153.53 26.804 153.53 28.0578C153.53 29.3078 153.763 30.3798 154.229 31.2737C154.698 32.1639 155.335 32.8476 156.138 33.3248C156.945 33.7983 157.858 34.0351 158.876 34.0351C159.895 34.0351 160.806 33.7983 161.609 33.3248C162.416 32.8514 163.053 32.1695 163.519 31.2794ZM161.689 25.8248C161.966 26.4309 162.104 27.1752 162.104 28.0578C162.104 28.9404 161.966 29.6866 161.689 30.2964C161.416 30.9025 161.037 31.3627 160.553 31.6771C160.068 31.9877 159.509 32.143 158.876 32.143C158.244 32.143 157.685 31.9877 157.2 31.6771C156.716 31.3627 156.335 30.9025 156.058 30.2964C155.786 29.6866 155.649 28.9404 155.649 28.0578C155.649 27.1752 155.786 26.4309 156.058 25.8248C156.335 25.215 156.716 24.7548 157.2 24.4442C157.685 24.1298 158.244 23.9726 158.876 23.9726C159.509 23.9726 160.068 24.1298 160.553 24.4442C161.037 24.7548 161.416 25.215 161.689 25.8248ZM15.3709 19.6591C15.3709 21.045 16.011 22.2911 17.0274 23.172C16.4838 24.6694 16.2049 26.2333 16.2049 27.8428C16.2049 35.9777 23.3839 42.5955 32.2073 42.5955C41.0293 42.5955 48.2069 35.9777 48.2069 27.8428C48.2069 25.5971 47.6483 23.4028 46.5947 21.4063C47.2077 20.6158 47.5739 19.6498 47.5739 18.6067C47.5739 15.9463 45.2257 13.7817 42.3382 13.7817C39.4521 13.7817 37.1054 15.9463 37.1054 18.6067C37.1054 21.2685 39.4521 23.4344 42.3382 23.4344C42.7688 23.4344 43.1851 23.3804 43.5856 23.29C44.2587 24.7169 44.6127 26.2637 44.6127 27.8421C44.6127 34.1494 39.0487 39.2817 32.2073 39.2817C25.3652 39.2817 19.799 34.15 19.799 27.8421C19.799 26.683 19.9986 25.5575 20.3634 24.4722C20.3788 24.473 20.3942 24.4739 20.4096 24.4749C20.421 24.4756 20.4324 24.4763 20.4437 24.4771C20.4976 24.4806 20.5516 24.4841 20.6066 24.4841C23.4926 24.4841 25.8408 22.3195 25.8408 19.6591C25.8408 16.9986 23.4926 14.8353 20.6066 14.8353C17.7191 14.8353 15.3709 16.9986 15.3709 19.6591ZM40.6996 18.6074C40.6996 17.7727 41.4341 17.0955 42.3382 17.0955C43.2437 17.0955 43.9797 17.7727 43.9797 18.6074C43.9797 19.4421 43.2437 20.1219 42.3382 20.1219C41.4341 20.1219 40.6996 19.4415 40.6996 18.6074ZM22.2466 19.6591C22.2466 20.4938 21.5106 21.1709 20.6066 21.1709C19.701 21.1709 18.965 20.4938 18.965 19.6591C18.965 18.8256 19.701 18.1485 20.6066 18.1485C21.5106 18.1485 22.2466 18.8263 22.2466 19.6591ZM10.6716 28.5219C13.5591 28.5219 15.9073 30.6865 15.9073 33.347C15.9073 34.69 15.3079 35.9059 14.3431 36.7828C17.8764 42.7887 24.6835 46.5852 32.2066 46.5852C43.4161 46.5852 52.5356 38.1786 52.5356 27.8441C52.5356 22.8397 50.4206 18.134 46.5818 14.5927C43.042 11.327 38.4207 9.41949 33.4612 9.14389C32.6078 10.7428 30.8269 11.8505 28.7648 11.8505C25.8787 11.8505 23.5305 9.68587 23.5305 7.02675C23.5305 4.36631 25.8787 2.20169 28.7648 2.20169C31.2095 2.20169 33.2616 3.75576 33.8345 5.84719C39.6138 6.20257 44.9939 8.44103 49.1246 12.25C53.6421 16.4171 56.1305 21.9542 56.1305 27.8435C56.1305 40.005 45.3988 49.8977 32.2073 49.8977C23.268 49.8977 15.1828 45.3437 11.0615 38.1555C11.03 38.1573 10.9987 38.1592 10.9674 38.1612C10.8692 38.1673 10.7714 38.1733 10.6716 38.1733C7.78701 38.1733 5.43882 36.0074 5.43882 33.347C5.43882 30.6865 7.78701 28.5219 10.6716 28.5219ZM27.1247 7.02609C27.1247 7.85949 27.8607 8.53664 28.7648 8.53664C29.6703 8.53664 30.4049 7.85949 30.4049 7.02609C30.4049 6.19136 29.6703 5.51422 28.7648 5.51422C27.8607 5.51422 27.1247 6.19136 27.1247 7.02609ZM10.6709 31.8351C9.76684 31.8351 9.03227 32.5122 9.03227 33.347C9.03227 34.1817 9.76756 34.8602 10.6709 34.8602C11.5764 34.8602 12.3124 34.1817 12.3124 33.347C12.3124 32.5122 11.5764 31.8351 10.6709 31.8351Z" fill="black"/>
</svg>
